%TF.GenerationSoftware,KiCad,Pcbnew,9.0.7*%
%TF.CreationDate,2026-04-24T14:08:52-05:00*%
%TF.ProjectId,Excite_V1,45786369-7465-45f5-9631-2e6b69636164,rev?*%
%TF.SameCoordinates,Original*%
%TF.FileFunction,Copper,L1,Top*%
%TF.FilePolarity,Positive*%
%FSLAX46Y46*%
G04 Gerber Fmt 4.6, Leading zero omitted, Abs format (unit mm)*
G04 Created by KiCad (PCBNEW 9.0.7) date 2026-04-24 14:08:52*
%MOMM*%
%LPD*%
G01*
G04 APERTURE LIST*
G04 Aperture macros list*
%AMRoundRect*
0 Rectangle with rounded corners*
0 $1 Rounding radius*
0 $2 $3 $4 $5 $6 $7 $8 $9 X,Y pos of 4 corners*
0 Add a 4 corners polygon primitive as box body*
4,1,4,$2,$3,$4,$5,$6,$7,$8,$9,$2,$3,0*
0 Add four circle primitives for the rounded corners*
1,1,$1+$1,$2,$3*
1,1,$1+$1,$4,$5*
1,1,$1+$1,$6,$7*
1,1,$1+$1,$8,$9*
0 Add four rect primitives between the rounded corners*
20,1,$1+$1,$2,$3,$4,$5,0*
20,1,$1+$1,$4,$5,$6,$7,0*
20,1,$1+$1,$6,$7,$8,$9,0*
20,1,$1+$1,$8,$9,$2,$3,0*%
G04 Aperture macros list end*
%TA.AperFunction,ComponentPad*%
%ADD10RoundRect,0.250000X-0.750000X-0.750000X0.750000X-0.750000X0.750000X0.750000X-0.750000X0.750000X0*%
%TD*%
%TA.AperFunction,SMDPad,CuDef*%
%ADD11RoundRect,0.250000X-1.045000X0.785000X-1.045000X-0.785000X1.045000X-0.785000X1.045000X0.785000X0*%
%TD*%
%TA.AperFunction,ComponentPad*%
%ADD12R,1.651000X1.651000*%
%TD*%
%TA.AperFunction,ComponentPad*%
%ADD13C,1.651000*%
%TD*%
%TA.AperFunction,ComponentPad*%
%ADD14C,4.500000*%
%TD*%
%TA.AperFunction,SMDPad,CuDef*%
%ADD15R,1.450000X3.920000*%
%TD*%
%TA.AperFunction,SMDPad,CuDef*%
%ADD16R,10.750000X8.750000*%
%TD*%
%TA.AperFunction,SMDPad,CuDef*%
%ADD17RoundRect,0.250000X-0.785000X-1.045000X0.785000X-1.045000X0.785000X1.045000X-0.785000X1.045000X0*%
%TD*%
%TA.AperFunction,SMDPad,CuDef*%
%ADD18RoundRect,0.250000X-0.262500X-0.450000X0.262500X-0.450000X0.262500X0.450000X-0.262500X0.450000X0*%
%TD*%
%TA.AperFunction,SMDPad,CuDef*%
%ADD19RoundRect,1.250000X-2.000000X-1.250000X2.000000X-1.250000X2.000000X1.250000X-2.000000X1.250000X0*%
%TD*%
%TA.AperFunction,SMDPad,CuDef*%
%ADD20RoundRect,4.318000X-4.953000X4.318000X-4.953000X-4.318000X4.953000X-4.318000X4.953000X4.318000X0*%
%TD*%
%TA.AperFunction,Conductor*%
%ADD21C,0.800000*%
%TD*%
%TA.AperFunction,Conductor*%
%ADD22C,1.000000*%
%TD*%
G04 APERTURE END LIST*
D10*
%TO.P,J1,1,Pin_1*%
%TO.N,Net-(J1-Pin_1)*%
X12000000Y-6000000D03*
%TD*%
%TO.P,,GND_PIN,Pin_1*%
%TO.N,GND*%
X4000000Y-25000000D03*
%TD*%
D11*
%TO.P,C2,1*%
%TO.N,Net-(U1-VOUT)*%
X21000000Y-23880000D03*
%TO.P,C2,2*%
%TO.N,GND*%
X21000000Y-30120000D03*
%TD*%
D12*
%TO.P,CR1,1*%
%TO.N,Net-(CR1-Pad1)*%
X21000000Y-7651000D03*
D13*
%TO.P,CR1,2*%
%TO.N,Net-(CR1-Pad2)*%
X21000000Y-5111000D03*
%TO.P,CR1,3*%
%TO.N,GND*%
X21000000Y-2571000D03*
%TD*%
D14*
%TO.P,H1,1*%
%TO.N,GND*%
X4000000Y-3000000D03*
%TD*%
D15*
%TO.P,U1,1,VIN*%
%TO.N,VDD*%
X7571000Y-23350000D03*
%TO.P,U1,2,GND*%
%TO.N,GND*%
X10111000Y-23350000D03*
%TO.P,U1,3,VOUT*%
%TO.N,Net-(U1-VOUT)*%
X12651000Y-23350000D03*
D16*
%TO.P,U1,4*%
%TO.N,N/C*%
X10111000Y-13050000D03*
%TD*%
D14*
%TO.P,H3,3*%
%TO.N,GND*%
X4000000Y-29000000D03*
%TD*%
%TO.P,H4,4*%
%TO.N,GND*%
X41500000Y-29000000D03*
%TD*%
D10*
%TO.P,,GND_PIN,Pin_1*%
%TO.N,GND*%
X12000000Y-2500000D03*
%TD*%
D17*
%TO.P,C1,1*%
%TO.N,VDD*%
X9760000Y-29000000D03*
%TO.P,C1,2*%
%TO.N,GND*%
X16000000Y-29000000D03*
%TD*%
D18*
%TO.P,R1,1*%
%TO.N,Net-(J1-Pin_1)*%
X15587500Y-6000000D03*
%TO.P,R1,2*%
%TO.N,Net-(CR1-Pad1)*%
X17412500Y-6000000D03*
%TD*%
D19*
%TO.P,U2,1*%
%TO.N,Net-(CR1-Pad2)*%
X34238000Y-3046000D03*
%TO.P,U2,2*%
%TO.N,Net-(U1-VOUT)*%
X33984000Y-28700000D03*
D20*
%TO.P,U2,3*%
%TO.N,GND*%
X34111000Y-16000000D03*
%TD*%
D10*
%TO.P,,VDD_PIN,Pin_1*%
%TO.N,VDD*%
X4000000Y-22000000D03*
%TD*%
D14*
%TO.P,H2,2*%
%TO.N,GND*%
X41500000Y-3000000D03*
%TD*%
D21*
%TO.N,Net-(CR1-Pad1)*%
X20000000Y-11000000D02*
X21000000Y-10000000D01*
X17412500Y-9412500D02*
X19000000Y-11000000D01*
X17412500Y-6000000D02*
X17412500Y-9412500D01*
X19000000Y-11000000D02*
X20000000Y-11000000D01*
X21000000Y-10000000D02*
X21000000Y-7651000D01*
%TO.N,Net-(J1-Pin_1)*%
X12000000Y-6000000D02*
X15587500Y-6000000D01*
%TO.N,VDD*%
X4000000Y-22000000D02*
X6221000Y-22000000D01*
X6221000Y-22000000D02*
X7571000Y-23350000D01*
X7571000Y-26811000D02*
X9760000Y-29000000D01*
D22*
X7567703Y-22353297D02*
X7571000Y-22350000D01*
D21*
X7571000Y-23350000D02*
X7571000Y-26811000D01*
%TO.N,GND*%
X29611000Y-24000000D02*
X37000000Y-16611000D01*
X34111000Y-16000000D02*
X34111000Y-10389000D01*
X5000000Y-2000000D02*
X5500000Y-2500000D01*
X34111000Y-16000000D02*
X34111000Y-21611000D01*
X11500000Y-3000000D02*
X12000000Y-2500000D01*
X4000000Y-3000000D02*
X5000000Y-2000000D01*
X10111000Y-23350000D02*
X10111000Y-25111000D01*
X12071000Y-2571000D02*
X12000000Y-2500000D01*
D22*
X29718194Y-11026194D02*
X29738000Y-11046000D01*
D21*
%TO.N,Net-(U1-VOUT)*%
X20470000Y-23350000D02*
X21000000Y-23880000D01*
X25820000Y-28700000D02*
X33984000Y-28700000D01*
X21000000Y-23880000D02*
X25820000Y-28700000D01*
X12651000Y-23350000D02*
X20470000Y-23350000D01*
%TO.N,Net-(CR1-Pad2)*%
X29000000Y-3000000D02*
X29046000Y-3046000D01*
X21000000Y-5111000D02*
X26889000Y-5111000D01*
X26889000Y-5111000D02*
X29000000Y-3000000D01*
X29046000Y-3046000D02*
X34238000Y-3046000D01*
%TD*%
%TA.AperFunction,Conductor*%
%TO.N,GND*%
G36*
X44442539Y479815D02*
G01*
X44488294Y427011D01*
X44499500Y375500D01*
X44499500Y-32375500D01*
X44479815Y-32442539D01*
X44427011Y-32488294D01*
X44375500Y-32499500D01*
X624500Y-32499500D01*
X557461Y-32479815D01*
X511706Y-32427011D01*
X500500Y-32375500D01*
X500500Y-30954986D01*
X19205001Y-30954986D01*
X19215494Y-31057697D01*
X19270641Y-31224119D01*
X19270643Y-31224124D01*
X19362684Y-31373345D01*
X19486654Y-31497315D01*
X19635875Y-31589356D01*
X19635880Y-31589358D01*
X19802302Y-31644505D01*
X19802309Y-31644506D01*
X19905019Y-31654999D01*
X20749999Y-31654999D01*
X21250000Y-31654999D01*
X22094972Y-31654999D01*
X22094986Y-31654998D01*
X22197697Y-31644505D01*
X22364119Y-31589358D01*
X22364124Y-31589356D01*
X22513345Y-31497315D01*
X22637315Y-31373345D01*
X22729356Y-31224124D01*
X22729358Y-31224119D01*
X22784505Y-31057697D01*
X22784506Y-31057690D01*
X22794999Y-30954986D01*
X22795000Y-30954973D01*
X22795000Y-30370000D01*
X21250000Y-30370000D01*
X21250000Y-31654999D01*
X20749999Y-31654999D01*
X20750000Y-31654998D01*
X20750000Y-30370000D01*
X19205001Y-30370000D01*
X19205001Y-30954986D01*
X500500Y-30954986D01*
X500500Y-21199983D01*
X2499500Y-21199983D01*
X2499500Y-22800001D01*
X2499501Y-22800018D01*
X2510000Y-22902796D01*
X2510001Y-22902799D01*
X2565185Y-23069331D01*
X2565187Y-23069336D01*
X2657289Y-23218657D01*
X2781344Y-23342712D01*
X2865718Y-23394754D01*
X2912443Y-23446702D01*
X2923666Y-23515664D01*
X2895822Y-23579747D01*
X2865720Y-23605831D01*
X2781656Y-23657682D01*
X2657684Y-23781654D01*
X2565643Y-23930875D01*
X2565641Y-23930880D01*
X2510494Y-24097302D01*
X2510493Y-24097309D01*
X2500000Y-24200013D01*
X2500000Y-24750000D01*
X3653590Y-24750000D01*
X3603963Y-24835956D01*
X3575000Y-24944048D01*
X3575000Y-25055952D01*
X3603963Y-25164044D01*
X3653590Y-25250000D01*
X2500001Y-25250000D01*
X2500001Y-25799986D01*
X2510494Y-25902697D01*
X2565641Y-26069119D01*
X2565643Y-26069124D01*
X2657684Y-26218345D01*
X2781654Y-26342315D01*
X2930875Y-26434356D01*
X2930880Y-26434358D01*
X3097302Y-26489505D01*
X3097309Y-26489506D01*
X3200019Y-26499999D01*
X3749999Y-26499999D01*
X3750000Y-26499998D01*
X3750000Y-25346409D01*
X3835956Y-25396037D01*
X3944048Y-25425000D01*
X4055952Y-25425000D01*
X4164044Y-25396037D01*
X4250000Y-25346409D01*
X4250000Y-26499999D01*
X4799972Y-26499999D01*
X4799986Y-26499998D01*
X4902697Y-26489505D01*
X5069119Y-26434358D01*
X5069124Y-26434356D01*
X5218345Y-26342315D01*
X5342315Y-26218345D01*
X5434356Y-26069124D01*
X5434358Y-26069119D01*
X5489505Y-25902697D01*
X5489506Y-25902690D01*
X5499999Y-25799986D01*
X5500000Y-25799973D01*
X5500000Y-25250000D01*
X4346410Y-25250000D01*
X4396037Y-25164044D01*
X4425000Y-25055952D01*
X4425000Y-24944048D01*
X4396037Y-24835956D01*
X4346410Y-24750000D01*
X5499999Y-24750000D01*
X5499999Y-24200028D01*
X5499998Y-24200013D01*
X5489505Y-24097302D01*
X5434358Y-23930880D01*
X5434356Y-23930875D01*
X5342315Y-23781654D01*
X5218344Y-23657683D01*
X5218340Y-23657680D01*
X5134280Y-23605831D01*
X5087555Y-23553883D01*
X5076334Y-23484921D01*
X5104177Y-23420839D01*
X5134278Y-23394756D01*
X5218656Y-23342712D01*
X5342712Y-23218656D01*
X5434814Y-23069334D01*
X5462595Y-22985495D01*
X5476465Y-22965463D01*
X5486588Y-22943297D01*
X5496000Y-22937248D01*
X5502368Y-22928051D01*
X5524866Y-22918697D01*
X5545366Y-22905523D01*
X5562467Y-22903064D01*
X5566884Y-22901228D01*
X5580301Y-22900500D01*
X5796638Y-22900500D01*
X5863677Y-22920185D01*
X5884319Y-22936819D01*
X6309181Y-23361680D01*
X6342666Y-23423003D01*
X6345500Y-23449361D01*
X6345500Y-25357870D01*
X6345501Y-25357876D01*
X6351908Y-25417483D01*
X6402202Y-25552328D01*
X6402206Y-25552335D01*
X6488452Y-25667544D01*
X6488455Y-25667547D01*
X6603663Y-25753792D01*
X6603665Y-25753793D01*
X6603669Y-25753796D01*
X6603673Y-25753797D01*
X6605924Y-25755027D01*
X6607746Y-25756849D01*
X6610769Y-25759112D01*
X6610443Y-25759546D01*
X6655331Y-25804431D01*
X6670500Y-25863861D01*
X6670500Y-26899696D01*
X6689590Y-26995667D01*
X6705105Y-27073666D01*
X6739046Y-27155606D01*
X6772987Y-27237547D01*
X6794796Y-27270186D01*
X6799281Y-27276899D01*
X6799285Y-27276906D01*
X6871532Y-27385031D01*
X6871538Y-27385039D01*
X8188181Y-28701680D01*
X8221666Y-28763003D01*
X8224500Y-28789361D01*
X8224500Y-30095001D01*
X8224501Y-30095018D01*
X8235000Y-30197796D01*
X8235001Y-30197799D01*
X8262119Y-30279634D01*
X8290186Y-30364334D01*
X8382288Y-30513656D01*
X8506344Y-30637712D01*
X8655666Y-30729814D01*
X8822203Y-30784999D01*
X8924991Y-30795500D01*
X10595008Y-30795499D01*
X10697797Y-30784999D01*
X10864334Y-30729814D01*
X11013656Y-30637712D01*
X11137712Y-30513656D01*
X11229814Y-30364334D01*
X11284999Y-30197797D01*
X11295500Y-30095009D01*
X11295500Y-30094986D01*
X14465001Y-30094986D01*
X14475494Y-30197697D01*
X14530641Y-30364119D01*
X14530643Y-30364124D01*
X14622684Y-30513345D01*
X14746654Y-30637315D01*
X14895875Y-30729356D01*
X14895880Y-30729358D01*
X15062302Y-30784505D01*
X15062309Y-30784506D01*
X15165019Y-30794999D01*
X15749999Y-30794999D01*
X16250000Y-30794999D01*
X16834972Y-30794999D01*
X16834986Y-30794998D01*
X16937697Y-30784505D01*
X17104119Y-30729358D01*
X17104124Y-30729356D01*
X17253345Y-30637315D01*
X17377315Y-30513345D01*
X17469356Y-30364124D01*
X17469358Y-30364119D01*
X17497354Y-30279634D01*
X17524505Y-30197697D01*
X17524506Y-30197690D01*
X17534999Y-30094986D01*
X17535000Y-30094973D01*
X17535000Y-29285013D01*
X19205000Y-29285013D01*
X19205000Y-29870000D01*
X20750000Y-29870000D01*
X21250000Y-29870000D01*
X22794999Y-29870000D01*
X22794999Y-29285028D01*
X22794998Y-29285013D01*
X22784505Y-29182302D01*
X22729358Y-29015880D01*
X22729356Y-29015875D01*
X22637315Y-28866654D01*
X22513345Y-28742684D01*
X22364124Y-28650643D01*
X22364119Y-28650641D01*
X22197697Y-28595494D01*
X22197690Y-28595493D01*
X22094986Y-28585000D01*
X21250000Y-28585000D01*
X21250000Y-29870000D01*
X20750000Y-29870000D01*
X20750000Y-28585000D01*
X19905028Y-28585000D01*
X19905012Y-28585001D01*
X19802302Y-28595494D01*
X19635880Y-28650641D01*
X19635875Y-28650643D01*
X19486654Y-28742684D01*
X19362684Y-28866654D01*
X19270643Y-29015875D01*
X19270641Y-29015880D01*
X19215494Y-29182302D01*
X19215493Y-29182309D01*
X19205000Y-29285013D01*
X17535000Y-29285013D01*
X17535000Y-29250000D01*
X16250000Y-29250000D01*
X16250000Y-30794999D01*
X15749999Y-30794999D01*
X15750000Y-30794998D01*
X15750000Y-29250000D01*
X14465001Y-29250000D01*
X14465001Y-30094986D01*
X11295500Y-30094986D01*
X11295499Y-28866654D01*
X11295499Y-27905013D01*
X14465000Y-27905013D01*
X14465000Y-28750000D01*
X15750000Y-28750000D01*
X16250000Y-28750000D01*
X17534999Y-28750000D01*
X17534999Y-27905028D01*
X17534998Y-27905013D01*
X17524505Y-27802302D01*
X17469358Y-27635880D01*
X17469356Y-27635875D01*
X17377315Y-27486654D01*
X17253345Y-27362684D01*
X17104124Y-27270643D01*
X17104119Y-27270641D01*
X16937697Y-27215494D01*
X16937690Y-27215493D01*
X16834986Y-27205000D01*
X16250000Y-27205000D01*
X16250000Y-28750000D01*
X15750000Y-28750000D01*
X15750000Y-27205000D01*
X15165028Y-27205000D01*
X15165012Y-27205001D01*
X15062302Y-27215494D01*
X14895880Y-27270641D01*
X14895875Y-27270643D01*
X14746654Y-27362684D01*
X14622684Y-27486654D01*
X14530643Y-27635875D01*
X14530641Y-27635880D01*
X14475494Y-27802302D01*
X14475493Y-27802309D01*
X14465000Y-27905013D01*
X11295499Y-27905013D01*
X11295499Y-27904998D01*
X11295498Y-27904981D01*
X11284999Y-27802203D01*
X11284998Y-27802200D01*
X11265228Y-27742539D01*
X11229814Y-27635666D01*
X11137712Y-27486344D01*
X11013656Y-27362288D01*
X10864334Y-27270186D01*
X10697797Y-27215001D01*
X10697795Y-27215000D01*
X10595016Y-27204500D01*
X10595009Y-27204500D01*
X9289362Y-27204500D01*
X9222323Y-27184815D01*
X9201681Y-27168181D01*
X8507819Y-26474319D01*
X8474334Y-26412996D01*
X8471500Y-26386638D01*
X8471500Y-25863861D01*
X8491185Y-25796822D01*
X8531418Y-25759362D01*
X8531231Y-25759112D01*
X8533565Y-25757364D01*
X8536076Y-25755027D01*
X8538323Y-25753798D01*
X8538331Y-25753796D01*
X8653546Y-25667546D01*
X8739796Y-25552331D01*
X8739796Y-25552329D01*
X8742045Y-25549326D01*
X8797979Y-25507455D01*
X8867671Y-25502471D01*
X8928994Y-25535956D01*
X8940578Y-25549326D01*
X9028809Y-25667187D01*
X9028812Y-25667190D01*
X9143906Y-25753350D01*
X9143913Y-25753354D01*
X9278620Y-25803596D01*
X9278627Y-25803598D01*
X9338155Y-25809999D01*
X9338172Y-25810000D01*
X9861000Y-25810000D01*
X9861000Y-20890000D01*
X10361000Y-20890000D01*
X10361000Y-25810000D01*
X10883828Y-25810000D01*
X10883844Y-25809999D01*
X10943372Y-25803598D01*
X10943379Y-25803596D01*
X11078086Y-25753354D01*
X11078093Y-25753350D01*
X11193186Y-25667191D01*
X11281420Y-25549326D01*
X11337354Y-25507455D01*
X11407045Y-25502471D01*
X11468369Y-25535956D01*
X11479953Y-25549325D01*
X11545241Y-25636538D01*
X11568187Y-25667190D01*
X11568455Y-25667547D01*
X11683664Y-25753793D01*
X11683671Y-25753797D01*
X11818517Y-25804091D01*
X11818516Y-25804091D01*
X11821679Y-25804431D01*
X11878127Y-25810500D01*
X13423872Y-25810499D01*
X13483483Y-25804091D01*
X13618331Y-25753796D01*
X13733546Y-25667546D01*
X13819796Y-25552331D01*
X13870091Y-25417483D01*
X13876500Y-25357873D01*
X13876500Y-24374500D01*
X13896185Y-24307461D01*
X13948989Y-24261706D01*
X14000500Y-24250500D01*
X19080501Y-24250500D01*
X19147540Y-24270185D01*
X19193295Y-24322989D01*
X19204501Y-24374500D01*
X19204501Y-24715018D01*
X19215000Y-24817796D01*
X19215001Y-24817799D01*
X19270185Y-24984331D01*
X19270186Y-24984334D01*
X19362288Y-25133656D01*
X19486344Y-25257712D01*
X19635666Y-25349814D01*
X19802203Y-25404999D01*
X19904991Y-25415500D01*
X21210637Y-25415499D01*
X21277676Y-25435184D01*
X21298318Y-25451818D01*
X23231532Y-27385031D01*
X25120536Y-29274035D01*
X25245965Y-29399464D01*
X25245966Y-29399465D01*
X25393446Y-29498009D01*
X25393459Y-29498016D01*
X25516363Y-29548923D01*
X25557334Y-29565894D01*
X25599935Y-29574368D01*
X25731305Y-29600500D01*
X25731308Y-29600500D01*
X25731309Y-29600500D01*
X30109500Y-29600500D01*
X30176539Y-29620185D01*
X30222294Y-29672989D01*
X30233500Y-29724500D01*
X30233500Y-30037392D01*
X30236736Y-30095008D01*
X30239630Y-30146541D01*
X30239631Y-30146554D01*
X30288403Y-30404322D01*
X30288404Y-30404327D01*
X30288405Y-30404332D01*
X30288406Y-30404333D01*
X30375059Y-30651974D01*
X30375060Y-30651977D01*
X30375061Y-30651978D01*
X30450650Y-30794999D01*
X30497654Y-30883933D01*
X30653450Y-31095031D01*
X30838969Y-31280550D01*
X31050067Y-31436346D01*
X31282026Y-31558941D01*
X31529667Y-31645594D01*
X31529671Y-31645594D01*
X31529672Y-31645595D01*
X31529677Y-31645596D01*
X31787445Y-31694368D01*
X31787447Y-31694368D01*
X31787457Y-31694370D01*
X31896608Y-31700500D01*
X31896625Y-31700500D01*
X36071375Y-31700500D01*
X36071392Y-31700500D01*
X36180543Y-31694370D01*
X36438333Y-31645594D01*
X36685974Y-31558941D01*
X36917933Y-31436346D01*
X37129031Y-31280550D01*
X37314550Y-31095031D01*
X37470346Y-30883933D01*
X37592941Y-30651974D01*
X37679594Y-30404333D01*
X37728370Y-30146543D01*
X37734500Y-30037392D01*
X37734500Y-27362608D01*
X37728370Y-27253457D01*
X37715382Y-27184815D01*
X37679596Y-26995677D01*
X37679595Y-26995672D01*
X37679594Y-26995671D01*
X37679594Y-26995667D01*
X37592941Y-26748026D01*
X37470346Y-26516067D01*
X37314550Y-26304969D01*
X37129031Y-26119450D01*
X36917933Y-25963654D01*
X36917929Y-25963652D01*
X36917928Y-25963651D01*
X36685978Y-25841061D01*
X36685977Y-25841060D01*
X36685974Y-25841059D01*
X36438333Y-25754406D01*
X36438332Y-25754405D01*
X36438327Y-25754404D01*
X36438322Y-25754403D01*
X36180554Y-25705631D01*
X36180544Y-25705630D01*
X36180543Y-25705630D01*
X36071392Y-25699500D01*
X31896608Y-25699500D01*
X31787457Y-25705630D01*
X31787456Y-25705630D01*
X31787445Y-25705631D01*
X31529677Y-25754403D01*
X31529672Y-25754404D01*
X31408449Y-25796822D01*
X31282026Y-25841059D01*
X31282024Y-25841059D01*
X31282021Y-25841061D01*
X31050071Y-25963651D01*
X30838968Y-26119450D01*
X30653450Y-26304968D01*
X30497651Y-26516071D01*
X30375061Y-26748021D01*
X30288404Y-26995672D01*
X30288403Y-26995677D01*
X30239631Y-27253445D01*
X30239630Y-27253456D01*
X30239630Y-27253457D01*
X30238691Y-27270186D01*
X30233500Y-27362610D01*
X30233500Y-27675500D01*
X30213815Y-27742539D01*
X30161011Y-27788294D01*
X30109500Y-27799500D01*
X26244361Y-27799500D01*
X26177322Y-27779815D01*
X26156680Y-27763181D01*
X22831818Y-24438319D01*
X22817114Y-24411391D01*
X22800522Y-24385573D01*
X22799630Y-24379372D01*
X22798333Y-24376996D01*
X22795499Y-24350638D01*
X22795499Y-24183208D01*
X26281342Y-24183208D01*
X26421700Y-24289646D01*
X26794204Y-24522020D01*
X27186281Y-24719549D01*
X27594721Y-24880616D01*
X28016079Y-25003864D01*
X28016085Y-25003865D01*
X28446915Y-25088290D01*
X28446927Y-25088291D01*
X28883669Y-25133189D01*
X28883667Y-25133189D01*
X28982419Y-25136000D01*
X39239581Y-25136000D01*
X39338331Y-25133189D01*
X39775072Y-25088291D01*
X39775084Y-25088290D01*
X40205914Y-25003865D01*
X40205920Y-25003864D01*
X40627278Y-24880616D01*
X40627279Y-24880616D01*
X41035717Y-24719549D01*
X41035718Y-24719549D01*
X41427795Y-24522020D01*
X41800307Y-24289641D01*
X41940656Y-24183209D01*
X41940656Y-24183208D01*
X34111000Y-16353552D01*
X26281342Y-24183208D01*
X22795499Y-24183208D01*
X22795499Y-23044998D01*
X22795498Y-23044981D01*
X22784999Y-22942203D01*
X22784998Y-22942200D01*
X22772844Y-22905523D01*
X22729814Y-22775666D01*
X22637712Y-22626344D01*
X22513656Y-22502288D01*
X22364334Y-22410186D01*
X22197797Y-22355001D01*
X22197795Y-22355000D01*
X22095010Y-22344500D01*
X19904998Y-22344500D01*
X19904981Y-22344501D01*
X19802203Y-22355000D01*
X19802200Y-22355001D01*
X19635668Y-22410185D01*
X19635659Y-22410189D01*
X19601857Y-22431039D01*
X19536761Y-22449500D01*
X14000499Y-22449500D01*
X13933460Y-22429815D01*
X13887705Y-22377011D01*
X13876499Y-22325500D01*
X13876499Y-21342129D01*
X13876498Y-21342123D01*
X13870091Y-21282516D01*
X13819797Y-21147671D01*
X13819793Y-21147664D01*
X13733547Y-21032455D01*
X13733544Y-21032452D01*
X13618335Y-20946206D01*
X13618328Y-20946202D01*
X13483482Y-20895908D01*
X13483483Y-20895908D01*
X13423883Y-20889501D01*
X13423881Y-20889500D01*
X13423873Y-20889500D01*
X13423864Y-20889500D01*
X11878129Y-20889500D01*
X11878123Y-20889501D01*
X11818516Y-20895908D01*
X11683671Y-20946202D01*
X11683664Y-20946206D01*
X11568455Y-21032452D01*
X11479953Y-21150674D01*
X11424019Y-21192544D01*
X11354327Y-21197528D01*
X11293004Y-21164042D01*
X11281420Y-21150673D01*
X11193186Y-21032809D01*
X11078093Y-20946649D01*
X11078086Y-20946645D01*
X10943379Y-20896403D01*
X10943372Y-20896401D01*
X10883844Y-20890000D01*
X10361000Y-20890000D01*
X9861000Y-20890000D01*
X9338155Y-20890000D01*
X9278627Y-20896401D01*
X9278620Y-20896403D01*
X9143913Y-20946645D01*
X9143906Y-20946649D01*
X9028812Y-21032809D01*
X8940578Y-21150674D01*
X8884644Y-21192544D01*
X8814952Y-21197528D01*
X8753630Y-21164042D01*
X8742046Y-21150674D01*
X8673578Y-21059213D01*
X8653546Y-21032454D01*
X8653544Y-21032453D01*
X8653544Y-21032452D01*
X8538335Y-20946206D01*
X8538328Y-20946202D01*
X8403482Y-20895908D01*
X8403483Y-20895908D01*
X8343883Y-20889501D01*
X8343881Y-20889500D01*
X8343873Y-20889500D01*
X8343864Y-20889500D01*
X6798129Y-20889500D01*
X6798123Y-20889501D01*
X6738516Y-20895908D01*
X6603671Y-20946202D01*
X6603664Y-20946206D01*
X6488455Y-21032452D01*
X6468421Y-21059213D01*
X6412485Y-21101082D01*
X6344968Y-21106516D01*
X6309692Y-21099500D01*
X6309691Y-21099500D01*
X5580301Y-21099500D01*
X5513262Y-21079815D01*
X5467507Y-21027011D01*
X5462595Y-21014504D01*
X5440110Y-20946649D01*
X5434814Y-20930666D01*
X5342712Y-20781344D01*
X5218656Y-20657288D01*
X5069334Y-20565186D01*
X4902797Y-20510001D01*
X4902795Y-20510000D01*
X4800010Y-20499500D01*
X3199998Y-20499500D01*
X3199981Y-20499501D01*
X3097203Y-20510000D01*
X3097200Y-20510001D01*
X2930668Y-20565185D01*
X2930663Y-20565187D01*
X2781342Y-20657289D01*
X2657289Y-20781342D01*
X2565187Y-20930663D01*
X2565185Y-20930668D01*
X2537405Y-21014504D01*
X2510001Y-21097203D01*
X2510001Y-21097204D01*
X2510000Y-21097204D01*
X2499500Y-21199983D01*
X500500Y-21199983D01*
X500500Y-8627135D01*
X4235500Y-8627135D01*
X4235500Y-17472870D01*
X4235501Y-17472876D01*
X4241908Y-17532483D01*
X4292202Y-17667328D01*
X4292206Y-17667335D01*
X4378452Y-17782544D01*
X4378455Y-17782547D01*
X4493664Y-17868793D01*
X4493671Y-17868797D01*
X4628517Y-17919091D01*
X4628516Y-17919091D01*
X4635444Y-17919835D01*
X4688127Y-17925500D01*
X15533872Y-17925499D01*
X15593483Y-17919091D01*
X15728331Y-17868796D01*
X15843546Y-17782546D01*
X15929796Y-17667331D01*
X15980091Y-17532483D01*
X15986500Y-17472873D01*
X15986499Y-8627128D01*
X15980091Y-8567517D01*
X15964000Y-8524376D01*
X15929797Y-8432671D01*
X15929793Y-8432664D01*
X15843547Y-8317455D01*
X15843544Y-8317452D01*
X15728335Y-8231206D01*
X15728328Y-8231202D01*
X15593482Y-8180908D01*
X15593483Y-8180908D01*
X15533883Y-8174501D01*
X15533881Y-8174500D01*
X15533873Y-8174500D01*
X15533864Y-8174500D01*
X4688129Y-8174500D01*
X4688123Y-8174501D01*
X4628516Y-8180908D01*
X4493671Y-8231202D01*
X4493664Y-8231206D01*
X4378455Y-8317452D01*
X4378452Y-8317455D01*
X4292206Y-8432664D01*
X4292202Y-8432671D01*
X4241908Y-8567517D01*
X4235501Y-8627116D01*
X4235501Y-8627123D01*
X4235500Y-8627135D01*
X500500Y-8627135D01*
X500500Y-5199983D01*
X10499500Y-5199983D01*
X10499500Y-6800001D01*
X10499501Y-6800018D01*
X10510000Y-6902796D01*
X10510001Y-6902799D01*
X10540930Y-6996134D01*
X10565186Y-7069334D01*
X10657288Y-7218656D01*
X10781344Y-7342712D01*
X10930666Y-7434814D01*
X11097203Y-7489999D01*
X11199991Y-7500500D01*
X12800008Y-7500499D01*
X12902797Y-7489999D01*
X13069334Y-7434814D01*
X13218656Y-7342712D01*
X13342712Y-7218656D01*
X13434814Y-7069334D01*
X13462595Y-6985495D01*
X13502368Y-6928051D01*
X13566884Y-6901228D01*
X13580301Y-6900500D01*
X14662769Y-6900500D01*
X14729808Y-6920185D01*
X14750450Y-6936818D01*
X14856344Y-7042712D01*
X15005666Y-7134814D01*
X15172203Y-7189999D01*
X15274991Y-7200500D01*
X15900008Y-7200499D01*
X15900016Y-7200498D01*
X15900019Y-7200498D01*
X15956302Y-7194748D01*
X16002797Y-7189999D01*
X16169334Y-7134814D01*
X16318656Y-7042712D01*
X16318659Y-7042708D01*
X16322903Y-7040091D01*
X16390295Y-7021651D01*
X16456959Y-7042573D01*
X16501729Y-7096215D01*
X16512000Y-7145630D01*
X16512000Y-9501196D01*
X16546603Y-9675158D01*
X16546605Y-9675166D01*
X16578237Y-9751533D01*
X16578239Y-9751537D01*
X16580546Y-9757106D01*
X16614487Y-9839047D01*
X16662771Y-9911308D01*
X16666181Y-9916411D01*
X16666184Y-9916417D01*
X16713037Y-9986538D01*
X16713040Y-9986541D01*
X18425964Y-11699464D01*
X18425966Y-11699466D01*
X18460326Y-11722423D01*
X18485040Y-11738936D01*
X18573453Y-11798013D01*
X18655393Y-11831953D01*
X18661480Y-11834474D01*
X18661485Y-11834477D01*
X18697940Y-11849577D01*
X18737334Y-11865895D01*
X18911303Y-11900499D01*
X18911307Y-11900500D01*
X18911308Y-11900500D01*
X20088693Y-11900500D01*
X20088694Y-11900499D01*
X20262666Y-11865895D01*
X20344606Y-11831953D01*
X20426547Y-11798013D01*
X20514959Y-11738936D01*
X20574036Y-11699464D01*
X20767081Y-11506419D01*
X24340000Y-11506419D01*
X24340000Y-20493580D01*
X24342810Y-20592331D01*
X24387708Y-21029072D01*
X24387709Y-21029084D01*
X24472134Y-21459914D01*
X24472135Y-21459920D01*
X24595383Y-21881278D01*
X24595383Y-21881279D01*
X24756450Y-22289717D01*
X24756450Y-22289718D01*
X24953979Y-22681795D01*
X25186357Y-23054305D01*
X25451632Y-23404123D01*
X25451637Y-23404128D01*
X25747619Y-23728370D01*
X25894759Y-23862686D01*
X25894760Y-23862686D01*
X33757447Y-15999999D01*
X34464552Y-15999999D01*
X34464552Y-16000000D01*
X42327238Y-23862686D01*
X42327240Y-23862687D01*
X42474372Y-23728378D01*
X42474378Y-23728372D01*
X42770362Y-23404128D01*
X42770367Y-23404123D01*
X43035642Y-23054305D01*
X43268020Y-22681795D01*
X43465549Y-22289718D01*
X43465549Y-22289717D01*
X43626616Y-21881279D01*
X43626616Y-21881278D01*
X43749864Y-21459920D01*
X43749865Y-21459914D01*
X43834290Y-21029084D01*
X43834291Y-21029072D01*
X43879189Y-20592331D01*
X43882000Y-20493580D01*
X43882000Y-11506419D01*
X43879189Y-11407668D01*
X43834291Y-10970927D01*
X43834290Y-10970915D01*
X43749865Y-10540085D01*
X43749864Y-10540079D01*
X43626616Y-10118721D01*
X43626616Y-10118720D01*
X43465549Y-9710282D01*
X43465549Y-9710281D01*
X43268020Y-9318204D01*
X43035642Y-8945694D01*
X42770367Y-8595876D01*
X42770362Y-8595871D01*
X42474380Y-8271629D01*
X42327239Y-8137312D01*
X42327238Y-8137312D01*
X34464552Y-15999999D01*
X33757447Y-15999999D01*
X25894760Y-8137312D01*
X25747614Y-8271635D01*
X25451637Y-8595871D01*
X25451632Y-8595876D01*
X25186357Y-8945694D01*
X24953979Y-9318204D01*
X24756450Y-9710281D01*
X24756450Y-9710282D01*
X24595383Y-10118720D01*
X24595383Y-10118721D01*
X24472135Y-10540079D01*
X24472134Y-10540085D01*
X24387709Y-10970915D01*
X24387708Y-10970927D01*
X24342810Y-11407668D01*
X24340000Y-11506419D01*
X20767081Y-11506419D01*
X21699464Y-10574035D01*
X21699853Y-10573453D01*
X21798013Y-10426547D01*
X21817895Y-10378547D01*
X21865895Y-10262666D01*
X21900500Y-10088691D01*
X21900500Y-9911308D01*
X21900500Y-9068801D01*
X21920185Y-9001762D01*
X21972989Y-8956007D01*
X21981168Y-8952619D01*
X22067826Y-8920298D01*
X22067826Y-8920297D01*
X22067831Y-8920296D01*
X22183046Y-8834046D01*
X22269296Y-8718831D01*
X22319591Y-8583983D01*
X22326000Y-8524373D01*
X22325999Y-7816790D01*
X26281342Y-7816790D01*
X34110999Y-15646448D01*
X41940657Y-7816791D01*
X41940656Y-7816790D01*
X41800299Y-7710353D01*
X41427795Y-7477979D01*
X41035718Y-7280450D01*
X40627278Y-7119383D01*
X40205920Y-6996135D01*
X40205914Y-6996134D01*
X39775084Y-6911709D01*
X39775072Y-6911708D01*
X39338330Y-6866810D01*
X39338332Y-6866810D01*
X39239581Y-6864000D01*
X28982419Y-6864000D01*
X28883668Y-6866810D01*
X28446927Y-6911708D01*
X28446915Y-6911709D01*
X28016085Y-6996134D01*
X28016079Y-6996135D01*
X27594721Y-7119383D01*
X27594720Y-7119383D01*
X27186282Y-7280450D01*
X27186281Y-7280450D01*
X26794204Y-7477979D01*
X26421700Y-7710353D01*
X26281342Y-7816790D01*
X22325999Y-7816790D01*
X22325999Y-7500500D01*
X22325999Y-6777629D01*
X22325998Y-6777623D01*
X22325997Y-6777616D01*
X22319591Y-6718017D01*
X22269296Y-6583169D01*
X22269295Y-6583168D01*
X22269293Y-6583164D01*
X22183047Y-6467955D01*
X22183044Y-6467952D01*
X22067835Y-6381706D01*
X22067828Y-6381702D01*
X21932982Y-6331408D01*
X21925438Y-6329626D01*
X21926156Y-6326584D01*
X21925032Y-6326118D01*
X21909451Y-6325004D01*
X21893421Y-6313004D01*
X21874926Y-6305332D01*
X21866023Y-6292495D01*
X21853517Y-6283133D01*
X21846519Y-6264371D01*
X21835109Y-6247918D01*
X21834559Y-6232304D01*
X21829101Y-6217668D01*
X21833356Y-6198104D01*
X21832653Y-6178092D01*
X21840833Y-6163735D01*
X21843953Y-6149395D01*
X21865098Y-6121148D01*
X21938430Y-6047816D01*
X21999752Y-6014334D01*
X22026109Y-6011500D01*
X26977693Y-6011500D01*
X26977694Y-6011499D01*
X27151666Y-5976895D01*
X27233606Y-5942953D01*
X27315547Y-5909013D01*
X27403959Y-5849936D01*
X27463036Y-5810464D01*
X29290681Y-3982819D01*
X29352004Y-3949334D01*
X29378362Y-3946500D01*
X30363500Y-3946500D01*
X30430539Y-3966185D01*
X30476294Y-4018989D01*
X30487500Y-4070500D01*
X30487500Y-4383389D01*
X30493630Y-4492541D01*
X30493631Y-4492554D01*
X30542403Y-4750322D01*
X30542404Y-4750327D01*
X30542405Y-4750332D01*
X30542406Y-4750333D01*
X30629059Y-4997974D01*
X30629060Y-4997977D01*
X30629061Y-4997978D01*
X30743950Y-5215358D01*
X30751654Y-5229933D01*
X30907450Y-5441031D01*
X31092969Y-5626550D01*
X31304067Y-5782346D01*
X31536026Y-5904941D01*
X31783667Y-5991594D01*
X31783671Y-5991594D01*
X31783672Y-5991595D01*
X31783677Y-5991596D01*
X32041445Y-6040368D01*
X32041447Y-6040368D01*
X32041457Y-6040370D01*
X32150608Y-6046500D01*
X32150625Y-6046500D01*
X36325375Y-6046500D01*
X36325392Y-6046500D01*
X36434543Y-6040370D01*
X36692333Y-5991594D01*
X36939974Y-5904941D01*
X37171933Y-5782346D01*
X37383031Y-5626550D01*
X37568550Y-5441031D01*
X37724346Y-5229933D01*
X37846941Y-4997974D01*
X37933594Y-4750333D01*
X37979067Y-4510000D01*
X37982368Y-4492554D01*
X37982368Y-4492553D01*
X37982370Y-4492543D01*
X37988500Y-4383392D01*
X37988500Y-1708608D01*
X37982370Y-1599457D01*
X37981962Y-1597302D01*
X37933596Y-1341677D01*
X37933595Y-1341672D01*
X37933594Y-1341671D01*
X37933594Y-1341667D01*
X37846941Y-1094026D01*
X37724346Y-862067D01*
X37568550Y-650969D01*
X37383031Y-465450D01*
X37171933Y-309654D01*
X37171929Y-309652D01*
X37171928Y-309651D01*
X36939978Y-187061D01*
X36939977Y-187060D01*
X36939974Y-187059D01*
X36692333Y-100406D01*
X36692332Y-100405D01*
X36692327Y-100404D01*
X36692322Y-100403D01*
X36434554Y-51631D01*
X36434544Y-51630D01*
X36434543Y-51630D01*
X36325392Y-45500D01*
X32150608Y-45500D01*
X32041457Y-51630D01*
X32041456Y-51630D01*
X32041445Y-51631D01*
X31783677Y-100403D01*
X31783672Y-100404D01*
X31659846Y-143732D01*
X31536026Y-187059D01*
X31536024Y-187059D01*
X31536021Y-187061D01*
X31304071Y-309651D01*
X31092968Y-465450D01*
X30907450Y-650968D01*
X30751651Y-862071D01*
X30629061Y-1094021D01*
X30542404Y-1341672D01*
X30542403Y-1341677D01*
X30493631Y-1599445D01*
X30493630Y-1599458D01*
X30487500Y-1708610D01*
X30487500Y-2021500D01*
X30467815Y-2088539D01*
X30415011Y-2134294D01*
X30363500Y-2145500D01*
X29314841Y-2145500D01*
X29267389Y-2136061D01*
X29262670Y-2134106D01*
X29262658Y-2134103D01*
X29088696Y-2099500D01*
X29088692Y-2099500D01*
X28911308Y-2099500D01*
X28911303Y-2099500D01*
X28737341Y-2134103D01*
X28737333Y-2134105D01*
X28573455Y-2201985D01*
X28425961Y-2300537D01*
X28425960Y-2300538D01*
X26552319Y-4174181D01*
X26490996Y-4207666D01*
X26464638Y-4210500D01*
X22026109Y-4210500D01*
X21959070Y-4190815D01*
X21938428Y-4174181D01*
X21863833Y-4099586D01*
X21863831Y-4099584D01*
X21694975Y-3976903D01*
X21694974Y-3976902D01*
X21694972Y-3976901D01*
X21644538Y-3951203D01*
X21593743Y-3903228D01*
X21576948Y-3835407D01*
X21599486Y-3769272D01*
X21644541Y-3730233D01*
X21694709Y-3704671D01*
X21744176Y-3668730D01*
X21187788Y-3112342D01*
X21220591Y-3103553D01*
X21350909Y-3028313D01*
X21457313Y-2921909D01*
X21532553Y-2791591D01*
X21541342Y-2758788D01*
X22097730Y-3315176D01*
X22133672Y-3265709D01*
X22228387Y-3079820D01*
X22292862Y-2881389D01*
X22325500Y-2675324D01*
X22325500Y-2466675D01*
X22292862Y-2260610D01*
X22228387Y-2062179D01*
X22133669Y-1876285D01*
X22097730Y-1826822D01*
X21541342Y-2383210D01*
X21532553Y-2350409D01*
X21457313Y-2220091D01*
X21350909Y-2113687D01*
X21220591Y-2038447D01*
X21187788Y-2029657D01*
X21744176Y-1473268D01*
X21744176Y-1473267D01*
X21694714Y-1437330D01*
X21508820Y-1342612D01*
X21310389Y-1278137D01*
X21104324Y-1245500D01*
X20895676Y-1245500D01*
X20689610Y-1278137D01*
X20491179Y-1342612D01*
X20305285Y-1437330D01*
X20255822Y-1473268D01*
X20255821Y-1473268D01*
X20812211Y-2029657D01*
X20779409Y-2038447D01*
X20649091Y-2113687D01*
X20542687Y-2220091D01*
X20467447Y-2350409D01*
X20458657Y-2383210D01*
X19902268Y-1826821D01*
X19902268Y-1826822D01*
X19866330Y-1876285D01*
X19771612Y-2062179D01*
X19707137Y-2260610D01*
X19674500Y-2466675D01*
X19674500Y-2675324D01*
X19707137Y-2881389D01*
X19771612Y-3079820D01*
X19866330Y-3265714D01*
X19902268Y-3315176D01*
X20458657Y-2758788D01*
X20467447Y-2791591D01*
X20542687Y-2921909D01*
X20649091Y-3028313D01*
X20779409Y-3103553D01*
X20812211Y-3112342D01*
X20255822Y-3668730D01*
X20255822Y-3668731D01*
X20305287Y-3704671D01*
X20355459Y-3730234D01*
X20406255Y-3778207D01*
X20423051Y-3846028D01*
X20400514Y-3912163D01*
X20355462Y-3951203D01*
X20305024Y-3976903D01*
X20136166Y-4099586D01*
X19988586Y-4247166D01*
X19865903Y-4416024D01*
X19771149Y-4601988D01*
X19706650Y-4800493D01*
X19686033Y-4930668D01*
X19674000Y-5006642D01*
X19674000Y-5215358D01*
X19676424Y-5230663D01*
X19706650Y-5421506D01*
X19771149Y-5620011D01*
X19853863Y-5782346D01*
X19865903Y-5805975D01*
X19988584Y-5974831D01*
X19988586Y-5974833D01*
X20134894Y-6121141D01*
X20168379Y-6182464D01*
X20163395Y-6252156D01*
X20121523Y-6308089D01*
X20073911Y-6326846D01*
X20074568Y-6329624D01*
X20067020Y-6331407D01*
X19932171Y-6381702D01*
X19932164Y-6381706D01*
X19816955Y-6467952D01*
X19816952Y-6467955D01*
X19730706Y-6583164D01*
X19730702Y-6583171D01*
X19680408Y-6718017D01*
X19674891Y-6769336D01*
X19674001Y-6777623D01*
X19674000Y-6777635D01*
X19674000Y-8524370D01*
X19674001Y-8524376D01*
X19680408Y-8583983D01*
X19730702Y-8718828D01*
X19730706Y-8718835D01*
X19816952Y-8834044D01*
X19816955Y-8834047D01*
X19932164Y-8920293D01*
X19932173Y-8920298D01*
X20018832Y-8952619D01*
X20074766Y-8994489D01*
X20099184Y-9059953D01*
X20099500Y-9068801D01*
X20099500Y-9575638D01*
X20079815Y-9642677D01*
X20063181Y-9663319D01*
X19663319Y-10063181D01*
X19636391Y-10077884D01*
X19610573Y-10094477D01*
X19604372Y-10095368D01*
X19601996Y-10096666D01*
X19575638Y-10099500D01*
X19424362Y-10099500D01*
X19357323Y-10079815D01*
X19336681Y-10063181D01*
X18349319Y-9075819D01*
X18315834Y-9014496D01*
X18313000Y-8988138D01*
X18313000Y-6880398D01*
X18331461Y-6815301D01*
X18359814Y-6769334D01*
X18414999Y-6602797D01*
X18425500Y-6500009D01*
X18425499Y-5499992D01*
X18414999Y-5397203D01*
X18359814Y-5230666D01*
X18267712Y-5081344D01*
X18143656Y-4957288D01*
X17994334Y-4865186D01*
X17827797Y-4810001D01*
X17827795Y-4810000D01*
X17725010Y-4799500D01*
X17099998Y-4799500D01*
X17099980Y-4799501D01*
X16997203Y-4810000D01*
X16997200Y-4810001D01*
X16830668Y-4865185D01*
X16830663Y-4865187D01*
X16681342Y-4957289D01*
X16587681Y-5050951D01*
X16526358Y-5084436D01*
X16456666Y-5079452D01*
X16412319Y-5050951D01*
X16318657Y-4957289D01*
X16318656Y-4957288D01*
X16169334Y-4865186D01*
X16002797Y-4810001D01*
X16002795Y-4810000D01*
X15900010Y-4799500D01*
X15274998Y-4799500D01*
X15274980Y-4799501D01*
X15172203Y-4810000D01*
X15172200Y-4810001D01*
X15005668Y-4865185D01*
X15005663Y-4865187D01*
X14856345Y-4957287D01*
X14750450Y-5063182D01*
X14689127Y-5096666D01*
X14662769Y-5099500D01*
X13580301Y-5099500D01*
X13513262Y-5079815D01*
X13467507Y-5027011D01*
X13462595Y-5014504D01*
X13457119Y-4997978D01*
X13434814Y-4930666D01*
X13342712Y-4781344D01*
X13218656Y-4657288D01*
X13069334Y-4565186D01*
X12902797Y-4510001D01*
X12902795Y-4510000D01*
X12800010Y-4499500D01*
X11199998Y-4499500D01*
X11199981Y-4499501D01*
X11097203Y-4510000D01*
X11097200Y-4510001D01*
X10930668Y-4565185D01*
X10930663Y-4565187D01*
X10781342Y-4657289D01*
X10657289Y-4781342D01*
X10565187Y-4930663D01*
X10565185Y-4930668D01*
X10556364Y-4957288D01*
X10510001Y-5097203D01*
X10510001Y-5097204D01*
X10510000Y-5097204D01*
X10499500Y-5199983D01*
X500500Y-5199983D01*
X500500Y-1700013D01*
X10500000Y-1700013D01*
X10500000Y-2250000D01*
X11653590Y-2250000D01*
X11603963Y-2335956D01*
X11575000Y-2444048D01*
X11575000Y-2555952D01*
X11603963Y-2664044D01*
X11653590Y-2750000D01*
X10500001Y-2750000D01*
X10500001Y-3299986D01*
X10510494Y-3402697D01*
X10565641Y-3569119D01*
X10565643Y-3569124D01*
X10657684Y-3718345D01*
X10781654Y-3842315D01*
X10930875Y-3934356D01*
X10930880Y-3934358D01*
X11097302Y-3989505D01*
X11097309Y-3989506D01*
X11200019Y-3999999D01*
X11749999Y-3999999D01*
X11750000Y-3999998D01*
X11750000Y-2846409D01*
X11835956Y-2896037D01*
X11944048Y-2925000D01*
X12055952Y-2925000D01*
X12164044Y-2896037D01*
X12250000Y-2846409D01*
X12250000Y-3999999D01*
X12799972Y-3999999D01*
X12799986Y-3999998D01*
X12902697Y-3989505D01*
X13069119Y-3934358D01*
X13069124Y-3934356D01*
X13218345Y-3842315D01*
X13342315Y-3718345D01*
X13434356Y-3569124D01*
X13434358Y-3569119D01*
X13489505Y-3402697D01*
X13489506Y-3402690D01*
X13499999Y-3299986D01*
X13500000Y-3299973D01*
X13500000Y-2750000D01*
X12346410Y-2750000D01*
X12396037Y-2664044D01*
X12425000Y-2555952D01*
X12425000Y-2444048D01*
X12396037Y-2335956D01*
X12346410Y-2250000D01*
X13499999Y-2250000D01*
X13499999Y-1700028D01*
X13499998Y-1700013D01*
X13489505Y-1597302D01*
X13476990Y-1559532D01*
X13434358Y-1430880D01*
X13434356Y-1430875D01*
X13342315Y-1281654D01*
X13218345Y-1157684D01*
X13069124Y-1065643D01*
X13069119Y-1065641D01*
X12902697Y-1010494D01*
X12902690Y-1010493D01*
X12799986Y-1000000D01*
X12250000Y-1000000D01*
X12250000Y-2153590D01*
X12164044Y-2103963D01*
X12055952Y-2075000D01*
X11944048Y-2075000D01*
X11835956Y-2103963D01*
X11750000Y-2153590D01*
X11750000Y-1000000D01*
X11200028Y-1000000D01*
X11200012Y-1000001D01*
X11097302Y-1010494D01*
X10930880Y-1065641D01*
X10930875Y-1065643D01*
X10781654Y-1157684D01*
X10657684Y-1281654D01*
X10565643Y-1430875D01*
X10565641Y-1430880D01*
X10510494Y-1597302D01*
X10510493Y-1597309D01*
X10500000Y-1700013D01*
X500500Y-1700013D01*
X500500Y375500D01*
X520185Y442539D01*
X572989Y488294D01*
X624500Y499500D01*
X44375500Y499500D01*
X44442539Y479815D01*
G37*
%TD.AperFunction*%
%TD*%
M02*
