%TF.GenerationSoftware,KiCad,Pcbnew,9.0.7*%
%TF.CreationDate,2026-09-14T19:01:07-05:00*%
%TF.ProjectId,Untitled,556e7469-746c-4656-942e-6b696361645f,rev?*%
%TF.SameCoordinates,Original*%
%TF.FileFunction,Copper,L1,Top*%
%TF.FilePolarity,Positive*%
%FSLAX46Y46*%
G04 Gerber Fmt 4.6, Leading zero omitted, Abs format (unit mm)*
G04 Created by KiCad (PCBNEW 9.0.7) date 2026-09-14 19:01:07*
%MOMM*%
%LPD*%
G01*
G04 APERTURE LIST*
G04 Aperture macros list*
%AMRoundRect*
0 Rectangle with rounded corners*
0 $1 Rounding radius*
0 $2 $3 $4 $5 $6 $7 $8 $9 X,Y pos of 4 corners*
0 Add a 4 corners polygon primitive as box body*
4,1,4,$2,$3,$4,$5,$6,$7,$8,$9,$2,$3,0*
0 Add four circle primitives for the rounded corners*
1,1,$1+$1,$2,$3*
1,1,$1+$1,$4,$5*
1,1,$1+$1,$6,$7*
1,1,$1+$1,$8,$9*
0 Add four rect primitives between the rounded corners*
20,1,$1+$1,$2,$3,$4,$5,0*
20,1,$1+$1,$4,$5,$6,$7,0*
20,1,$1+$1,$6,$7,$8,$9,0*
20,1,$1+$1,$8,$9,$2,$3,0*%
G04 Aperture macros list end*
%TA.AperFunction,ComponentPad*%
%ADD10C,4.500000*%
%TD*%
%TA.AperFunction,ComponentPad*%
%ADD11R,2.683000X2.683000*%
%TD*%
%TA.AperFunction,SMDPad,CuDef*%
%ADD12RoundRect,0.250000X-0.262500X-0.450000X0.262500X-0.450000X0.262500X0.450000X-0.262500X0.450000X0*%
%TD*%
%TA.AperFunction,SMDPad,CuDef*%
%ADD13R,4.241800X3.810000*%
%TD*%
%TA.AperFunction,SMDPad,CuDef*%
%ADD14R,0.915000X1.220000*%
%TD*%
%TA.AperFunction,ComponentPad*%
%ADD15C,4.400000*%
%TD*%
%TA.AperFunction,SMDPad,CuDef*%
%ADD16RoundRect,0.250001X0.872499X1.044999X-0.872499X1.044999X-0.872499X-1.044999X0.872499X-1.044999X0*%
%TD*%
%TA.AperFunction,SMDPad,CuDef*%
%ADD17R,2.200000X1.200000*%
%TD*%
%TA.AperFunction,SMDPad,CuDef*%
%ADD18R,2.200000X3.500000*%
%TD*%
%TA.AperFunction,ComponentPad*%
%ADD19O,2.500000X5.000000*%
%TD*%
%TA.AperFunction,ComponentPad*%
%ADD20O,2.250000X4.500000*%
%TD*%
%TA.AperFunction,ComponentPad*%
%ADD21O,4.500000X2.250000*%
%TD*%
%TA.AperFunction,Conductor*%
%ADD22C,0.800000*%
%TD*%
G04 APERTURE END LIST*
D10*
%TO.P,REF\u002A\u002A,1*%
%TO.N,GND*%
X2450000Y78000000D03*
%TD*%
D11*
%TO.P,,OUT-,OUT-*%
%TO.N,GND*%
X22227677Y77200000D03*
%TD*%
%TO.P,,OUT-,OUT-*%
%TO.N,GND*%
X61700000Y70050000D03*
%TD*%
D10*
%TO.P,,3*%
%TO.N,GND*%
X2500000Y51950000D03*
%TD*%
%TO.P,,4*%
%TO.N,GND*%
X61550000Y52000000D03*
%TD*%
D12*
%TO.P,R1,1*%
%TO.N,GND*%
X8087500Y76000000D03*
%TO.P,R1,2*%
%TO.N,Net-(D1-A)*%
X9912500Y76000000D03*
%TD*%
D13*
%TO.P,F1,1*%
%TO.N,VDD*%
X17000000Y59000000D03*
%TO.P,F1,2*%
%TO.N,Net-(D1-K)*%
X3000000Y59000000D03*
%TD*%
D14*
%TO.P,D1,1,K*%
%TO.N,Net-(D1-K)*%
X16637500Y76000000D03*
%TO.P,D1,2,A*%
%TO.N,Net-(D1-A)*%
X13362500Y76000000D03*
%TD*%
D10*
%TO.P,,2*%
%TO.N,GND*%
X61550000Y78000000D03*
%TD*%
D11*
%TO.P,DC-DC_ConverterPADS1,IN+,IN+*%
%TO.N,VDD*%
X22265500Y73573500D03*
%TO.P,DC-DC_ConverterPADS1,IN-,IN-*%
%TO.N,GND*%
X22265500Y56428500D03*
D15*
%TO.P,DC-DC_ConverterPADS1,MH1,MOUTING*%
%TO.N,Net-(DC-DC_ConverterPADS1-MOUTING-PadMH1)*%
X27028000Y73002000D03*
%TO.P,DC-DC_ConverterPADS1,MH2,MOUTING*%
X57000000Y57000000D03*
D11*
%TO.P,DC-DC_ConverterPADS1,OUT+,OUT+*%
%TO.N,5V*%
X61762500Y73573500D03*
%TO.P,DC-DC_ConverterPADS1,OUT-,OUT-*%
%TO.N,GND*%
X61762500Y56428500D03*
%TD*%
D16*
%TO.P,C4,1*%
%TO.N,VDD*%
X15207500Y53000000D03*
%TO.P,C4,2*%
%TO.N,GND*%
X8792500Y53000000D03*
%TD*%
D17*
%TO.P,Q1,1*%
%TO.N,Net-(D1-A)*%
X11900000Y71300000D03*
%TO.P,Q1,2*%
%TO.N,Net-(J1-Pad1)*%
X11900000Y69000000D03*
%TO.P,Q1,3*%
%TO.N,Net-(D1-K)*%
X11900000Y66700000D03*
D18*
%TO.P,Q1,4*%
%TO.N,Net-(J1-Pad1)*%
X18100000Y69000000D03*
%TD*%
D19*
%TO.P,J1,1*%
%TO.N,Net-(J1-Pad1)*%
X8000000Y69000000D03*
D20*
%TO.P,J1,2*%
%TO.N,GND*%
X2000000Y69000000D03*
D21*
%TO.P,J1,3*%
X5000000Y64300000D03*
%TD*%
D22*
%TO.N,VDD*%
X17000000Y59000000D02*
X17000000Y56000000D01*
X17000000Y62000000D02*
X18000000Y63000000D01*
X18000000Y53000000D02*
X15207500Y53000000D01*
X17000000Y56000000D02*
X18000000Y55000000D01*
X20000000Y63000000D02*
X22265500Y65265500D01*
X18000000Y55000000D02*
X18000000Y53000000D01*
X22265500Y65265500D02*
X22265500Y73573500D01*
X17000000Y59000000D02*
X17000000Y62000000D01*
X18000000Y63000000D02*
X20000000Y63000000D01*
%TO.N,Net-(D1-A)*%
X13362500Y76000000D02*
X13362500Y75362500D01*
X11900000Y73900000D02*
X11900000Y71300000D01*
X13362500Y75362500D02*
X11900000Y73900000D01*
X9912500Y76000000D02*
X13362500Y76000000D01*
%TO.N,Net-(D1-K)*%
X11900000Y66700000D02*
X13700000Y66700000D01*
X15000000Y68000000D02*
X15000000Y71121536D01*
X15000000Y71121536D02*
X16637500Y72759036D01*
X16637500Y72759036D02*
X16637500Y76000000D01*
X13700000Y66700000D02*
X15000000Y68000000D01*
X7000000Y59000000D02*
X3000000Y59000000D01*
X11900000Y63900000D02*
X7000000Y59000000D01*
X11900000Y66700000D02*
X11900000Y63900000D01*
%TO.N,Net-(J1-Pad1)*%
X11900000Y69000000D02*
X8000000Y69000000D01*
%TD*%
%TA.AperFunction,Conductor*%
%TO.N,GND*%
G36*
X64442539Y80479815D02*
G01*
X64488294Y80427011D01*
X64499500Y80375500D01*
X64499500Y49624500D01*
X64479815Y49557461D01*
X64427011Y49511706D01*
X64375500Y49500500D01*
X-375500Y49500500D01*
X-442539Y49520185D01*
X-488294Y49572989D01*
X-499500Y49624500D01*
X-499500Y51905014D01*
X7170000Y51905014D01*
X7180493Y51802310D01*
X7180494Y51802303D01*
X7235641Y51635881D01*
X7235643Y51635876D01*
X7327684Y51486655D01*
X7451655Y51362684D01*
X7600876Y51270643D01*
X7600881Y51270641D01*
X7767303Y51215494D01*
X7767310Y51215493D01*
X7870014Y51205000D01*
X8542500Y51205000D01*
X9042500Y51205000D01*
X9714985Y51205000D01*
X9817689Y51215493D01*
X9817696Y51215494D01*
X9984118Y51270641D01*
X9984123Y51270643D01*
X10133344Y51362684D01*
X10257315Y51486655D01*
X10349356Y51635876D01*
X10349358Y51635881D01*
X10404505Y51802303D01*
X10404506Y51802310D01*
X10414999Y51905014D01*
X10415000Y51905027D01*
X10415000Y52750000D01*
X9042500Y52750000D01*
X9042500Y51205000D01*
X8542500Y51205000D01*
X8542500Y52750000D01*
X7170000Y52750000D01*
X7170000Y51905014D01*
X-499500Y51905014D01*
X-499500Y54094985D01*
X7170000Y54094985D01*
X7170000Y53250000D01*
X8542500Y53250000D01*
X9042500Y53250000D01*
X10415000Y53250000D01*
X10415000Y54094976D01*
X10414999Y54094980D01*
X10414995Y54095015D01*
X13584500Y54095015D01*
X13584500Y51904984D01*
X13595000Y51802204D01*
X13595001Y51802203D01*
X13650186Y51635664D01*
X13650187Y51635662D01*
X13742286Y51486348D01*
X13742289Y51486344D01*
X13866344Y51362289D01*
X13866348Y51362286D01*
X14015662Y51270187D01*
X14015664Y51270186D01*
X14182203Y51215001D01*
X14182204Y51215000D01*
X14284984Y51204500D01*
X14284992Y51204500D01*
X16130015Y51204500D01*
X16232795Y51215000D01*
X16232797Y51215001D01*
X16316065Y51242593D01*
X16399335Y51270186D01*
X16399337Y51270187D01*
X16548651Y51362286D01*
X16548655Y51362289D01*
X16672710Y51486344D01*
X16672713Y51486348D01*
X16764812Y51635662D01*
X16764813Y51635664D01*
X16764814Y51635666D01*
X16819999Y51802203D01*
X16830500Y51904992D01*
X16830500Y51975500D01*
X16850185Y52042539D01*
X16902989Y52088294D01*
X16954500Y52099500D01*
X18088695Y52099500D01*
X18262658Y52134103D01*
X18262667Y52134106D01*
X18426540Y52201983D01*
X18426553Y52201990D01*
X18574034Y52300535D01*
X18574038Y52300538D01*
X18699461Y52425961D01*
X18699464Y52425965D01*
X18798009Y52573446D01*
X18798016Y52573459D01*
X18865893Y52737332D01*
X18865896Y52737341D01*
X18900499Y52911304D01*
X18900500Y52911306D01*
X18900500Y55088692D01*
X18899329Y55094576D01*
X18895849Y55112071D01*
X18895849Y55112076D01*
X18878615Y55198714D01*
X18865895Y55262666D01*
X18800334Y55420940D01*
X18798693Y55425527D01*
X18798014Y55426542D01*
X18798013Y55426546D01*
X18798013Y55426547D01*
X18699464Y55574035D01*
X18574035Y55699464D01*
X17936819Y56336680D01*
X17922115Y56363607D01*
X17905523Y56389426D01*
X17904631Y56395626D01*
X17903334Y56398003D01*
X17900500Y56424361D01*
X17900500Y56470500D01*
X17920185Y56537539D01*
X17972989Y56583294D01*
X18024500Y56594500D01*
X19168770Y56594500D01*
X19168776Y56594501D01*
X19228383Y56600908D01*
X19363228Y56651202D01*
X19363235Y56651206D01*
X19478444Y56737452D01*
X19478447Y56737455D01*
X19564693Y56852664D01*
X19564697Y56852671D01*
X19614991Y56987517D01*
X19621400Y57047127D01*
X19621400Y57817844D01*
X20424000Y57817844D01*
X20424000Y56678500D01*
X21544270Y56678500D01*
X21532783Y56650767D01*
X21503500Y56503550D01*
X21503500Y56353450D01*
X21532783Y56206233D01*
X21544270Y56178500D01*
X20424000Y56178500D01*
X20424000Y55039155D01*
X20430401Y54979627D01*
X20430403Y54979620D01*
X20480645Y54844913D01*
X20480649Y54844906D01*
X20566809Y54729812D01*
X20566812Y54729809D01*
X20681906Y54643649D01*
X20681913Y54643645D01*
X20816620Y54593403D01*
X20816627Y54593401D01*
X20876155Y54587000D01*
X22015500Y54587000D01*
X22015500Y55707270D01*
X22043233Y55695783D01*
X22190450Y55666500D01*
X22340550Y55666500D01*
X22487767Y55695783D01*
X22515500Y55707270D01*
X22515500Y54587000D01*
X23654844Y54587000D01*
X23714372Y54593401D01*
X23714379Y54593403D01*
X23849086Y54643645D01*
X23849093Y54643649D01*
X23964187Y54729809D01*
X23964190Y54729812D01*
X24050350Y54844906D01*
X24050354Y54844913D01*
X24100596Y54979620D01*
X24100598Y54979627D01*
X24106999Y55039155D01*
X24107000Y55039172D01*
X24107000Y56178500D01*
X22986730Y56178500D01*
X22998217Y56206233D01*
X23027500Y56353450D01*
X23027500Y56503550D01*
X22998217Y56650767D01*
X22986730Y56678500D01*
X24107000Y56678500D01*
X24107000Y57151663D01*
X54299500Y57151663D01*
X54299500Y56848336D01*
X54333457Y56546951D01*
X54333460Y56546937D01*
X54400953Y56251228D01*
X54400957Y56251216D01*
X54501133Y55964931D01*
X54632733Y55691661D01*
X54794107Y55434837D01*
X54983220Y55197696D01*
X55197696Y54983220D01*
X55434837Y54794107D01*
X55691661Y54632733D01*
X55964931Y54501133D01*
X56251216Y54400957D01*
X56251228Y54400953D01*
X56546937Y54333460D01*
X56546951Y54333457D01*
X56848336Y54299500D01*
X56848343Y54299500D01*
X57151663Y54299500D01*
X57453048Y54333457D01*
X57453060Y54333459D01*
X57453063Y54333460D01*
X57520556Y54348864D01*
X57748771Y54400953D01*
X57748783Y54400957D01*
X58035068Y54501133D01*
X58308338Y54632733D01*
X58549881Y54784505D01*
X58565164Y54794108D01*
X58742078Y54935193D01*
X58802303Y54983220D01*
X59016779Y55197696D01*
X59205892Y55434836D01*
X59367265Y55691659D01*
X59498868Y55964935D01*
X59599046Y56251228D01*
X59666540Y56546937D01*
X59670637Y56583294D01*
X59676800Y56637999D01*
X59703866Y56702414D01*
X59761460Y56741969D01*
X59831297Y56744108D01*
X59887701Y56711799D01*
X59921000Y56678500D01*
X61041270Y56678500D01*
X61029783Y56650767D01*
X61000500Y56503550D01*
X61000500Y56353450D01*
X61029783Y56206233D01*
X61041270Y56178500D01*
X59921000Y56178500D01*
X59921000Y55039155D01*
X59927401Y54979627D01*
X59927403Y54979620D01*
X59977645Y54844913D01*
X59977649Y54844906D01*
X60063809Y54729812D01*
X60063812Y54729809D01*
X60178906Y54643649D01*
X60178913Y54643645D01*
X60313620Y54593403D01*
X60313627Y54593401D01*
X60373155Y54587000D01*
X61512500Y54587000D01*
X61512500Y55707270D01*
X61540233Y55695783D01*
X61687450Y55666500D01*
X61837550Y55666500D01*
X61984767Y55695783D01*
X62012500Y55707270D01*
X62012500Y54587000D01*
X63151844Y54587000D01*
X63211372Y54593401D01*
X63211379Y54593403D01*
X63346086Y54643645D01*
X63346093Y54643649D01*
X63461187Y54729809D01*
X63461190Y54729812D01*
X63547350Y54844906D01*
X63547354Y54844913D01*
X63597596Y54979620D01*
X63597598Y54979627D01*
X63603999Y55039155D01*
X63604000Y55039172D01*
X63604000Y56178500D01*
X62483730Y56178500D01*
X62495217Y56206233D01*
X62524500Y56353450D01*
X62524500Y56503550D01*
X62495217Y56650767D01*
X62483730Y56678500D01*
X63604000Y56678500D01*
X63604000Y57817827D01*
X63603999Y57817844D01*
X63597598Y57877372D01*
X63597596Y57877379D01*
X63547354Y58012086D01*
X63547350Y58012093D01*
X63461190Y58127187D01*
X63461187Y58127190D01*
X63346093Y58213350D01*
X63346086Y58213354D01*
X63211379Y58263596D01*
X63211372Y58263598D01*
X63151844Y58269999D01*
X63151828Y58270000D01*
X62012500Y58270000D01*
X62012500Y57149729D01*
X61984767Y57161217D01*
X61837550Y57190500D01*
X61687450Y57190500D01*
X61540233Y57161217D01*
X61512500Y57149729D01*
X61512500Y58270000D01*
X60373172Y58270000D01*
X60373155Y58269999D01*
X60313627Y58263598D01*
X60313620Y58263596D01*
X60178913Y58213354D01*
X60178906Y58213350D01*
X60063812Y58127190D01*
X60063809Y58127187D01*
X59977649Y58012093D01*
X59977645Y58012086D01*
X59927403Y57877379D01*
X59927401Y57877372D01*
X59921000Y57817844D01*
X59921000Y57402693D01*
X59901315Y57335654D01*
X59848511Y57289899D01*
X59779353Y57279955D01*
X59715797Y57308980D01*
X59678023Y57367758D01*
X59673780Y57388810D01*
X59666542Y57453048D01*
X59666541Y57453051D01*
X59666540Y57453063D01*
X59599046Y57748772D01*
X59498868Y58035065D01*
X59367265Y58308341D01*
X59205892Y58565164D01*
X59016779Y58802304D01*
X58802304Y59016779D01*
X58565164Y59205892D01*
X58308341Y59367265D01*
X58035065Y59498868D01*
X57748772Y59599046D01*
X57453063Y59666540D01*
X57453051Y59666541D01*
X57453048Y59666542D01*
X57305694Y59683144D01*
X57151660Y59700499D01*
X57151659Y59700500D01*
X57151657Y59700500D01*
X56848343Y59700500D01*
X56848341Y59700500D01*
X56848338Y59700499D01*
X56747874Y59689180D01*
X56546951Y59666542D01*
X56546946Y59666541D01*
X56546937Y59666540D01*
X56251228Y59599046D01*
X56251216Y59599042D01*
X56179951Y59574105D01*
X55964935Y59498868D01*
X55691659Y59367265D01*
X55434836Y59205892D01*
X55197696Y59016779D01*
X54983221Y58802304D01*
X54794108Y58565164D01*
X54794107Y58565162D01*
X54632733Y58308338D01*
X54501133Y58035068D01*
X54400957Y57748783D01*
X54400953Y57748771D01*
X54333460Y57453062D01*
X54333457Y57453048D01*
X54299500Y57151663D01*
X24107000Y57151663D01*
X24107000Y57817827D01*
X24106999Y57817844D01*
X24100598Y57877372D01*
X24100596Y57877379D01*
X24050354Y58012086D01*
X24050350Y58012093D01*
X23964190Y58127187D01*
X23964187Y58127190D01*
X23849093Y58213350D01*
X23849086Y58213354D01*
X23714379Y58263596D01*
X23714372Y58263598D01*
X23654844Y58269999D01*
X23654828Y58270000D01*
X22515500Y58270000D01*
X22515500Y57149729D01*
X22487767Y57161217D01*
X22340550Y57190500D01*
X22190450Y57190500D01*
X22043233Y57161217D01*
X22015500Y57149729D01*
X22015500Y58270000D01*
X20876172Y58270000D01*
X20876155Y58269999D01*
X20816627Y58263598D01*
X20816620Y58263596D01*
X20681913Y58213354D01*
X20681906Y58213350D01*
X20566812Y58127190D01*
X20566809Y58127187D01*
X20480649Y58012093D01*
X20480645Y58012086D01*
X20430403Y57877379D01*
X20430401Y57877372D01*
X20424000Y57817844D01*
X19621400Y57817844D01*
X19621399Y59016779D01*
X19621399Y60952870D01*
X19621399Y60952873D01*
X19614991Y61012483D01*
X19564696Y61147331D01*
X19478446Y61262546D01*
X19363231Y61348796D01*
X19228383Y61399091D01*
X19168773Y61405500D01*
X18024499Y61405499D01*
X18015814Y61408049D01*
X18006853Y61406761D01*
X17982812Y61417739D01*
X17957461Y61425184D01*
X17951533Y61432024D01*
X17943297Y61435786D01*
X17929009Y61458018D01*
X17911706Y61477987D01*
X17909418Y61488502D01*
X17905523Y61494564D01*
X17900500Y61529499D01*
X17900500Y61575638D01*
X17920185Y61642677D01*
X17936819Y61663319D01*
X18336680Y62063181D01*
X18398003Y62096666D01*
X18424361Y62099500D01*
X20088696Y62099500D01*
X20262658Y62134103D01*
X20262666Y62134105D01*
X20338458Y62165499D01*
X20338460Y62165500D01*
X20344606Y62168046D01*
X20426547Y62201987D01*
X20517359Y62262666D01*
X20521951Y62265734D01*
X20574038Y62300537D01*
X22964962Y64691461D01*
X23014693Y64765890D01*
X23014696Y64765894D01*
X23063513Y64838953D01*
X23083395Y64886952D01*
X23131395Y65002834D01*
X23166000Y65176808D01*
X23166000Y65354192D01*
X23166000Y71607500D01*
X23185685Y71674539D01*
X23238489Y71720294D01*
X23290000Y71731500D01*
X23654869Y71731500D01*
X23654876Y71731501D01*
X23714483Y71737908D01*
X23849328Y71788202D01*
X23849335Y71788206D01*
X23964544Y71874452D01*
X23964547Y71874455D01*
X24050793Y71989664D01*
X24050797Y71989671D01*
X24101091Y72124517D01*
X24103006Y72142331D01*
X24107500Y72184127D01*
X24107499Y72594871D01*
X24127183Y72661908D01*
X24179987Y72707663D01*
X24249146Y72717607D01*
X24312702Y72688582D01*
X24350476Y72629804D01*
X24354719Y72608754D01*
X24361458Y72548948D01*
X24361460Y72548937D01*
X24428953Y72253228D01*
X24428957Y72253216D01*
X24529133Y71966931D01*
X24660733Y71693661D01*
X24822107Y71436837D01*
X25011220Y71199696D01*
X25225696Y70985220D01*
X25462837Y70796107D01*
X25719661Y70634733D01*
X25992931Y70503133D01*
X26279216Y70402957D01*
X26279228Y70402953D01*
X26574937Y70335460D01*
X26574951Y70335457D01*
X26876336Y70301500D01*
X26876343Y70301500D01*
X27179663Y70301500D01*
X27481048Y70335457D01*
X27481060Y70335459D01*
X27481063Y70335460D01*
X27548556Y70350864D01*
X27776771Y70402953D01*
X27776783Y70402957D01*
X28063068Y70503133D01*
X28336338Y70634733D01*
X28517454Y70748536D01*
X28593164Y70796108D01*
X28770078Y70937193D01*
X28830303Y70985220D01*
X29044779Y71199696D01*
X29191911Y71384194D01*
X29233892Y71436836D01*
X29235468Y71439344D01*
X59858500Y71439344D01*
X59858500Y70300000D01*
X60978770Y70300000D01*
X60967283Y70272267D01*
X60938000Y70125050D01*
X60938000Y69974950D01*
X60967283Y69827733D01*
X60978770Y69800000D01*
X59858500Y69800000D01*
X59858500Y68660655D01*
X59864901Y68601127D01*
X59864903Y68601120D01*
X59915145Y68466413D01*
X59915149Y68466406D01*
X60001309Y68351312D01*
X60001312Y68351309D01*
X60116406Y68265149D01*
X60116413Y68265145D01*
X60251120Y68214903D01*
X60251127Y68214901D01*
X60310655Y68208500D01*
X61450000Y68208500D01*
X61450000Y69328770D01*
X61477733Y69317283D01*
X61624950Y69288000D01*
X61775050Y69288000D01*
X61922267Y69317283D01*
X61950000Y69328770D01*
X61950000Y68208500D01*
X63089344Y68208500D01*
X63148872Y68214901D01*
X63148879Y68214903D01*
X63283586Y68265145D01*
X63283593Y68265149D01*
X63398687Y68351309D01*
X63398690Y68351312D01*
X63484850Y68466406D01*
X63484854Y68466413D01*
X63535096Y68601120D01*
X63535098Y68601127D01*
X63541499Y68660655D01*
X63541500Y68660672D01*
X63541500Y69800000D01*
X62421230Y69800000D01*
X62432717Y69827733D01*
X62462000Y69974950D01*
X62462000Y70125050D01*
X62432717Y70272267D01*
X62421230Y70300000D01*
X63541500Y70300000D01*
X63541500Y71439327D01*
X63541499Y71439344D01*
X63535098Y71498872D01*
X63535096Y71498879D01*
X63484854Y71633586D01*
X63484852Y71633589D01*
X63435239Y71699864D01*
X63410821Y71765328D01*
X63425672Y71833602D01*
X63455469Y71867988D01*
X63455275Y71868183D01*
X63457989Y71870897D01*
X63460194Y71873442D01*
X63461546Y71874454D01*
X63461546Y71874455D01*
X63461548Y71874456D01*
X63547793Y71989664D01*
X63547797Y71989671D01*
X63598091Y72124517D01*
X63600006Y72142331D01*
X63604500Y72184127D01*
X63604499Y74962872D01*
X63598091Y75022483D01*
X63547796Y75157331D01*
X63461546Y75272546D01*
X63346331Y75358796D01*
X63211483Y75409091D01*
X63151873Y75415500D01*
X60373128Y75415499D01*
X60324757Y75410299D01*
X60313516Y75409091D01*
X60178671Y75358797D01*
X60178664Y75358793D01*
X60063455Y75272547D01*
X60063452Y75272544D01*
X59977206Y75157335D01*
X59977202Y75157328D01*
X59926908Y75022482D01*
X59920501Y74962883D01*
X59920501Y74962876D01*
X59920500Y74962864D01*
X59920500Y72184129D01*
X59920501Y72184123D01*
X59926908Y72124516D01*
X59977202Y71989671D01*
X59977204Y71989669D01*
X60027161Y71922935D01*
X60051578Y71857471D01*
X60036726Y71789198D01*
X60007301Y71755240D01*
X60007582Y71754960D01*
X60003661Y71751039D01*
X60002201Y71749354D01*
X60001308Y71748685D01*
X59915149Y71633593D01*
X59915145Y71633586D01*
X59864903Y71498879D01*
X59864901Y71498872D01*
X59858500Y71439344D01*
X29235468Y71439344D01*
X29272872Y71498872D01*
X29278998Y71508621D01*
X29355861Y71630948D01*
X29395265Y71693659D01*
X29404009Y71711815D01*
X29457718Y71823344D01*
X29526868Y71966935D01*
X29627046Y72253228D01*
X29694540Y72548937D01*
X29699716Y72594869D01*
X29728499Y72850336D01*
X29728500Y72850340D01*
X29728500Y73153659D01*
X29728499Y73153663D01*
X29694542Y73455048D01*
X29694541Y73455051D01*
X29694540Y73455063D01*
X29627046Y73750772D01*
X29526868Y74037065D01*
X29395265Y74310341D01*
X29233892Y74567164D01*
X29044779Y74804304D01*
X28830304Y75018779D01*
X28593164Y75207892D01*
X28336341Y75369265D01*
X28063065Y75500868D01*
X27776772Y75601046D01*
X27481063Y75668540D01*
X27481051Y75668541D01*
X27481048Y75668542D01*
X27333694Y75685144D01*
X27179660Y75702499D01*
X27179659Y75702500D01*
X27179657Y75702500D01*
X26876343Y75702500D01*
X26876341Y75702500D01*
X26876338Y75702499D01*
X26775874Y75691180D01*
X26574951Y75668542D01*
X26574946Y75668541D01*
X26574937Y75668540D01*
X26279228Y75601046D01*
X26279216Y75601042D01*
X26207951Y75576105D01*
X25992935Y75500868D01*
X25719659Y75369265D01*
X25462836Y75207892D01*
X25310814Y75086658D01*
X25225696Y75018779D01*
X25011220Y74804303D01*
X24963193Y74744078D01*
X24822108Y74567164D01*
X24756029Y74462000D01*
X24660733Y74310338D01*
X24529133Y74037068D01*
X24428957Y73750783D01*
X24428953Y73750771D01*
X24361460Y73455062D01*
X24361458Y73455050D01*
X24354719Y73395243D01*
X24327652Y73330829D01*
X24270057Y73291274D01*
X24200220Y73289137D01*
X24140314Y73325096D01*
X24109358Y73387734D01*
X24107499Y73409120D01*
X24107499Y74962872D01*
X24101091Y75022483D01*
X24050796Y75157331D01*
X23964546Y75272546D01*
X23925263Y75301953D01*
X23883392Y75357885D01*
X23878408Y75427577D01*
X23911893Y75488900D01*
X23925263Y75500486D01*
X23926368Y75501313D01*
X24012527Y75616406D01*
X24012531Y75616413D01*
X24062773Y75751120D01*
X24062775Y75751127D01*
X24069176Y75810655D01*
X24069177Y75810672D01*
X24069177Y76950000D01*
X22948907Y76950000D01*
X22960394Y76977733D01*
X22989677Y77124950D01*
X22989677Y77275050D01*
X22960394Y77422267D01*
X22948907Y77450000D01*
X24069177Y77450000D01*
X24069177Y78589327D01*
X24069176Y78589344D01*
X24062775Y78648872D01*
X24062773Y78648879D01*
X24012531Y78783586D01*
X24012527Y78783593D01*
X23926367Y78898687D01*
X23926364Y78898690D01*
X23811270Y78984850D01*
X23811263Y78984854D01*
X23676556Y79035096D01*
X23676549Y79035098D01*
X23617021Y79041499D01*
X23617005Y79041500D01*
X22477677Y79041500D01*
X22477677Y77921229D01*
X22449944Y77932717D01*
X22302727Y77962000D01*
X22152627Y77962000D01*
X22005410Y77932717D01*
X21977677Y77921229D01*
X21977677Y79041500D01*
X20838349Y79041500D01*
X20838332Y79041499D01*
X20778804Y79035098D01*
X20778797Y79035096D01*
X20644090Y78984854D01*
X20644083Y78984850D01*
X20528989Y78898690D01*
X20528986Y78898687D01*
X20442826Y78783593D01*
X20442822Y78783586D01*
X20392580Y78648879D01*
X20392578Y78648872D01*
X20386177Y78589344D01*
X20386177Y77450000D01*
X21506447Y77450000D01*
X21494960Y77422267D01*
X21465677Y77275050D01*
X21465677Y77124950D01*
X21494960Y76977733D01*
X21506447Y76950000D01*
X20386177Y76950000D01*
X20386177Y75810655D01*
X20392578Y75751127D01*
X20392580Y75751120D01*
X20442822Y75616413D01*
X20442826Y75616406D01*
X20528986Y75501312D01*
X20567914Y75472171D01*
X20609784Y75416237D01*
X20614768Y75346545D01*
X20581282Y75285223D01*
X20567918Y75273642D01*
X20566454Y75272546D01*
X20566453Y75272545D01*
X20566452Y75272544D01*
X20480206Y75157335D01*
X20480202Y75157328D01*
X20429908Y75022482D01*
X20423501Y74962883D01*
X20423501Y74962876D01*
X20423500Y74962864D01*
X20423500Y72184129D01*
X20423501Y72184123D01*
X20429908Y72124516D01*
X20480202Y71989671D01*
X20480206Y71989664D01*
X20566452Y71874455D01*
X20566455Y71874452D01*
X20681664Y71788206D01*
X20681671Y71788202D01*
X20816517Y71737908D01*
X20816516Y71737908D01*
X20876116Y71731501D01*
X20876119Y71731500D01*
X20876127Y71731500D01*
X21241000Y71731500D01*
X21308039Y71711815D01*
X21353794Y71659011D01*
X21365000Y71607500D01*
X21365000Y65689862D01*
X21345315Y65622823D01*
X21328681Y65602181D01*
X19663319Y63936819D01*
X19601996Y63903334D01*
X19575638Y63900500D01*
X17911308Y63900500D01*
X17911304Y63900499D01*
X17737334Y63865895D01*
X17621452Y63817895D01*
X17573453Y63798013D01*
X17425965Y63699464D01*
X17425961Y63699461D01*
X16300540Y62574041D01*
X16300537Y62574038D01*
X16261063Y62514960D01*
X16201985Y62426544D01*
X16201984Y62426542D01*
X16168046Y62344607D01*
X16168046Y62344606D01*
X16134105Y62262666D01*
X16134103Y62262658D01*
X16108532Y62134107D01*
X16108533Y62134107D01*
X16099500Y62088691D01*
X16099500Y61529499D01*
X16079815Y61462460D01*
X16027011Y61416705D01*
X15975500Y61405499D01*
X14831228Y61405499D01*
X14782857Y61400299D01*
X14771616Y61399091D01*
X14636771Y61348797D01*
X14636764Y61348793D01*
X14521555Y61262547D01*
X14521552Y61262544D01*
X14435306Y61147335D01*
X14435302Y61147328D01*
X14385008Y61012482D01*
X14378601Y60952883D01*
X14378601Y60952876D01*
X14378600Y60952864D01*
X14378600Y57047129D01*
X14378601Y57047123D01*
X14385008Y56987516D01*
X14435302Y56852671D01*
X14435306Y56852664D01*
X14521552Y56737455D01*
X14521555Y56737452D01*
X14636764Y56651206D01*
X14636771Y56651202D01*
X14771617Y56600908D01*
X14771616Y56600908D01*
X14831216Y56594501D01*
X14831219Y56594500D01*
X14831227Y56594500D01*
X15975500Y56594500D01*
X16042539Y56574815D01*
X16088294Y56522011D01*
X16099500Y56470500D01*
X16099500Y55911303D01*
X16134103Y55737340D01*
X16134106Y55737330D01*
X16149792Y55699464D01*
X16149793Y55699461D01*
X16201983Y55573459D01*
X16201990Y55573447D01*
X16261063Y55485040D01*
X16261064Y55485039D01*
X16300537Y55425961D01*
X16300538Y55425960D01*
X17063181Y54663318D01*
X17096666Y54601995D01*
X17099500Y54575637D01*
X17099500Y54024500D01*
X17096949Y54015814D01*
X17098238Y54006853D01*
X17087259Y53982812D01*
X17079815Y53957461D01*
X17072974Y53951533D01*
X17069213Y53943297D01*
X17046978Y53929007D01*
X17027011Y53911706D01*
X17016496Y53909418D01*
X17010435Y53905523D01*
X16975500Y53900500D01*
X16954500Y53900500D01*
X16887461Y53920185D01*
X16841706Y53972989D01*
X16830500Y54024500D01*
X16830500Y54095002D01*
X16830499Y54095015D01*
X16819999Y54197795D01*
X16819999Y54197797D01*
X16764814Y54364334D01*
X16672711Y54513655D01*
X16548655Y54637711D01*
X16399334Y54729814D01*
X16232797Y54784999D01*
X16130008Y54795500D01*
X14284992Y54795500D01*
X14182203Y54784999D01*
X14015666Y54729814D01*
X14015664Y54729813D01*
X14015662Y54729812D01*
X13866348Y54637713D01*
X13866344Y54637710D01*
X13742289Y54513655D01*
X13742286Y54513651D01*
X13650187Y54364337D01*
X13650186Y54364335D01*
X13595001Y54197796D01*
X13595000Y54197795D01*
X13584500Y54095015D01*
X10414995Y54095015D01*
X10404506Y54197689D01*
X10404505Y54197696D01*
X10349358Y54364118D01*
X10349356Y54364123D01*
X10257315Y54513344D01*
X10133344Y54637315D01*
X9984123Y54729356D01*
X9984118Y54729358D01*
X9817696Y54784505D01*
X9817689Y54784506D01*
X9714985Y54794999D01*
X9714973Y54795000D01*
X9042500Y54795000D01*
X9042500Y53250000D01*
X8542500Y53250000D01*
X8542500Y54795000D01*
X7870027Y54795000D01*
X7870014Y54794999D01*
X7767310Y54784506D01*
X7767303Y54784505D01*
X7600881Y54729358D01*
X7600876Y54729356D01*
X7451655Y54637315D01*
X7327684Y54513344D01*
X7235643Y54364123D01*
X7235641Y54364118D01*
X7180494Y54197696D01*
X7180493Y54197689D01*
X7170000Y54094985D01*
X-499500Y54094985D01*
X-499500Y60952864D01*
X378600Y60952864D01*
X378600Y57047129D01*
X378601Y57047123D01*
X385008Y56987516D01*
X435302Y56852671D01*
X435306Y56852664D01*
X521552Y56737455D01*
X521555Y56737452D01*
X636764Y56651206D01*
X636771Y56651202D01*
X771617Y56600908D01*
X771616Y56600908D01*
X831216Y56594501D01*
X831219Y56594500D01*
X831227Y56594500D01*
X831234Y56594500D01*
X831235Y56594500D01*
X5168770Y56594500D01*
X5168776Y56594501D01*
X5228383Y56600908D01*
X5363228Y56651202D01*
X5363235Y56651206D01*
X5478444Y56737452D01*
X5478447Y56737455D01*
X5564693Y56852664D01*
X5564697Y56852671D01*
X5614991Y56987517D01*
X5621400Y57047127D01*
X5621400Y57975500D01*
X5641085Y58042539D01*
X5693889Y58088294D01*
X5745400Y58099500D01*
X7088696Y58099500D01*
X7262658Y58134103D01*
X7262666Y58134105D01*
X7341875Y58166915D01*
X7348065Y58169479D01*
X7426547Y58201987D01*
X7514959Y58261063D01*
X7519515Y58264107D01*
X7519520Y58264110D01*
X7574030Y58300531D01*
X7574035Y58300535D01*
X12599463Y63325964D01*
X12599465Y63325966D01*
X12698009Y63473446D01*
X12698016Y63473459D01*
X12765893Y63637332D01*
X12765896Y63637341D01*
X12800499Y63811304D01*
X12800500Y63811306D01*
X12800500Y65475500D01*
X12820185Y65542539D01*
X12872989Y65588294D01*
X12924499Y65599500D01*
X13047869Y65599500D01*
X13047876Y65599501D01*
X13107483Y65605908D01*
X13242328Y65656202D01*
X13242335Y65656206D01*
X13357542Y65742451D01*
X13357543Y65742452D01*
X13357546Y65742454D01*
X13363052Y65749809D01*
X13418985Y65791681D01*
X13462320Y65799500D01*
X13788696Y65799500D01*
X13962658Y65834103D01*
X13962666Y65834105D01*
X14044606Y65868046D01*
X14044607Y65868046D01*
X14126542Y65901984D01*
X14126544Y65901985D01*
X14220797Y65964963D01*
X14274038Y66000537D01*
X14274041Y66000540D01*
X15699461Y67425961D01*
X15699467Y67425969D01*
X15744214Y67492937D01*
X15744216Y67492942D01*
X15747605Y67498013D01*
X15798013Y67573453D01*
X15832845Y67657546D01*
X15865895Y67737334D01*
X15900500Y67911309D01*
X15900500Y68088692D01*
X15900500Y70697174D01*
X15909144Y70726614D01*
X15915668Y70756601D01*
X15919422Y70761616D01*
X15920185Y70764213D01*
X15936819Y70784855D01*
X15949828Y70797864D01*
X16499500Y70797864D01*
X16499500Y67202129D01*
X16499501Y67202123D01*
X16505908Y67142516D01*
X16556202Y67007671D01*
X16556206Y67007664D01*
X16642452Y66892455D01*
X16642455Y66892452D01*
X16757664Y66806206D01*
X16757671Y66806202D01*
X16892517Y66755908D01*
X16892516Y66755908D01*
X16952116Y66749501D01*
X16952119Y66749500D01*
X16952127Y66749500D01*
X16952134Y66749500D01*
X16952135Y66749500D01*
X19247870Y66749500D01*
X19247876Y66749501D01*
X19307483Y66755908D01*
X19442328Y66806202D01*
X19442335Y66806206D01*
X19557544Y66892452D01*
X19557547Y66892455D01*
X19643793Y67007664D01*
X19643797Y67007671D01*
X19694091Y67142517D01*
X19698778Y67186113D01*
X19700500Y67202127D01*
X19700499Y70797872D01*
X19694091Y70857483D01*
X19643796Y70992331D01*
X19557546Y71107546D01*
X19442331Y71193796D01*
X19307483Y71244091D01*
X19247873Y71250500D01*
X16952128Y71250499D01*
X16903757Y71245299D01*
X16892516Y71244091D01*
X16757671Y71193797D01*
X16757664Y71193793D01*
X16642455Y71107547D01*
X16642452Y71107544D01*
X16556206Y70992335D01*
X16556202Y70992328D01*
X16505908Y70857482D01*
X16501019Y70812000D01*
X16499501Y70797876D01*
X16499500Y70797864D01*
X15949828Y70797864D01*
X17336964Y72185000D01*
X17416578Y72304152D01*
X17421154Y72311000D01*
X17435513Y72332489D01*
X17461029Y72394091D01*
X17503395Y72496370D01*
X17538000Y72670345D01*
X17538000Y72847728D01*
X17538000Y75123162D01*
X17545818Y75166495D01*
X17589091Y75282517D01*
X17589382Y75285223D01*
X17595500Y75342127D01*
X17595499Y76657872D01*
X17589091Y76717483D01*
X17538796Y76852331D01*
X17452546Y76967546D01*
X17337331Y77053796D01*
X17202483Y77104091D01*
X17142873Y77110500D01*
X16132128Y77110499D01*
X16083757Y77105299D01*
X16072516Y77104091D01*
X15937671Y77053797D01*
X15937664Y77053793D01*
X15822455Y76967547D01*
X15822452Y76967544D01*
X15736206Y76852335D01*
X15736202Y76852328D01*
X15685908Y76717482D01*
X15679501Y76657883D01*
X15679501Y76657876D01*
X15679500Y76657864D01*
X15679500Y75342129D01*
X15679501Y75342123D01*
X15685908Y75282516D01*
X15729182Y75166495D01*
X15737000Y75123162D01*
X15737000Y73183397D01*
X15717315Y73116358D01*
X15700681Y73095716D01*
X14300538Y71695575D01*
X14299262Y71693665D01*
X14299258Y71693659D01*
X14201990Y71548089D01*
X14201983Y71548076D01*
X14168046Y71466143D01*
X14168046Y71466142D01*
X14134106Y71384204D01*
X14134103Y71384194D01*
X14106235Y71244091D01*
X14106235Y71244090D01*
X14099500Y71210231D01*
X14099500Y68424361D01*
X14079815Y68357322D01*
X14063181Y68336680D01*
X13448678Y67722177D01*
X13387355Y67688692D01*
X13317663Y67693676D01*
X13286687Y67710590D01*
X13242331Y67743796D01*
X13235230Y67749112D01*
X13236930Y67751383D01*
X13197743Y67790565D01*
X13182886Y67858837D01*
X13207298Y67924303D01*
X13236311Y67949443D01*
X13235231Y67950888D01*
X13357544Y68042452D01*
X13357547Y68042455D01*
X13443793Y68157664D01*
X13443797Y68157671D01*
X13494091Y68292517D01*
X13498839Y68336680D01*
X13500500Y68352127D01*
X13500499Y69647872D01*
X13494091Y69707483D01*
X13443796Y69842331D01*
X13357546Y69957546D01*
X13315136Y69989293D01*
X13235231Y70049112D01*
X13236930Y70051382D01*
X13197743Y70090565D01*
X13182886Y70158837D01*
X13207298Y70224303D01*
X13236311Y70249443D01*
X13235231Y70250888D01*
X13357544Y70342452D01*
X13357547Y70342455D01*
X13443793Y70457664D01*
X13443797Y70457671D01*
X13494091Y70592517D01*
X13500500Y70652127D01*
X13500499Y71947872D01*
X13494091Y72007483D01*
X13443796Y72142331D01*
X13357546Y72257546D01*
X13242331Y72343796D01*
X13107483Y72394091D01*
X13047873Y72400500D01*
X12924499Y72400499D01*
X12857461Y72420183D01*
X12811706Y72472987D01*
X12800500Y72524499D01*
X12800500Y73475638D01*
X12820185Y73542677D01*
X12836819Y73563319D01*
X14061960Y74788461D01*
X14061963Y74788464D01*
X14069338Y74799501D01*
X14160513Y74935953D01*
X14222940Y75086666D01*
X14238229Y75113515D01*
X14263796Y75147669D01*
X14314091Y75282517D01*
X14320500Y75342127D01*
X14320499Y76657872D01*
X14314091Y76717483D01*
X14263796Y76852331D01*
X14177546Y76967546D01*
X14062331Y77053796D01*
X13927483Y77104091D01*
X13867873Y77110500D01*
X12857128Y77110499D01*
X12808757Y77105299D01*
X12797516Y77104091D01*
X12662671Y77053797D01*
X12662664Y77053793D01*
X12647332Y77042315D01*
X12547456Y76967547D01*
X12547453Y76967545D01*
X12544334Y76963379D01*
X12534460Y76950188D01*
X12478528Y76908319D01*
X12435194Y76900500D01*
X10837231Y76900500D01*
X10770192Y76920185D01*
X10749550Y76936818D01*
X10736178Y76950190D01*
X10643656Y77042712D01*
X10494334Y77134814D01*
X10327797Y77189999D01*
X10225009Y77200500D01*
X9599992Y77200499D01*
X9599984Y77200498D01*
X9599980Y77200498D01*
X9497203Y77189999D01*
X9330666Y77134814D01*
X9181344Y77042712D01*
X9181342Y77042710D01*
X9087327Y76948695D01*
X9026004Y76915210D01*
X8956312Y76920194D01*
X8911964Y76948695D01*
X8818342Y77042317D01*
X8669124Y77134356D01*
X8669119Y77134358D01*
X8502697Y77189505D01*
X8502690Y77189506D01*
X8399980Y77199999D01*
X8337500Y77199998D01*
X8337500Y74799999D01*
X8399971Y74800000D01*
X8399988Y74800001D01*
X8502697Y74810494D01*
X8669119Y74865641D01*
X8669124Y74865643D01*
X8818345Y74957684D01*
X8911965Y75051304D01*
X8973288Y75084789D01*
X9042980Y75079805D01*
X9087327Y75051305D01*
X9181345Y74957287D01*
X9330663Y74865187D01*
X9330668Y74865185D01*
X9414670Y74837349D01*
X9497203Y74810001D01*
X9497204Y74810000D01*
X9599989Y74799500D01*
X9599991Y74799500D01*
X10225001Y74799500D01*
X10225019Y74799501D01*
X10327796Y74810000D01*
X10327799Y74810001D01*
X10494331Y74865185D01*
X10494334Y74865186D01*
X10643656Y74957288D01*
X10749550Y75063182D01*
X10810873Y75096666D01*
X10837231Y75099500D01*
X11526638Y75099500D01*
X11593677Y75079815D01*
X11639432Y75027011D01*
X11649376Y74957853D01*
X11620351Y74894297D01*
X11614319Y74887819D01*
X11200536Y74474036D01*
X11200535Y74474034D01*
X11192494Y74462000D01*
X11101990Y74326553D01*
X11101983Y74326540D01*
X11070760Y74251161D01*
X11070757Y74251151D01*
X11068046Y74244606D01*
X11034105Y74162666D01*
X11009122Y74037065D01*
X11008129Y74032073D01*
X11008127Y74032066D01*
X10999500Y73988692D01*
X10999500Y72524499D01*
X10979815Y72457460D01*
X10927011Y72411705D01*
X10875500Y72400499D01*
X10752128Y72400499D01*
X10703757Y72395299D01*
X10692516Y72394091D01*
X10557671Y72343797D01*
X10557664Y72343793D01*
X10442455Y72257547D01*
X10442452Y72257544D01*
X10356206Y72142335D01*
X10356202Y72142328D01*
X10305908Y72007482D01*
X10301549Y71966935D01*
X10299501Y71947876D01*
X10299500Y71947864D01*
X10299500Y70652129D01*
X10299501Y70652123D01*
X10305908Y70592516D01*
X10356202Y70457671D01*
X10356206Y70457664D01*
X10442452Y70342455D01*
X10442455Y70342452D01*
X10564769Y70250888D01*
X10563070Y70248618D01*
X10602264Y70209420D01*
X10617111Y70141146D01*
X10592690Y70075683D01*
X10571231Y70053446D01*
X10560622Y70044897D01*
X10557669Y70043796D01*
X10442454Y69957546D01*
X10427611Y69937718D01*
X10415483Y69927946D01*
X10397015Y69920297D01*
X10381015Y69908319D01*
X10358120Y69904188D01*
X10350930Y69901210D01*
X10346272Y69902050D01*
X10337680Y69900500D01*
X9874500Y69900500D01*
X9807461Y69920185D01*
X9761706Y69972989D01*
X9750500Y70024500D01*
X9750500Y70364727D01*
X9750499Y70364741D01*
X9745468Y70402954D01*
X9720548Y70592238D01*
X9661158Y70813887D01*
X9573344Y71025888D01*
X9458611Y71224612D01*
X9318919Y71406661D01*
X9318914Y71406665D01*
X9318911Y71406670D01*
X9156670Y71568911D01*
X9156665Y71568914D01*
X9156661Y71568919D01*
X8974612Y71708611D01*
X8775888Y71823344D01*
X8563887Y71911158D01*
X8342238Y71970548D01*
X8114734Y72000500D01*
X7885266Y72000500D01*
X7657762Y71970548D01*
X7436113Y71911158D01*
X7345066Y71873445D01*
X7224123Y71823349D01*
X7224117Y71823346D01*
X7224112Y71823344D01*
X7025388Y71708611D01*
X7025385Y71708608D01*
X7025382Y71708607D01*
X6843338Y71568918D01*
X6843330Y71568911D01*
X6681089Y71406670D01*
X6681081Y71406661D01*
X6541392Y71224617D01*
X6541389Y71224612D01*
X6523596Y71193793D01*
X6426657Y71025890D01*
X6426650Y71025876D01*
X6338842Y70813887D01*
X6279452Y70592238D01*
X6279451Y70592229D01*
X6249500Y70364741D01*
X6249500Y67635258D01*
X6268238Y67492937D01*
X6279452Y67407762D01*
X6304554Y67314076D01*
X6338842Y67186112D01*
X6426650Y66974123D01*
X6426657Y66974109D01*
X6541392Y66775382D01*
X6681081Y66593338D01*
X6843338Y66431081D01*
X7025382Y66291392D01*
X7224109Y66176657D01*
X7224123Y66176650D01*
X7436112Y66088842D01*
X7564076Y66054554D01*
X7657762Y66029452D01*
X7657770Y66029451D01*
X7885258Y65999500D01*
X7885266Y65999500D01*
X8114741Y65999500D01*
X8304215Y66024446D01*
X8342238Y66029452D01*
X8563887Y66088842D01*
X8775876Y66176650D01*
X8775890Y66176657D01*
X8974617Y66291392D01*
X9156661Y66431081D01*
X9156670Y66431089D01*
X9318911Y66593330D01*
X9318918Y66593338D01*
X9458607Y66775382D01*
X9458608Y66775385D01*
X9458611Y66775388D01*
X9573344Y66974112D01*
X9661158Y67186113D01*
X9720548Y67407762D01*
X9750500Y67635266D01*
X9750500Y67975500D01*
X9770185Y68042539D01*
X9822989Y68088294D01*
X9874500Y68099500D01*
X10337680Y68099500D01*
X10404719Y68079815D01*
X10415483Y68072054D01*
X10427611Y68062281D01*
X10442454Y68042454D01*
X10557669Y67956204D01*
X10560622Y67955102D01*
X10571231Y67946554D01*
X10585087Y67926598D01*
X10602264Y67909420D01*
X10604657Y67898415D01*
X10611081Y67889164D01*
X10611948Y67864883D01*
X10617111Y67841146D01*
X10613174Y67830594D01*
X10613577Y67819339D01*
X10601181Y67798445D01*
X10592690Y67775683D01*
X10582374Y67766744D01*
X10577927Y67759248D01*
X10567970Y67754263D01*
X10563689Y67750554D01*
X10564769Y67749112D01*
X10442455Y67657547D01*
X10442453Y67657545D01*
X10356206Y67542335D01*
X10356202Y67542328D01*
X10305908Y67407482D01*
X10299501Y67347883D01*
X10299500Y67347864D01*
X10299500Y66052129D01*
X10299501Y66052123D01*
X10305908Y65992516D01*
X10356202Y65857671D01*
X10356206Y65857664D01*
X10442452Y65742455D01*
X10442455Y65742452D01*
X10557664Y65656206D01*
X10557671Y65656202D01*
X10692517Y65605908D01*
X10692516Y65605908D01*
X10752116Y65599501D01*
X10752119Y65599500D01*
X10752127Y65599500D01*
X10875500Y65599500D01*
X10942539Y65579815D01*
X10988294Y65527011D01*
X10999500Y65475500D01*
X10999500Y64324361D01*
X10979815Y64257322D01*
X10963181Y64236680D01*
X6663319Y59936819D01*
X6601996Y59903334D01*
X6575638Y59900500D01*
X5745399Y59900500D01*
X5678360Y59920185D01*
X5632605Y59972989D01*
X5621399Y60024500D01*
X5621399Y60952870D01*
X5621399Y60952873D01*
X5614991Y61012483D01*
X5564696Y61147331D01*
X5478446Y61262546D01*
X5363231Y61348796D01*
X5228383Y61399091D01*
X5168773Y61405500D01*
X831228Y61405499D01*
X782857Y61400299D01*
X771616Y61399091D01*
X636771Y61348797D01*
X636764Y61348793D01*
X521555Y61262547D01*
X521552Y61262544D01*
X435306Y61147335D01*
X435302Y61147328D01*
X385008Y61012482D01*
X378601Y60952883D01*
X378601Y60952876D01*
X378600Y60952864D01*
X-499500Y60952864D01*
X-499500Y64550000D01*
X2269340Y64550000D01*
X3566988Y64550000D01*
X3534075Y64492993D01*
X3500000Y64365826D01*
X3500000Y64234174D01*
X3534075Y64107007D01*
X3566988Y64050000D01*
X2269340Y64050000D01*
X2290013Y63919476D01*
X2369051Y63676218D01*
X2369052Y63676215D01*
X2485175Y63448313D01*
X2635521Y63241380D01*
X2816380Y63060521D01*
X3023313Y62910175D01*
X3251215Y62794052D01*
X3251218Y62794051D01*
X3494476Y62715013D01*
X3747111Y62675000D01*
X4750000Y62675000D01*
X4750000Y63800000D01*
X5250000Y63800000D01*
X5250000Y62675000D01*
X6252889Y62675000D01*
X6505523Y62715013D01*
X6748781Y62794051D01*
X6748784Y62794052D01*
X6976686Y62910175D01*
X7183619Y63060521D01*
X7364478Y63241380D01*
X7514824Y63448313D01*
X7630947Y63676215D01*
X7630948Y63676218D01*
X7709986Y63919476D01*
X7730660Y64050000D01*
X6433012Y64050000D01*
X6465925Y64107007D01*
X6500000Y64234174D01*
X6500000Y64365826D01*
X6465925Y64492993D01*
X6433012Y64550000D01*
X7730660Y64550000D01*
X7709986Y64680523D01*
X7630948Y64923781D01*
X7630947Y64923784D01*
X7514824Y65151686D01*
X7364478Y65358619D01*
X7183619Y65539478D01*
X6976686Y65689824D01*
X6748784Y65805947D01*
X6748781Y65805948D01*
X6505523Y65884986D01*
X6252889Y65925000D01*
X5250000Y65925000D01*
X5250000Y64800000D01*
X4750000Y64800000D01*
X4750000Y65925000D01*
X3747111Y65925000D01*
X3494476Y65884986D01*
X3251218Y65805948D01*
X3251215Y65805947D01*
X3023313Y65689824D01*
X2816380Y65539478D01*
X2635521Y65358619D01*
X2485175Y65151686D01*
X2369052Y64923784D01*
X2369051Y64923781D01*
X2290013Y64680523D01*
X2269340Y64550000D01*
X-499500Y64550000D01*
X-499500Y70252889D01*
X375000Y70252889D01*
X375000Y69250000D01*
X1500000Y69250000D01*
X1500000Y68750000D01*
X375000Y68750000D01*
X375000Y67747110D01*
X415013Y67494476D01*
X494051Y67251218D01*
X494052Y67251215D01*
X610175Y67023313D01*
X760521Y66816380D01*
X941380Y66635521D01*
X1148313Y66485175D01*
X1376215Y66369052D01*
X1376218Y66369051D01*
X1619476Y66290013D01*
X1750000Y66269339D01*
X1750000Y67566988D01*
X1807007Y67534075D01*
X1934174Y67500000D01*
X2065826Y67500000D01*
X2192993Y67534075D01*
X2250000Y67566988D01*
X2250000Y66269339D01*
X2380523Y66290013D01*
X2623781Y66369051D01*
X2623784Y66369052D01*
X2851686Y66485175D01*
X3058619Y66635521D01*
X3239478Y66816380D01*
X3389824Y67023313D01*
X3505947Y67251215D01*
X3505948Y67251218D01*
X3584986Y67494476D01*
X3625000Y67747110D01*
X3625000Y68750000D01*
X2500000Y68750000D01*
X2500000Y69250000D01*
X3625000Y69250000D01*
X3625000Y70252889D01*
X3584986Y70505523D01*
X3505948Y70748781D01*
X3505947Y70748784D01*
X3389824Y70976686D01*
X3239478Y71183619D01*
X3058619Y71364478D01*
X2851686Y71514824D01*
X2623784Y71630947D01*
X2623781Y71630948D01*
X2380524Y71709986D01*
X2250000Y71730658D01*
X2250000Y70433012D01*
X2192993Y70465925D01*
X2065826Y70500000D01*
X1934174Y70500000D01*
X1807007Y70465925D01*
X1750000Y70433012D01*
X1750000Y71730659D01*
X1619477Y71709986D01*
X1619474Y71709986D01*
X1376218Y71630948D01*
X1376215Y71630947D01*
X1148313Y71514824D01*
X941380Y71364478D01*
X760521Y71183619D01*
X610175Y70976686D01*
X494052Y70748784D01*
X494051Y70748781D01*
X415013Y70505523D01*
X375000Y70252889D01*
X-499500Y70252889D01*
X-499500Y75500013D01*
X7075001Y75500013D01*
X7085494Y75397302D01*
X7140641Y75230880D01*
X7140643Y75230875D01*
X7232684Y75081654D01*
X7356654Y74957684D01*
X7505875Y74865643D01*
X7505880Y74865641D01*
X7672302Y74810494D01*
X7672309Y74810493D01*
X7775013Y74800000D01*
X7837500Y74800000D01*
X7837500Y75750000D01*
X7075001Y75750000D01*
X7075001Y75500013D01*
X-499500Y75500013D01*
X-499500Y76499986D01*
X7075000Y76499986D01*
X7075000Y76250000D01*
X7837500Y76250000D01*
X7837500Y77199999D01*
X7775028Y77199999D01*
X7775013Y77199998D01*
X7672302Y77189505D01*
X7505880Y77134358D01*
X7505875Y77134356D01*
X7356654Y77042315D01*
X7232684Y76918345D01*
X7140643Y76769124D01*
X7140641Y76769119D01*
X7085494Y76602697D01*
X7085493Y76602690D01*
X7075000Y76499986D01*
X-499500Y76499986D01*
X-499500Y80375500D01*
X-479815Y80442539D01*
X-427011Y80488294D01*
X-375500Y80499500D01*
X64375500Y80499500D01*
X64442539Y80479815D01*
G37*
%TD.AperFunction*%
%TD*%
M02*
