  0
SECTION
  2
HEADER
  9
$ACADVER
  1
AC1024
  9
$ACADMAINTVER
 70
6
  9
$DWGCODEPAGE
  3
ANSI_1252
  9
$LASTSAVEDBY
  1
ezdxf
  9
$INSBASE
 10
0.0
 20
0.0
 30
0.0
  9
$EXTMIN
 10
1e+20
 20
1e+20
 30
1e+20
  9
$EXTMAX
 10
-1e+20
 20
-1e+20
 30
-1e+20
  9
$LIMMIN
 10
0.0
 20
0.0
  9
$LIMMAX
 10
420.0
 20
297.0
  9
$ORTHOMODE
 70
0
  9
$REGENMODE
 70
1
  9
$FILLMODE
 70
1
  9
$QTEXTMODE
 70
0
  9
$MIRRTEXT
 70
1
  9
$LTSCALE
 40
1.0
  9
$ATTMODE
 70
1
  9
$TEXTSIZE
 40
2.5
  9
$TRACEWID
 40
1.0
  9
$TEXTSTYLE
  7
Standard
  9
$CLAYER
  8
0
  9
$CELTYPE
  6
ByLayer
  9
$CECOLOR
 62
256
  9
$CELTSCALE
 40
1.0
  9
$DISPSILH
 70
0
  9
$DIMSCALE
 40
1.0
  9
$DIMASZ
 40
2.5
  9
$DIMEXO
 40
0.625
  9
$DIMDLI
 40
3.75
  9
$DIMRND
 40
0.0
  9
$DIMDLE
 40
0.0
  9
$DIMEXE
 40
1.25
  9
$DIMTP
 40
0.0
  9
$DIMTM
 40
0.0
  9
$DIMTXT
 40
2.5
  9
$DIMCEN
 40
2.5
  9
$DIMTSZ
 40
0.0
  9
$DIMTOL
 70
0
  9
$DIMLIM
 70
0
  9
$DIMTIH
 70
0
  9
$DIMTOH
 70
0
  9
$DIMSE1
 70
0
  9
$DIMSE2
 70
0
  9
$DIMTAD
 70
1
  9
$DIMZIN
 70
8
  9
$DIMBLK
  1

  9
$DIMASO
 70
1
  9
$DIMSHO
 70
1
  9
$DIMPOST
  1

  9
$DIMAPOST
  1

  9
$DIMALT
 70
0
  9
$DIMALTD
 70
3
  9
$DIMALTF
 40
0.03937007874
  9
$DIMLFAC
 40
1.0
  9
$DIMTOFL
 70
1
  9
$DIMTVP
 40
0.0
  9
$DIMTIX
 70
0
  9
$DIMSOXD
 70
0
  9
$DIMSAH
 70
0
  9
$DIMBLK1
  1

  9
$DIMBLK2
  1

  9
$DIMSTYLE
  2
ISO-25
  9
$DIMCLRD
 70
0
  9
$DIMCLRE
 70
0
  9
$DIMCLRT
 70
0
  9
$DIMTFAC
 40
1.0
  9
$DIMGAP
 40
0.625
  9
$DIMJUST
 70
0
  9
$DIMSD1
 70
0
  9
$DIMSD2
 70
0
  9
$DIMTOLJ
 70
0
  9
$DIMTZIN
 70
8
  9
$DIMALTZ
 70
0
  9
$DIMALTTZ
 70
0
  9
$DIMUPT
 70
0
  9
$DIMDEC
 70
2
  9
$DIMTDEC
 70
2
  9
$DIMALTU
 70
2
  9
$DIMALTTD
 70
3
  9
$DIMTXSTY
  7
Standard
  9
$DIMAUNIT
 70
0
  9
$DIMADEC
 70
0
  9
$DIMALTRND
 40
0.0
  9
$DIMAZIN
 70
0
  9
$DIMDSEP
 70
44
  9
$DIMATFIT
 70
3
  9
$DIMFRAC
 70
0
  9
$DIMLDRBLK
  1

  9
$DIMLUNIT
 70
2
  9
$DIMLWD
 70
-2
  9
$DIMLWE
 70
-2
  9
$DIMTMOVE
 70
0
  9
$DIMFXL
 40
1.0
  9
$DIMFXLON
 70
0
  9
$DIMJOGANG
 40
0.785398163397
  9
$DIMTFILL
 70
0
  9
$DIMTFILLCLR
 70
0
  9
$DIMARCSYM
 70
0
  9
$DIMLTYPE
  6

  9
$DIMLTEX1
  6

  9
$DIMLTEX2
  6

  9
$DIMTXTDIRECTION
 70
0
  9
$LUNITS
 70
2
  9
$LUPREC
 70
4
  9
$SKETCHINC
 40
1.0
  9
$FILLETRAD
 40
10.0
  9
$AUNITS
 70
0
  9
$AUPREC
 70
2
  9
$MENU
  1
.
  9
$ELEVATION
 40
0.0
  9
$PELEVATION
 40
0.0
  9
$THICKNESS
 40
0.0
  9
$LIMCHECK
 70
0
  9
$CHAMFERA
 40
0.0
  9
$CHAMFERB
 40
0.0
  9
$CHAMFERC
 40
0.0
  9
$CHAMFERD
 40
0.0
  9
$SKPOLY
 70
0
  9
$TDCREATE
 40
2461295.4768518517
  9
$TDUCREATE
 40
2458532.153996898
  9
$TDUPDATE
 40
2461295.4768518517
  9
$TDUUPDATE
 40
2458532.1544311
  9
$TDINDWG
 40
0.0
  9
$TDUSRTIMER
 40
0.0
  9
$USRTIMER
 70
1
  9
$ANGBASE
 50
0.0
  9
$ANGDIR
 70
0
  9
$PDMODE
 70
0
  9
$PDSIZE
 40
0.0
  9
$PLINEWID
 40
0.0
  9
$SPLFRAME
 70
0
  9
$SPLINETYPE
 70
6
  9
$SPLINESEGS
 70
8
  9
$HANDSEED
  5
3C
  9
$SURFTAB1
 70
6
  9
$SURFTAB2
 70
6
  9
$SURFTYPE
 70
6
  9
$SURFU
 70
6
  9
$SURFV
 70
6
  9
$UCSBASE
  2

  9
$UCSNAME
  2

  9
$UCSORG
 10
0.0
 20
0.0
 30
0.0
  9
$UCSXDIR
 10
1.0
 20
0.0
 30
0.0
  9
$UCSYDIR
 10
0.0
 20
1.0
 30
0.0
  9
$UCSORTHOREF
  2

  9
$UCSORTHOVIEW
 70
0
  9
$UCSORGTOP
 10
0.0
 20
0.0
 30
0.0
  9
$UCSORGBOTTOM
 10
0.0
 20
0.0
 30
0.0
  9
$UCSORGLEFT
 10
0.0
 20
0.0
 30
0.0
  9
$UCSORGRIGHT
 10
0.0
 20
0.0
 30
0.0
  9
$UCSORGFRONT
 10
0.0
 20
0.0
 30
0.0
  9
$UCSORGBACK
 10
0.0
 20
0.0
 30
0.0
  9
$PUCSBASE
  2

  9
$PUCSNAME
  2

  9
$PUCSORG
 10
0.0
 20
0.0
 30
0.0
  9
$PUCSXDIR
 10
1.0
 20
0.0
 30
0.0
  9
$PUCSYDIR
 10
0.0
 20
1.0
 30
0.0
  9
$PUCSORTHOREF
  2

  9
$PUCSORTHOVIEW
 70
0
  9
$PUCSORGTOP
 10
0.0
 20
0.0
 30
0.0
  9
$PUCSORGBOTTOM
 10
0.0
 20
0.0
 30
0.0
  9
$PUCSORGLEFT
 10
0.0
 20
0.0
 30
0.0
  9
$PUCSORGRIGHT
 10
0.0
 20
0.0
 30
0.0
  9
$PUCSORGFRONT
 10
0.0
 20
0.0
 30
0.0
  9
$PUCSORGBACK
 10
0.0
 20
0.0
 30
0.0
  9
$USERI1
 70
0
  9
$USERI2
 70
0
  9
$USERI3
 70
0
  9
$USERI4
 70
0
  9
$USERI5
 70
0
  9
$USERR1
 40
0.0
  9
$USERR2
 40
0.0
  9
$USERR3
 40
0.0
  9
$USERR4
 40
0.0
  9
$USERR5
 40
0.0
  9
$WORLDVIEW
 70
1
  9
$SHADEDGE
 70
3
  9
$SHADEDIF
 70
70
  9
$TILEMODE
 70
1
  9
$MAXACTVP
 70
64
  9
$PINSBASE
 10
0.0
 20
0.0
 30
0.0
  9
$PLIMCHECK
 70
0
  9
$PEXTMIN
 10
1e+20
 20
1e+20
 30
1e+20
  9
$PEXTMAX
 10
-1e+20
 20
-1e+20
 30
-1e+20
  9
$PLIMMIN
 10
0.0
 20
0.0
  9
$PLIMMAX
 10
420.0
 20
297.0
  9
$UNITMODE
 70
0
  9
$VISRETAIN
 70
1
  9
$PLINEGEN
 70
0
  9
$PSLTSCALE
 70
1
  9
$TREEDEPTH
 70
3020
  9
$CMLSTYLE
  2
Standard
  9
$CMLJUST
 70
0
  9
$CMLSCALE
 40
20.0
  9
$PROXYGRAPHICS
 70
1
  9
$MEASUREMENT
 70
1
  9
$CELWEIGHT
370
-1
  9
$ENDCAPS
280
0
  9
$JOINSTYLE
280
0
  9
$LWDISPLAY
290
0
  9
$INSUNITS
 70
6
  9
$HYPERLINKBASE
  1

  9
$STYLESHEET
  1

  9
$XEDIT
290
1
  9
$CEPSNTYPE
380
0
  9
$PSTYLEMODE
290
1
  9
$FINGERPRINTGUID
  2
{780E09B5-1770-424C-8C32-CAC0A8449507}
  9
$VERSIONGUID
  2
{6B776090-D65A-4DB0-9BA6-5F591464B3F9}
  9
$EXTNAMES
290
1
  9
$PSVPSCALE
 40
0.0
  9
$OLESTARTUP
290
0
  9
$SORTENTS
280
127
  9
$INDEXCTL
280
0
  9
$HIDETEXT
280
1
  9
$XCLIPFRAME
280
1
  9
$HALOGAP
280
0
  9
$OBSCOLOR
 70
257
  9
$OBSLTYPE
280
0
  9
$INTERSECTIONDISPLAY
280
0
  9
$INTERSECTIONCOLOR
 70
257
  9
$DIMASSOC
280
2
  9
$PROJECTNAME
  1

  9
$CAMERADISPLAY
290
0
  9
$LENSLENGTH
 40
50.0
  9
$CAMERAHEIGHT
 40
0.0
  9
$STEPSPERSEC
 40
24.0
  9
$STEPSIZE
 40
100.0
  9
$3DDWFPREC
 40
2.0
  9
$PSOLWIDTH
 40
0.005
  9
$PSOLHEIGHT
 40
0.08
  9
$LOFTANG1
 40
1.570796326795
  9
$LOFTANG2
 40
1.570796326795
  9
$LOFTMAG1
 40
0.0
  9
$LOFTMAG2
 40
0.0
  9
$LOFTPARAM
 70
7
  9
$LOFTNORMALS
280
1
  9
$LATITUDE
 40
37.795
  9
$LONGITUDE
 40
-122.394
  9
$NORTHDIRECTION
 40
0.0
  9
$TIMEZONE
 70
-8000
  9
$LIGHTGLYPHDISPLAY
280
1
  9
$TILEMODELIGHTSYNCH
280
1
  9
$CMATERIAL
347
20
  9
$SOLIDHIST
280
0
  9
$SHOWHIST
280
1
  9
$DWFFRAME
280
2
  9
$DGNFRAME
280
2
  9
$REALWORLDSCALE
290
1
  9
$INTERFERECOLOR
 62
256
  9
$CSHADOW
280
0
  9
$SHADOWPLANELOCATION
 40
0.0
  0
ENDSEC
  0
SECTION
  2
CLASSES
  0
CLASS
  1
ACDBDICTIONARYWDFLT
  2
AcDbDictionaryWithDefault
  3
ObjectDBX Classes
 90
0
 91
0
280
0
281
0
  0
CLASS
  1
SUN
  2
AcDbSun
  3
SCENEOE
 90
1153
 91
0
280
0
281
0
  0
CLASS
  1
VISUALSTYLE
  2
AcDbVisualStyle
  3
ObjectDBX Classes
 90
4095
 91
0
280
0
281
0
  0
CLASS
  1
MATERIAL
  2
AcDbMaterial
  3
ObjectDBX Classes
 90
1153
 91
0
280
0
281
0
  0
CLASS
  1
SCALE
  2
AcDbScale
  3
ObjectDBX Classes
 90
1153
 91
0
280
0
281
0
  0
CLASS
  1
TABLESTYLE
  2
AcDbTableStyle
  3
ObjectDBX Classes
 90
4095
 91
0
280
0
281
0
  0
CLASS
  1
MLEADERSTYLE
  2
AcDbMLeaderStyle
  3
ACDB_MLEADERSTYLE_CLASS
 90
4095
 91
0
280
0
281
0
  0
CLASS
  1
DICTIONARYVAR
  2
AcDbDictionaryVar
  3
ObjectDBX Classes
 90
0
 91
0
280
0
281
0
  0
CLASS
  1
CELLSTYLEMAP
  2
AcDbCellStyleMap
  3
ObjectDBX Classes
 90
1152
 91
0
280
0
281
0
  0
CLASS
  1
MENTALRAYRENDERSETTINGS
  2
AcDbMentalRayRenderSettings
  3
SCENEOE
 90
1024
 91
0
280
0
281
0
  0
CLASS
  1
ACDBDETAILVIEWSTYLE
  2
AcDbDetailViewStyle
  3
ObjectDBX Classes
 90
1025
 91
0
280
0
281
0
  0
CLASS
  1
ACDBSECTIONVIEWSTYLE
  2
AcDbSectionViewStyle
  3
ObjectDBX Classes
 90
1025
 91
0
280
0
281
0
  0
CLASS
  1
RASTERVARIABLES
  2
AcDbRasterVariables
  3
ISM
 90
0
 91
0
280
0
281
0
  0
CLASS
  1
LAYOUT
  2
AcDbLayout
  3
ObjectDBX Classes
 90
0
 91
0
280
0
281
0
  0
CLASS
  1
ACDBPLACEHOLDER
  2
AcDbPlaceHolder
  3
ObjectDBX Classes
 90
0
 91
0
280
0
281
0
  0
ENDSEC
  0
SECTION
  2
TABLES
  0
TABLE
  2
VPORT
  5
8
330
0
100
AcDbSymbolTable
 70
1
  0
VPORT
  5
23
330
8
100
AcDbSymbolTableRecord
100
AcDbViewportTableRecord
  2
*Active
 70
0
 10
0.0
 20
0.0
 11
1.0
 21
1.0
 12
0.0
 22
0.0
 13
0.0
 23
0.0
 14
0.5
 24
0.5
 15
0.5
 25
0.5
 16
0.0
 26
0.0
 36
1.0
 17
0.0
 27
0.0
 37
0.0
 40
1000.0
 41
1.34
 42
50.0
 43
0.0
 44
0.0
 50
0.0
 51
0.0
 71
0
 72
1000
 73
1
 74
3
 75
0
 76
0
 77
0
 78
0
281
0
 65
0
146
0.0
  0
ENDTAB
  0
TABLE
  2
LTYPE
  5
2
330
0
100
AcDbSymbolTable
 70
3
  0
LTYPE
  5
24
330
2
100
AcDbSymbolTableRecord
100
AcDbLinetypeTableRecord
  2
ByBlock
 70
0
  3

 72
65
 73
0
 40
0.0
  0
LTYPE
  5
25
330
2
100
AcDbSymbolTableRecord
100
AcDbLinetypeTableRecord
  2
ByLayer
 70
0
  3

 72
65
 73
0
 40
0.0
  0
LTYPE
  5
26
330
2
100
AcDbSymbolTableRecord
100
AcDbLinetypeTableRecord
  2
Continuous
 70
0
  3

 72
65
 73
0
 40
0.0
  0
ENDTAB
  0
TABLE
  2
LAYER
  5
1
330
0
100
AcDbSymbolTable
 70
2
  0
LAYER
  5
27
330
1
100
AcDbSymbolTableRecord
100
AcDbLayerTableRecord
  2
0
 70
0
 62
7
  6
Continuous
370
-3
390
13
347
21
  0
LAYER
  5
28
330
1
100
AcDbSymbolTableRecord
100
AcDbLayerTableRecord
  2
Defpoints
 70
0
 62
7
  6
Continuous
290
0
370
-3
390
13
347
21
  0
ENDTAB
  0
TABLE
  2
STYLE
  5
5
330
0
100
AcDbSymbolTable
 70
1
  0
STYLE
  5
29
330
5
100
AcDbSymbolTableRecord
100
AcDbTextStyleTableRecord
  2
Standard
 70
0
 40
0.0
 41
1.0
 50
0.0
 71
0
 42
2.5
  3
txt
  4

  0
ENDTAB
  0
TABLE
  2
VIEW
  5
7
330
0
100
AcDbSymbolTable
 70
0
  0
ENDTAB
  0
TABLE
  2
UCS
  5
6
330
0
100
AcDbSymbolTable
 70
0
  0
ENDTAB
  0
TABLE
  2
APPID
  5
3
330
0
100
AcDbSymbolTable
 70
3
  0
APPID
  5
2A
330
3
100
AcDbSymbolTableRecord
100
AcDbRegAppTableRecord
  2
ACAD
 70
0
  0
APPID
  5
39
330
3
100
AcDbSymbolTableRecord
100
AcDbRegAppTableRecord
  2
HATCHBACKGROUNDCOLOR
 70
0
  0
APPID
  5
3A
330
3
100
AcDbSymbolTableRecord
100
AcDbRegAppTableRecord
  2
EZDXF
 70
0
  0
ENDTAB
  0
TABLE
  2
DIMSTYLE
  5
4
330
0
100
AcDbSymbolTable
 70
1
100
AcDbDimStyleTable
  0
DIMSTYLE
105
2B
330
4
100
AcDbSymbolTableRecord
100
AcDbDimStyleTableRecord
  2
Standard
 70
0
 40
1.0
 41
2.5
 42
0.625
 43
3.75
 44
1.25
 45
0.0
 46
0.0
 47
0.0
 48
0.0
 49
2.5
140
2.5
141
2.5
142
0.0
143
0.03937007874
144
1.0
145
0.0
146
1.0
147
0.625
148
0.0
 69
0
 70
0
 71
0
 72
0
 73
0
 74
0
 75
0
 76
0
 77
1
 78
8
 79
3
170
0
171
3
172
1
173
0
174
0
175
0
176
0
177
0
178
0
179
2
271
2
272
2
273
2
274
3
275
0
276
0
277
2
278
44
279
0
280
0
281
0
282
0
283
0
284
8
285
0
286
0
288
0
289
3
290
0
371
-2
372
-2
  0
ENDTAB
  0
TABLE
  2
BLOCK_RECORD
  5
9
330
0
100
AcDbSymbolTable
 70
2
  0
BLOCK_RECORD
  5
17
330
9
100
AcDbSymbolTableRecord
100
AcDbBlockTableRecord
  2
*Model_Space
340
1A
 70
0
280
1
281
0
  0
BLOCK_RECORD
  5
1B
330
9
100
AcDbSymbolTableRecord
100
AcDbBlockTableRecord
  2
*Paper_Space
340
1E
 70
0
280
1
281
0
  0
ENDTAB
  0
ENDSEC
  0
SECTION
  2
BLOCKS
  0
BLOCK
  5
18
330
17
100
AcDbEntity
  8
0
100
AcDbBlockBegin
  2
*Model_Space
 70
0
 10
0.0
 20
0.0
 30
0.0
  3
*Model_Space
  1

  0
ENDBLK
  5
19
330
17
100
AcDbEntity
  8
0
100
AcDbBlockEnd
  0
BLOCK
  5
1C
330
1B
100
AcDbEntity
  8
0
100
AcDbBlockBegin
  2
*Paper_Space
 70
0
 10
0.0
 20
0.0
 30
0.0
  3
*Paper_Space
  1

  0
ENDBLK
  5
1D
330
1B
100
AcDbEntity
  8
0
100
AcDbBlockEnd
  0
ENDSEC
  0
SECTION
  2
ENTITIES
  0
LWPOLYLINE
  5
2F
330
17
100
AcDbEntity
  8
0
100
AcDbPolyline
 90
327
 70
0
 10
-0.04993977028922083
 20
0.022559024624750703
 10
-0.04981932856048758
 20
0.020107377405192108
 10
-0.049744078575919226
 20
0.018882533003556547
 10
-0.04963879206887371
 20
0.017659904229222492
 10
-0.04950353246000595
 20
0.016440227548046516
 10
-0.04933838122464669
 20
0.015224237647654744
 10
-0.04897821640285426
 20
0.012796203807422697
 10
-0.04878327302192964
 20
0.011584633154647337
 10
-0.0485586549220448
 20
0.01037821155436123
 10
-0.04830449740474411
 20
0.009177665709825372
 10
-0.04802095356501242
 20
0.007983718784965201
 10
-0.04742453410163129
 20
0.00560267891719415
 10
-0.04711177473568476
 20
0.004416050101027007
 10
-0.04676998823806283
 20
0.0032374541743461077
 10
-0.04639938048817144
 20
0.002067601079267109
 10
-0.04600017472626118
 20
0.0009071954915508204
 10
-0.045173244466778756
 20
-0.0014039196881857688
 10
-0.04474568115945997
 20
-0.0025541787836383598
 10
-0.04429001785489302
 20
-0.0036935985137237747
 10
-0.04380652902761423
 20
-0.004821492534602262
 10
-0.04329550591321436
 20
-0.005937181445090242
 10
-0.04224602864805246
 20
-0.008156114634274
 10
-0.04170777906776586
 20
-0.009258926385053164
 10
-0.041142627242996485
 20
-0.010348196683599428
 10
-0.04055091360007114
 20
-0.011423269394215459
 10
-0.039932994565162735
 20
-0.012483496933299934
 10
-0.03867107733413418
 20
-0.014588878592257062
 10
-0.03802732511854384
 20
-0.0156336223184165
 10
-0.03735812749455325
 20
-0.016662252917063212
 10
-0.03666388756178819
 20
-0.017674150779587533
 10
-0.03594502350442484
 20
-0.018668706376554357
 10
-0.03448281926018576
 20
-0.020640260529151223
 10
-0.033739764095077285
 20
-0.02161687477742569
 10
-0.032972965410847085
 20
-0.022574959401135873
 10
-0.032182885098350045
 20
-0.02351393728592959
 10
-0.031369999072423396
 20
-0.024433242826639674
 10
-0.029721589641344078
 20
-0.026251982328404484
 10
-0.028886387554117505
 20
-0.027151061769765714
 10
-0.02802937250011382
 20
-0.028029373539923137
 10
-0.02715106071315568
 20
-0.028886388576708624
 10
-0.02625198125542137
 20
-0.029721590646309866
 10
-0.02443324172125898
 20
-0.031370000041809905
 10
-0.02351393616456973
 20
-0.03218288604975228
 10
-0.022574958264242096
 20
-0.03297296634387725
 10
-0.021616873625452643
 20
-0.03373976500935861
 10
-0.020640259362562745
 20
-0.03448282015535267
 10
-0.01866870518134188
 20
-0.035945024360897665
 10
-0.01767414957034376
 20
-0.03666388839871402
 10
-0.01666225169427319
 20
-0.03735812831159523
 10
-0.015633621082573344
 20
-0.03802732591537713
 10
-0.014588877343861653
 20
-0.038671078110446164
 10
-0.012483495660192833
 20
-0.039932995300190274
 10
-0.011423268108921103
 20
-0.040550914314358415
 10
-0.010348195386629488
 20
-0.04114262793624879
 10
-0.009258925076926395
 20
-0.04170777973970113
 10
-0.00815611331551599
 20
-0.04224602929840141
 10
-0.005937180105727479
 20
-0.043295506520064565
 10
-0.004821491185287005
 20
-0.04380652961255677
 10
-0.003693597154997414
 20
-0.04429001841769193
 10
-0.0025541774160478155
 20
-0.044745681699892674
 10
-0.0014039183122832484
 20
-0.04517324498463617
 10
0.0009071968836535417
 20
-0.0460001751988103
 10
0.0020676024792310142
 20
-0.04639938093798492
 10
0.0032374555816111657
 20
-0.046769988664953736
 10
0.0044160515150287166
 20
-0.04711177513947992
 10
0.005602680337363913
 20
-0.047424534482171446
 10
0.007983720216870709
 20
-0.04802095389888063
 10
0.00917766702777359
 20
-0.04830449768836553
 10
0.01037821275653073
 20
-0.0485586551611724
 10
0.011584634239430788
 20
-0.048783273222373726
 10
0.012796204773428506
 20
-0.04897821657047544
 10
0.014493774112085894
 20
-0.04923002719473337
 10
0.015224240230928873
 20
-0.049338381583526346
 10
0.01644022973438108
 20
-0.04950353271754962
 10
0.017659906015149114
 20
-0.04963879224478134
 10
0.01888253438633538
 20
-0.04974407868999405
 10
0.02010737838281456
 20
-0.04981932863261213
 10
0.021984421603507498
 20
-0.049911541852921
 10
0.022559025759018022
 20
-0.04993977033892304
 10
0.023785347727078073
 20
-0.049984938441978544
 10
0.025012408830549213
 20
-0.049999997500000136
 10
45.025012403920805
 20
-0.04999999749398184
 10
45.0262394655305
 20
-0.04998493842353284
 10
45.027465788003866
 20
-0.04993977028321077
 10
45.029917435100785
 20
-0.049819328560510676
 10
45.031142279502426
 20
-0.049744078575946045
 10
45.03236490827677
 20
-0.04963879206890399
 10
45.03358458495795
 20
-0.04950353246003944
 10
45.034800574858345
 20
-0.04933838122468358
 10
45.037228608698626
 20
-0.048978216402891225
 10
45.03844017935143
 20
-0.04878327302196489
 10
45.03964660095174
 20
-0.04855865492207745
 10
45.04084714679631
 20
-0.048304497404772787
 10
45.042041093721195
 20
-0.048020953565035676
 10
45.04442213358899
 20
-0.04742453410165094
 10
45.045608762405145
 20
-0.047111774735709
 10
45.04678735833181
 20
-0.04676998823809218
 10
45.047957211426876
 20
-0.04639938048820652
 10
45.04911761701458
 20
-0.046000174726302336
 10
45.05142873219434
 20
-0.0451732444668169
 10
45.05257899128978
 20
-0.04474568115950642
 10
45.05371841101985
 20
-0.04429001785494822
 10
45.05484630504071
 20
-0.04380652902767891
 10
45.055961993951186
 20
-0.04329550591328848
 10
45.0581809271403
 20
-0.04224602864816853
 10
45.05928373889111
 20
-0.0417077790678696
 10
45.060373009189696
 20
-0.041142627243085456
 10
45.061448081900345
 20
-0.040550913600143734
 10
45.06250830943946
 20
-0.03993299456521677
 10
45.06461369109854
 20
-0.038671077334111965
 10
45.06565843482471
 20
-0.03802732511851451
 10
45.06668706542337
 20
-0.037358127494515565
 10
45.06769896328591
 20
-0.03666388756174155
 10
45.06869351888289
 20
-0.03594502350436784
 10
45.07066507303541
 20
-0.03448281926018353
 10
45.07164168728365
 20
-0.03373976409509887
 10
45.07259977190733
 20
-0.03297296541089313
 10
45.07353874979209
 20
-0.03218288509842204
 10
45.07445805533278
 20
-0.031369999072521595
 10
45.07627679483457
 20
-0.029721589641423365
 10
45.07717587427598
 20
-0.028886387554155853
 10
45.07805418604618
 20
-0.02802937250010777
 10
45.07891120108301
 20
-0.02715106071310304
 10
45.079746403152654
 20
-0.02625198125531967
 10
45.08139481254815
 20
-0.02443324172115411
 10
45.08220769855605
 20
-0.02351393616450924
 10
45.08299777885013
 20
-0.022574958264227674
 10
45.08376457751557
 20
-0.021616873625486224
 10
45.084507632661534
 20
-0.020640259362647122
 10
45.08596983686707
 20
-0.018668705181443805
 10
45.08668870090488
 20
-0.017674149570460113
 10
45.087382940817754
 20
-0.016662251694405366
 10
45.08805213842153
 20
-0.015633621082721743
 10
45.08869589061659
 20
-0.014588877344026557
 10
45.08995780780637
 20
-0.01248349566031412
 10
45.09057572682055
 20
-0.011423268109032436
 10
45.09116744044245
 20
-0.010348195386730319
 10
45.09173259224591
 20
-0.009258925077016325
 10
45.09227084180462
 20
-0.00815611331559437
 10
45.093320319026276
 20
-0.005937180105833294
 10
45.09383134211882
 20
-0.004821491185291089
 10
45.09431483092399
 20
-0.0036935971548972164
 10
45.09477049420624
 20
-0.0025541774158412862
 10
45.09519805749101
 20
-0.0014039183119688575
 10
45.096024987705185
 20
0.000907196884017844
 10
45.09642419344431
 20
0.002067602479460969
 10
45.09679480117123
 20
0.0032374555817041087
 10
45.097136587645714
 20
0.004416051514982559
 10
45.09744934698837
 20
0.005602680337177495
 10
45.09804576640505
 20
0.007983720216523287
 10
45.09832931022138
 20
0.009177667146922357
 10
45.098583467715144
 20
0.010378212996421634
 10
45.098808085791376
 20
0.011584634601091996
 10
45.099003029148555
 20
0.012796205257669523
 10
45.09936319392276
 20
0.01522423910498568
 10
45.09952834512305
 20
0.016440228917500816
 10
45.099663604701256
 20
0.017659905509717314
 10
45.09976889118207
 20
0.01888253419417285
 10
45.09984414114488
 20
0.02010737850517497
 10
45.09996458282554
 20
0.02255902535934407
 10
45.10000975094332
 20
0.023785347527064415
 10
45.10002481000625
 20
0.02501240883055719
 10
45.100024810000235
 20
34.025012403920805
 10
45.100009750929786
 20
34.026239465530494
 10
45.09996458278946
 20
34.02746578800386
 10
45.09984414106676
 20
34.029917435100785
 10
45.09976889108219
 20
34.03114227950247
 10
45.09966360457515
 20
34.03236490827685
 10
45.099528344966274
 20
34.033584584958064
 10
45.09936319373091
 20
34.0348005748585
 10
45.099003028909095
 20
34.037228608698875
 10
45.098808085528184
 20
34.0384401793516
 10
45.098583467428305
 20
34.03964660095185
 10
45.098329309911016
 20
34.040847146796345
 10
45.0980457660713
 20
34.04204109372116
 10
45.09744934660796
 20
34.04442213358881
 10
45.097136587242005
 20
34.04560876240502
 10
45.09679480074438
 20
34.046787358331734
 10
45.096424192994476
 20
34.04795721142685
 10
45.09602498723255
 20
34.0491176170146
 10
45.09519805697305
 20
34.05142873219441
 10
45.09477049366575
 20
34.05257899128981
 10
45.0943148303612
 20
34.05371841101985
 10
45.09383134153394
 20
34.054846305040684
 10
45.09332031841957
 20
34.05596199395113
 10
45.092270841154466
 20
34.05818092714022
 10
45.09173259157413
 20
34.059283738891104
 10
45.09116743974931
 20
34.06037300918975
 10
45.09057572610633
 20
34.06144808190047
 10
45.08995780707136
 20
34.06250830943966
 10
45.08869588984022
 20
34.06461369109878
 10
45.08805213762466
 20
34.065658434824876
 10
45.0873829400007
 20
34.06668706542346
 10
45.086688700067974
 20
34.06769896328593
 10
45.085969836010655
 20
34.06869351888284
 10
45.08450763176649
 20
34.070665073035336
 10
45.08376457660137
 20
34.07164168728362
 10
45.08299777791713
 20
34.07259977190735
 10
45.08220769760462
 20
34.07353874979216
 10
45.08139481157868
 20
34.07445805533288
 10
45.079746402147556
 20
34.0762767948347
 10
45.078911200060325
 20
34.07717587427606
 10
45.07805418500632
 20
34.07805418604621
 10
45.07717587321936
 20
34.078911201082995
 10
45.07627679376163
 20
34.0797464031526
 10
45.074458054227456
 20
34.081394812548105
 10
45.07353874867079
 20
34.082207698556026
 10
45.07259977077049
 20
34.08299777885013
 10
45.07164168613172
 20
34.083764577515595
 10
45.07066507186886
 20
34.08450763266157
 10
45.06869351768771
 20
34.085969836867065
 10
45.06769896207665
 20
34.08668870090493
 10
45.06668706420051
 20
34.08738294081786
 10
45.06565843358874
 20
34.08805213842168
 10
45.064613689849956
 20
34.08869589061679
 10
45.06250830816616
 20
34.0899578078066
 10
45.06144808061495
 20
34.090575726820724
 10
45.060373007892736
 20
34.09116744044257
 10
45.0592837375831
 20
34.09173259224598
 10
45.058180925821766
 20
34.09227084180465
 10
45.05596199261203
 20
34.09332031902629
 10
45.05484630369152
 20
34.09383134211882
 10
45.05371840966115
 20
34.094314830923985
 10
45.05257898992212
 20
34.094770494206216
 10
45.05142873081827
 20
34.09519805749098
 10
45.0491176156223
 20
34.09602498770516
 10
45.047957210026794
 20
34.09642419344431
 10
45.04678735692449
 20
34.09679480117125
 10
45.04560876099114
 20
34.09713658764575
 10
45.04442213216888
 20
34.09744934698842
 10
45.04204109228947
 20
34.09804576640511
 10
45.04084714535906
 20
34.09832931022143
 10
45.039646599509545
 20
34.098583467715194
 10
45.03844017790487
 20
34.098808085791426
 10
45.037228607248274
 20
34.0990030291486
 10
45.03480057340098
 20
34.09936319392279
 10
45.03358458358849
 20
34.099528345123076
 10
45.03236490699631
 20
34.09966360470127
 10
45.03114227831188
 20
34.09976889118208
 10
45.029917434000915
 20
34.09984414114488
 10
45.027465787146646
 20
34.09996458282554
 10
45.02623946497898
 20
34.10000975094332
 10
45.02501240367553
 20
34.10002481000625
 10
0.025012408585401668
 20
34.100024810000235
 10
0.023785346975592637
 20
34.10000975092978
 10
0.02255902450210963
 20
34.099964582789454
 10
0.02010737740513218
 20
34.09984414106674
 10
0.018882533003509165
 20
34.09976889108217
 10
0.017659904229187447
 20
34.09966360457512
 10
0.016440227548023795
 20
34.09952834496625
 10
0.015224237647644575
 20
34.099363193730895
 10
0.012796203807417365
 20
34.0990030289091
 10
0.011584633154669968
 20
34.098808085528184
 10
0.010378211554411829
 20
34.098583467428305
 10
0.009177665709903653
 20
34.09832930991101
 10
0.007983718785071267
 20
34.09804576607129
 10
0.005602678917322032
 20
34.09744934660792
 10
0.004416050101142609
 20
34.09713658724197
 10
0.0032374541744499656
 20
34.09679480074435
 10
0.002067601079359341
 20
34.096424192994455
 10
0.0009071954916326543
 20
34.09602498723254
 10
-0.0014039196881204773
 20
34.095198056973054
 10
-0.002554178783576222
 20
34.09477049366574
 10
-0.003693598513663715
 20
34.09431483036117
 10
-0.004821492534544256
 20
34.09383134153389
 10
-0.005937181445034034
 20
34.093320318419494
 10
-0.0081561146342097
 20
34.09227084115434
 10
-0.009258926385015612
 20
34.09173259157404
 10
-0.01034819668358774
 20
34.091167439749256
 10
-0.01142326939422896
 20
34.090575726106316
 10
-0.012483496933337552
 20
34.08995780707139
 10
-0.01458887859234424
 20
34.08869588984033
 10
-0.01563362231846222
 20
34.088052137624764
 10
-0.016662252917068396
 20
34.0873829400008
 10
-0.017674150779553532
 20
34.086688700068066
 10
-0.01866870637648358
 20
34.08596983601073
 10
-0.020640260529016786
 20
34.08450763176655
 10
-0.021616874777337328
 20
34.0837645766014
 10
-0.02257495940109287
 20
34.08299777791714
 10
-0.023513937285930143
 20
34.08220769760461
 10
-0.024433242826681693
 20
34.08139481157864
 10
-0.026251982328498975
 20
34.07974640214751
 10
-0.02715106176984775
 20
34.07891120006029
 10
-0.02802937353999294
 20
34.078054185006295
 10
-0.028886388576766692
 20
34.077175873219346
 10
-0.029721590646356776
 20
34.07627679376162
 10
-0.03137000004183103
 20
34.074458054227485
 10
-0.032182886049748866
 20
34.07353874867082
 10
-0.03297296634385068
 20
34.07259977077052
 10
-0.03373976500931028
 20
34.07164168613176
 10
-0.03448282015528378
 20
34.0706650718689
 10
-0.035945024360821975
 20
34.0686935176877
 10
-0.03666388839868204
 20
34.06769896207664
 10
-0.03735812831160383
 20
34.066687064200515
 10
-0.03802732591542335
 20
34.06565843358875
 10
-0.03867107811052781
 20
34.06461368984998
 10
-0.03993299530030858
 20
34.06250830816623
 10
-0.040550914314437775
 20
34.061448080615015
 10
-0.04114262793629293
 20
34.060373007892785
 10
-0.04170777973971306
 20
34.059283737583144
 10
-0.04224602929838426
 20
34.058180925821794
 10
-0.043295506520036
 20
34.05596199261204
 10
-0.04380652961255074
 20
34.054846303691555
 10
-0.04429001841770626
 20
34.053718409661215
 10
-0.04474568169992506
 20
34.052578989922225
 10
-0.045173244984684
 20
34.05142873081841
 10
-0.04600017519885999
 20
34.04911761562245
 10
-0.04639938093802787
 20
34.04795721002689
 10
-0.04676998866499031
 20
34.04678735692452
 10
-0.04711177513951076
 20
34.045608760991115
 10
-0.047424534482196766
 20
34.04442213216879
 10
-0.04802095389888776
 20
34.042041092289345
 10
-0.04830449771520541
 20
34.040847145358946
 10
-0.04855865520896327
 20
34.039646599509446
 10
-0.04878327328519111
 20
34.03844017790478
 10
-0.04897821664235838
 20
34.0372286072482
 10
-0.04933838141654653
 20
34.03480057340092
 10
-0.04950353261682039
 20
34.03358458358847
 10
-0.049638792195012105
 20
34.03236490699632
 10
-0.04974407867582205
 20
34.03114227831193
 10
-0.049819328638620514
 20
34.02991743400099
 10
-0.04993977031928891
 20
34.027465787146724
 10
-0.04998493843706848
 20
34.02623946497902
 10
-0.049999997500000136
 20
34.02501240367554
 10
-0.049999997500000136
 20
0.025012408707986822
 10
-0.04998493842954917
 20
0.023785347098205692
 10
-0.04993977028922083
 20
0.022559024624750703
  0
LWPOLYLINE
  5
30
330
17
100
AcDbEntity
  8
0
100
AcDbPolyline
 90
5
 70
0
 10
0.1000248101682563
 20
0.10002491498259372
 10
44.949999892662
 20
0.10002481012315159
 10
44.950000002337994
 20
33.94999989262235
 10
0.10002491984425022
 20
33.95000000237764
 10
0.1000248101682563
 20
0.10002491498259372
  0
LWPOLYLINE
  5
31
330
17
100
AcDbEntity
  8
0
100
AcDbPolyline
 90
327
 70
0
 10
-0.09987953808145311
 20
0.020105640664183792
 10
-0.09975909635271986
 20
0.017653993444625198
 10
-0.09960859638734565
 20
0.015204304702596295
 10
-0.09939802337851894
 20
0.01275904721505962
 10
-0.09912750416754643
 20
0.010319693913691506
 10
-0.09879720170508545
 20
0.007887714173707457
 10
-0.09843703688329303
 20
0.00545968033347541
 10
-0.09804715013119095
 20
0.0030365390885032234
 10
-0.09759791394265217
 20
0.0006236959482520885
 10
-0.09708959892075866
 20
-0.0017773956807923368
 10
-0.09652251125547247
 20
-0.004165289470815327
 10
-0.09592609179209134
 20
-0.006546329338586378
 10
-0.09530057307583627
 20
-0.008919586911589224
 10
-0.09461700009768174
 20
-0.011276778706021225
 10
-0.09387578461642934
 20
-0.013616484837686571
 10
-0.09307737311256913
 20
-0.015937295955098865
 10
-0.0922504428530867
 20
-0.018248411134835454
 10
-0.09139531625982728
 20
-0.020548929268227677
 10
-0.09048398967347653
 20
-0.022827768671427523
 10
-0.0895170120430934
 20
-0.025083556656789796
 10
-0.08849496583984484
 20
-0.02731493442198131
 10
-0.08744548857468293
 20
-0.02953386761116507
 10
-0.08636898944102223
 20
-0.03173949105758277
 10
-0.08523868581974105
 20
-0.03391803160021182
 10
-0.08405525856347605
 20
-0.03606817696769025
 10
-0.0828194205245552
 20
-0.03818863199284781
 10
-0.08155750329352664
 20
-0.04029401365180494
 10
-0.08026999889453361
 20
-0.042383501051886596
 10
-0.07893160368001227
 20
-0.04444076219774853
 10
-0.07754312384919414
 20
-0.04646455787220228
 10
-0.07610539577041067
 20
-0.04845366901640815
 10
-0.07464319152617158
 20
-0.050425223169005016
 10
-0.07315708123310737
 20
-0.05237845161672326
 10
-0.07162348390298688
 20
-0.0542946208162394
 10
-0.07004332331749685
 20
-0.0561725765388779
 10
-0.06841755130628785
 20
-0.058011187574332795
 10
-0.06676914187520853
 20
-0.059829927076097605
 10
-0.0650987377425155
 20
-0.06162808591386609
 10
-0.06338470767735886
 20
-0.06338470941026536
 10
-0.061628084147358195
 20
-0.06509873944098557
 10
-0.059829925276843526
 20
-0.06676914353842794
 10
-0.058011185742681146
 20
-0.06841755293392798
 10
-0.05617257467526794
 20
-0.07004332490916844
 10
-0.05429461892156155
 20
-0.07162348545791437
 10
-0.05237844969188689
 20
-0.07315708275053714
 10
-0.05042522121493781
 20
-0.07464319300537252
 10
-0.048453667033716945
 20
-0.07610539721091751
 10
-0.046464555861448466
 20
-0.07754312525060703
 10
-0.044440760159902226
 20
-0.07893160504165744
 10
-0.042383498987934067
 20
-0.08027000021576136
 10
-0.040294011562747874
 20
-0.08155750457371183
 10
-0.038188629879079054
 20
-0.08281942176345594
 10
-0.036068174829546974
 20
-0.08405525976089627
 10
-0.033918029438717384
 20
-0.08523868697509132
 10
-0.03173948887377471
 20
-0.08636899055373841
 10
-0.02953386540609449
 20
-0.0874454896442265
 10
-0.02731493219630598
 20
-0.08849496686588966
 10
-0.025083554411209477
 20
-0.08951701302532292
 10
-0.022827766407024996
 20
-0.09048399061141879
 10
-0.020548926986096804
 20
-0.09139531715303711
 10
-0.018248408836080608
 20
-0.09225044370114595
 10
-0.015937293640143818
 20
-0.09307737391532007
 10
-0.01361648250700917
 20
-0.09387578537370903
 10
-0.011276776360741526
 20
-0.09461700080911627
 10
-0.008919584552836198
 20
-0.09530057374107932
 10
-0.006546326967497247
 20
-0.09592609241082439
 10
-0.004165287087990452
 20
-0.09652251182753357
 10
-0.001777393525882031
 20
-0.09708959939232621
 10
0.0006236978716049613
 20
-0.09759791432523207
 10
0.003036540777084002
 20
-0.0980471504364038
 10
0.005459681784500911
 20
-0.09843703712286009
 10
0.007157252733454899
 20
-0.09868884798598292
 10
0.007887718852297878
 20
-0.09879720237477589
 10
0.01031969779840282
 20
-0.09912750463456488
 10
0.01275905029895507
 20
-0.09939802368226536
 10
0.015204306980196187
 20
-0.09960859656742645
 10
0.017653994911912343
 20
-0.09975909644890012
 10
0.019531038654652152
 20
-0.09985130969485549
 10
0.020105642810162673
 20
-0.09987953818085753
 10
0.022558286684966677
 20
-0.09996987438471014
 10
0.0250124088305559
 20
-0.09999999250000037
 10
45.02501240392081
 20
-0.09999999249398207
 10
45.02746652707884
 20
-0.09996987435383702
 10
45.029919171964266
 20
-0.09987953807545129
 10
45.032370819061185
 20
-0.0997590963527512
 10
45.034820507803225
 20
-0.09960859638738448
 10
45.03726576529077
 20
-0.09939802337856488
 10
45.039705118592146
 20
-0.09912750416759902
 10
45.04213709833214
 20
-0.09879720170514437
 10
45.04456513217242
 20
-0.09843703688335202
 10
45.046988273417455
 20
-0.09804715013124723
 10
45.04940111655776
 20
-0.09759791394270306
 10
45.051802208186864
 20
-0.09708959892080135
 10
45.05419010197694
 20
-0.09652251125550405
 10
45.056571141844735
 20
-0.09592609179211932
 10
45.05894439941771
 20
-0.09530057307587309
 10
45.06130159121212
 20
-0.09461700009772848
 10
45.063641297343764
 20
-0.09387578461648724
 10
45.06596210846115
 20
-0.09307737311264008
 10
45.06827322364091
 20
-0.09225044285315465
 10
45.07057374177427
 20
-0.09139531625991047
 10
45.07285258117744
 20
-0.09048398967357718
 10
45.07510836916278
 20
-0.08951701204321294
 10
45.07733974692794
 20
-0.08849496583998474
 10
45.07955868011705
 20
-0.0874454885748648
 10
45.08176430356354
 20
-0.0863689894411776
 10
45.08394284410624
 20
-0.08523868581986666
 10
45.086092989473784
 20
-0.08405525856356864
 10
45.088213444499004
 20
-0.08281942052461297
 10
45.09031882615809
 20
-0.08155750329350817
 10
45.092408313558195
 20
-0.0802699988944988
 10
45.09446557470408
 20
-0.07893160367996138
 10
45.096489370378556
 20
-0.07754312384912597
 10
45.09847848152278
 20
-0.07610539577032262
 10
45.1004500356753
 20
-0.07464319152613831
 10
45.102403264122955
 20
-0.07315708123312095
 10
45.104319433322416
 20
-0.07162348390304878
 10
45.10619738904499
 20
-0.07004332331760993
 10
45.108036000080396
 20
-0.06841755130645544
 10
45.10985473958219
 20
-0.06676914187535721
 10
45.111652898420054
 20
-0.06509873774258013
 10
45.113409521916545
 20
-0.06338470767733541
 10
45.11512355194735
 20
-0.06162808414724226
 10
45.11679395604487
 20
-0.05982992527663024
 10
45.118442365440366
 20
-0.05801118574246468
 10
45.12006813741552
 20
-0.05617257467514061
 10
45.121648297964185
 20
-0.05429461892152679
 10
45.12318189525673
 20
-0.05237844969194853
 10
45.124668005511495
 20
-0.050425221215099826
 10
45.12613020971703
 20
-0.04845366703389651
 10
45.12756793775671
 20
-0.04646455586165784
 10
45.12895641754774
 20
-0.04444076016014252
 10
45.130294812721836
 20
-0.04238349898820605
 10
45.131582317079776
 20
-0.0402940115630534
 10
45.132844234269555
 20
-0.03818862987934096
 10
45.13408007226701
 20
-0.03606817482978802
 10
45.135263499481226
 20
-0.03391802943893778
 10
45.136393803059896
 20
-0.03173948887397369
 10
45.1374703021504
 20
-0.029533865406270586
 10
45.138519779372054
 20
-0.02731493219650951
 10
45.13954182553159
 20
-0.025083554411210005
 10
45.14050880311777
 20
-0.022827766406817294
 10
45.14142012965946
 20
-0.02054892698567675
 10
45.14227525620763
 20
-0.018248408835443722
 10
45.14310218642181
 20
-0.01593729363945702
 10
45.14390059788009
 20
-0.013616482506591983
 10
45.1446418133154
 20
-0.011276776360597845
 10
45.145325386247286
 20
-0.008919584552970206
 10
45.145950904916965
 20
-0.006546326967911898
 10
45.146547324333646
 20
-0.004165287088566106
 10
45.147114411952124
 20
-0.001777393287464936
 10
45.14762272692695
 20
0.0006236983515060419
 10
45.14807196306818
 20
0.0030365415005253957
 10
45.14846184977279
 20
0.005459682753102111
 10
45.148822014546994
 20
0.007887716600418268
 10
45.149152316939315
 20
0.01031969616464859
 10
45.14942283608896
 20
0.012759049288097778
 10
45.14963340904533
 20
0.015204306595877442
 10
45.14978390896717
 20
0.017653995156639873
 10
45.14990435064784
 20
0.02010564201080897
 10
45.14999468688114
 20
0.022558286284933365
 10
45.150024805006254
 20
0.02501240883056604
 10
45.150024805000236
 20
34.02501240392081
 10
45.14999468686009
 20
34.027466527078836
 10
45.1499043505817
 20
34.02991917196425
 10
45.149783908859
 20
34.03237081906118
 10
45.14963340889363
 20
34.034820507803296
 10
45.1494228358848
 20
34.037265765290925
 10
45.14915231667382
 20
34.03970511859238
 10
45.14882201421135
 20
34.042137098332454
 10
45.148461849389534
 20
34.04456513217283
 10
45.14807196263745
 20
34.04698827341771
 10
45.14762272644893
 20
34.049401116557874
 10
45.14711441142706
 20
34.051802208186835
 10
45.1465473237618
 20
34.05419010197677
 10
45.14595090429846
 20
34.05657114184442
 10
45.14532538558219
 20
34.0589443994175
 10
45.14464181260402
 20
34.06130159121201
 10
45.14390059712275
 20
34.06364129734375
 10
45.143102185618865
 20
34.065962108461235
 10
45.14227525535936
 20
34.06827322364104
 10
45.141420128766136
 20
34.07057374177434
 10
45.14050880217983
 20
34.07285258117744
 10
45.1395418245495
 20
34.07510836916271
 10
45.1385197783463
 20
34.07733974692781
 10
45.137470301081194
 20
34.079558680116904
 10
45.136393801947435
 20
34.08176430356354
 10
45.13526349832605
 20
34.083942844106375
 10
45.13408007106967
 20
34.08609298947406
 10
45.132844233030625
 20
34.08821344449942
 10
45.131582315799484
 20
34.09031882615854
 10
45.13029481140055
 20
34.092408313558494
 10
45.12895641618611
 20
34.09446557470423
 10
45.12756793635536
 20
34.09648937037857
 10
45.12613020827666
 20
34.09847848152266
 10
45.1246680040325
 20
34.10045003567516
 10
45.123181893739414
 20
34.102403264122906
 10
45.12164829640927
 20
34.10431943332245
 10
45.12006813582376
 20
34.10619738904512
 10
45.11844236381252
 20
34.1080360000806
 10
45.11679395438139
 20
34.10985473958242
 10
45.1151235502487
 20
34.11165289842018
 10
45.113409520183545
 20
34.11340952191658
 10
45.11165289665354
 20
34.1151235519473
 10
45.109854737783024
 20
34.11679395604474
 10
45.10803599824885
 20
34.118442365440245
 10
45.10619738718149
 20
34.120068137415444
 10
45.104319431427825
 20
34.12164829796415
 10
45.1024032621982
 20
34.123181895256735
 10
45.1004500337213
 20
34.12466800551154
 10
45.098478479540155
 20
34.12613020971703
 10
45.096489368367756
 20
34.12756793775682
 10
45.09446557266608
 20
34.12895641754796
 10
45.092408311493976
 20
34.13029481272215
 10
45.090318824068646
 20
34.13158231708017
 10
45.08821344238485
 20
34.13284423426998
 10
45.086092987335455
 20
34.13408007226733
 10
45.08394284194476
 20
34.13526349948145
 10
45.08176430137996
 20
34.13639380306002
 10
45.07955867791243
 20
34.13747030215043
 10
45.0773397447027
 20
34.138519779372075
 10
45.07510836691745
 20
34.13954182553158
 10
45.07285257891311
 20
34.14050880311774
 10
45.07057373949202
 20
34.141420129659416
 10
45.06827322134184
 20
34.142275256207576
 10
45.06596210614587
 20
34.14310218642175
 10
45.06364129501288
 20
34.143900597880084
 10
45.061301588866755
 20
34.14464181331544
 10
45.058944397058994
 20
34.14532538624735
 10
45.0565711394738
 20
34.14595090491706
 10
45.05419009959439
 20
34.146547324333746
 10
45.051802205793265
 20
34.14711441195222
 10
45.04940111415427
 20
34.14762272692703
 10
45.046988271005226
 20
34.14807196306827
 10
45.04456512975263
 20
34.148461849772865
 10
45.04213709590533
 20
34.14882201454706
 10
45.03970511634116
 20
34.14915231693936
 10
45.03726576321777
 20
34.14942283608899
 10
45.03482050591005
 20
34.14963340904535
 10
45.032370817349346
 20
34.14978390896719
 10
45.02991917049508
 20
34.14990435064785
 10
45.027466526221055
 20
34.14999468688114
 10
45.025012403675525
 20
34.150024805006254
 10
0.02501240858539498
 20
34.150024805000236
 10
0.0225582854271298
 20
34.14999468686008
 10
0.020105640541480105
 20
34.14990435058168
 10
0.017653993444502657
 20
34.149783908858964
 10
0.0152043047024987
 20
34.14963340889359
 10
0.012759047214986942
 20
34.149422835884764
 10
0.010319693913643714
 20
34.14915231667379
 10
0.007887714173684442
 20
34.14882201421133
 10
0.005459680333457232
 20
34.14846184938954
 10
0.003036539088541561
 20
34.148071962637445
 10
0.0006236959483463846
 20
34.14762272644892
 10
-0.0017773956806426579
 20
34.14711441142704
 10
-0.004165289470610713
 20
34.14654732376177
 10
-0.006546329338359948
 20
34.1459509042984
 10
-0.00891958691138606
 20
34.14532538558215
 10
-0.01127677870584097
 20
34.14464181260399
 10
-0.013616484837528968
 20
34.14390059712274
 10
-0.015937295954964528
 20
34.14310218561887
 10
-0.01824841113471766
 20
34.14227525535939
 10
-0.020548929268113962
 20
34.14142012876613
 10
-0.022827768671318797
 20
34.140508802179774
 10
-0.02508355665668597
 20
34.13954182454939
 10
-0.02731493442188168
 20
34.138519778346144
 10
-0.02953386761105735
 20
34.13747030108099
 10
-0.03173949105752839
 20
34.13639380194731
 10
-0.03391803160020879
 20
34.135263498326
 10
-0.03606817696773721
 20
34.134080071069704
 10
-0.03818863199294394
 20
34.13284423303075
 10
-0.04029401365195063
 20
34.13158231579969
 10
-0.042383501051948914
 20
34.130294811400745
 10
-0.04444076219773051
 20
34.12895641618628
 10
-0.04646455787210658
 20
34.12756793635551
 10
-0.048453669016237905
 20
34.12613020827679
 10
-0.05042522316877111
 20
34.12466800403261
 10
-0.05237845161658271
 20
34.12318189373948
 10
-0.05429462081618916
 20
34.12164829640928
 10
-0.05617257653891443
 20
34.12006813582372
 10
-0.05801118757445181
 20
34.118442363812434
 10
-0.05982992707626909
 20
34.1167939543813
 10
-0.06162808591401289
 20
34.115123550248626
 10
-0.06338470941038789
 20
34.11340952018349
 10
-0.0650987394410848
 20
34.1116528966535
 10
-0.06676914353850429
 20
34.10985473778301
 10
-0.06841755293397854
 20
34.10803599824887
 10
-0.0700433249091704
 20
34.10619738718152
 10
-0.0716234854578698
 20
34.10431943142786
 10
-0.07315708275044881
 20
34.102403262198244
 10
-0.07464319300524304
 20
34.10045003372136
 10
-0.07610539721078123
 20
34.098478479540155
 10
-0.07754312525055816
 20
34.09648936836777
 10
-0.07893160504168996
 20
34.09446557266611
 10
-0.08027000021586933
 20
34.09240831149401
 10
-0.08155750457389019
 20
34.0903188240687
 10
-0.08281942176367096
 20
34.088213442384955
 10
-0.08405525976103417
 20
34.08609298733554
 10
-0.08523868697515899
 20
34.083942841944825
 10
-0.08636899055374178
 20
34.081764301380005
 10
-0.08744548964417062
 20
34.07955867791245
 10
-0.08849496686582237
 20
34.0773397447027
 10
-0.08951701302530118
 20
34.07510836691751
 10
-0.09048399061143711
 20
34.072852578913235
 10
-0.09139531715309095
 20
34.07057373949221
 10
-0.09225044370123148
 20
34.0682732213421
 10
-0.09307737391540746
 20
34.065962106146145
 10
-0.093875785373782
 20
34.063641295013035
 10
-0.09461700080917679
 20
34.06130158886679
 10
-0.09530057374112866
 20
34.05894439705891
 10
-0.09592609241086303
 20
34.0565711394736
 10
-0.09652251182755402
 20
34.05419009959415
 10
-0.09708959944601163
 20
34.05180220579305
 10
-0.09759791442081914
 20
34.04940111415409
 10
-0.09804715056204365
 20
34.04698827100507
 10
-0.09843703726663211
 20
34.0445651297525
 10
-0.09879720204082026
 20
34.04213709590522
 10
-0.09912750443310964
 20
34.03970511634112
 10
-0.09939802358273042
 20
34.037265763217796
 10
-0.09960859653908624
 20
34.03482050591014
 10
-0.09975909646092088
 20
34.03237081734951
 10
-0.09987953814158927
 20
34.02991917049524
 10
-0.09996987437488998
 20
34.02746652622115
 10
-0.09999999250000037
 20
34.02501240367554
 10
-0.09999999250000037
 20
0.025012408707986822
 10
-0.09996987435985139
 20
0.02255828554977764
 10
-0.09987953808145311
 20
0.020105640664183792
  0
LWPOLYLINE
  5
32
330
17
100
AcDbEntity
  8
0
100
AcDbPolyline
 90
5
 70
0
 10
0.15002480533025958
 20
0.15002490986569372
 10
44.899999897824
 20
0.15002480524005202
 10
44.90000000717599
 20
33.89999989774471
 10
0.15002491468224738
 20
33.90000000725528
 10
0.15002480533025958
 20
0.15002490986569372
  0
LWPOLYLINE
  5
33
330
17
100
AcDbEntity
  8
0
100
AcDbPolyline
 90
327
 70
0
 10
-0.14981930587368547
 20
0.017652256703616878
 10
-0.14969886414495223
 20
0.015200609484058283
 10
-0.14947311419877213
 20
0.011526076401636038
 10
-0.14915725468816424
 20
0.007858190200896745
 10
-0.14875147587508697
 20
0.004199160279336488
 10
-0.14825602218552428
 20
0.000551190699760163
 10
-0.14789585736373184
 20
-0.0018768431404718837
 10
-0.1473110272404523
 20
-0.005511554977640897
 10
-0.1466371729632596
 20
-0.009130819657857059
 10
-0.14587470043677328
 20
-0.012732457071410054
 10
-0.1450240689459326
 20
-0.016314297726595872
 10
-0.14442764948255146
 20
-0.018695337594366923
 10
-0.14348937141598783
 20
-0.022255223924205467
 10
-0.14246401195730068
 20
-0.025791011586388572
 10
-0.1413521887446873
 20
-0.029300570754640258
 10
-0.1401545714988771
 20
-0.032781787401748565
 10
-0.13932764123939467
 20
-0.035092902581485154
 10
-0.1380449513601946
 20
-0.038543679752817014
 10
-0.13667796149206007
 20
-0.041961938829131296
 10
-0.1352274950585726
 20
-0.04534562077897735
 10
-0.13369442576647533
 20
-0.048692687398872406
 10
-0.13264494850131342
 20
-0.050911620588056164
 10
-0.13103019981427866
 20
-0.054220055730112404
 10
-0.12933474439648562
 20
-0.057487866516824235
 10
-0.127559603526881
 20
-0.06071308454116506
 10
-0.12570584648394767
 20
-0.06389376705239573
 10
-0.12444392925291912
 20
-0.06599914871135286
 10
-0.12251267267052339
 20
-0.06913337978535673
 10
-0.12050507986547133
 20
-0.07221927147843388
 10
-0.11842236013660012
 20
-0.07525496496481705
 10
-0.11626576803639652
 20
-0.07823863165626198
 10
-0.11480356379215742
 20
-0.08021018580885884
 10
-0.11257439837113749
 20
-0.08314002845602085
 10
-0.11027400239512675
 20
-0.08601428223134293
 10
-0.10790376153664369
 20
-0.08883121579182625
 10
-0.10546510354015234
 20
-0.09158913232202597
 10
-0.10381669410907303
 20
-0.09340787182379078
 10
-0.10131108793091352
 20
-0.09610511005796651
 10
-0.09874004285460396
 20
-0.0987400452806076
 10
-0.09610510758156074
 20
-0.10131109030526256
 10
-0.09340786929826574
 20
-0.10381669643054606
 10
-0.09158912976410336
 20
-0.1054651058260461
 10
-0.08883121318596617
 20
-0.10790376376858463
 10
-0.08601427957888105
 20
-0.11027400457195152
 10
-0.08314002575832116
 20
-0.11257440049171573
 10
-0.0802101830673129
 20
-0.11480356585539239
 10
-0.07823862888609202
 20
-0.11626577006093738
 10
-0.0752549621525532
 20
-0.11842236210250005
 10
-0.07221926862553128
 20
-0.1205050817717197
 10
-0.06913337689329481
 20
-0.12251267451614564
 10
-0.06599914578163411
 20
-0.12444393103697751
 10
-0.0638937640979653
 20
-0.12570584822672162
 10
-0.06071308155017286
 20
-0.12755960520743415
 10
-0.05748786349080529
 20
-0.1293347460139339
 10
-0.05422005267062304
 20
-0.13103020136777574
 10
-0.050911617496672994
 20
-0.13264494999005164
 10
-0.04869268428688448
 20
-0.1336944272117148
 10
-0.04534561763713196
 20
-0.1352274964380891
 10
-0.041961935659052596
 20
-0.1366779628051457
 10
-0.0385436765561458
 20
-0.1380449526061816
 10
-0.035092899359877985
 20
-0.13932764241765577
 10
-0.032781784163941195
 20
-0.1401545726318299
 10
-0.029300567493249365
 20
-0.14135218980943318
 10
-0.02579100830309422
 20
-0.14246401295327885
 10
-0.02225522062070113
 20
-0.14348937234267878
 10
-0.01869533427235842
 20
-0.1444276503394774
 10
-0.016314294392851626
 20
-0.1450240697561866
 10
-0.012732454079537665
 20
-0.14587470109628695
 10
-0.009130817013320816
 20
-0.14663717348929178
 10
-0.00551155268526279
 20
-0.14731102765043394
 10
-0.0018768412044266915
 20
-0.14789585767524477
 10
-0.0001792686451761033
 20
-0.1481476687772325
 10
0.0005511974736668764
 20
-0.14825602316602549
 10
0.004199165862424557
 20
-0.1487514765515802
 10
0.007858194582761022
 20
-0.1491572551197494
 10
0.01152607957405699
 20
-0.1494731144448589
 10
0.015200611441010127
 20
-0.14969886426518816
 10
0.0170776557057968
 20
-0.14979107753679002
 10
0.017652259861307324
 20
-0.14981930602279206
 10
0.021331225642855278
 20
-0.1499548103274418
 10
0.025012408830562587
 20
-0.14999998750000065
 10
45.02501240392082
 20
-0.14999998749398236
 10
45.02869358862719
 20
-0.14995481028414123
 10
45.03237255592467
 20
-0.14981930586769188
 10
45.034824203021586
 20
-0.14969886414499178
 10
45.03849873610402
 20
-0.14947311419882295
 10
45.04216662230478
 20
-0.1491572546882258
 10
45.04582565222635
 20
-0.14875147587515866
 10
45.04947362180594
 20
-0.1482560221856052
 10
45.05190165564622
 20
-0.14789585736381286
 10
45.05553636748348
 20
-0.14731102724052964
 10
45.05915563216378
 20
-0.14663717296332873
 10
45.06275726957742
 20
-0.14587470043682996
 10
45.06633911023269
 20
-0.1450240689459725
 10
45.06872015010048
 20
-0.14442764948258777
 10
45.07228003643028
 20
-0.14348937141603768
 10
45.07581582409243
 20
-0.14246401195736583
 10
45.07932538326064
 20
-0.14135218874476957
 10
45.08280659990771
 20
-0.1401545714989779
 10
45.08511771508747
 20
-0.13932764123949246
 10
45.08856849225876
 20
-0.1380449513603164
 10
45.091986751335035
 20
-0.13667796149220746
 10
45.095370433284835
 20
-0.1352274950587477
 10
45.098717499904694
 20
-0.13369442576668106
 10
45.10093643309381
 20
-0.1326449485015611
 10
45.104244868235966
 20
-0.13103019981448635
 10
45.107512679022776
 20
-0.12933474439664935
 10
45.110737897047215
 20
-0.12755960352699589
 10
45.11391857955854
 20
-0.12570584648400923
 10
45.11602396121763
 20
-0.12444392925290443
 10
45.11915819229167
 20
-0.12251267267048485
 10
45.12224408398478
 20
-0.12050507986540736
 10
45.125279777471206
 20
-0.11842236013650886
 10
45.128263444162684
 20
-0.11626576803627742
 10
45.1302349983152
 20
-0.11480356379209311
 10
45.133164840962266
 20
-0.11257439837114125
 10
45.1360390947375
 20
-0.11027400239520431
 10
45.138856028297894
 20
-0.1079037615367995
 10
45.14161394482801
 20
-0.10546510354038931
 10
45.1434326843298
 20
-0.10381669410929108
 10
45.14612992256412
 20
-0.10131108793100718
 10
45.1487648577869
 20
-0.09874004285456496
 10
45.15133590281169
 20
-0.09610510758138249
 10
45.15384150893709
 20
-0.09340786929794084
 10
45.155489918332584
 20
-0.09158912976377528
 10
45.157928576275
 20
-0.08883121318577206
 10
45.16029881707824
 20
-0.08601427957882594
 10
45.16259921299789
 20
-0.0831400257584109
 10
45.164828378361456
 20
-0.08021018306755255
 10
45.166290582566994
 20
-0.07823862888634923
 10
45.16844717460853
 20
-0.07525496215285636
 10
45.170529894277735
 20
-0.07221926862588124
 10
45.17253748702214
 20
-0.06913337689369273
 10
45.17446874354295
 20
-0.06599914578208028
 10
45.17573066073273
 20
-0.06389376409836785
 10
45.177584417713476
 20
-0.06071308155054603
 10
45.179359558520005
 20
-0.0574878634911469
 10
45.18105501387387
 20
-0.0542200526709319
 10
45.182669762496175
 20
-0.05091161749694682
 10
45.18371923971783
 20
-0.04869268428718575
 10
45.18525230894435
 20
-0.04534561763712841
 10
45.18670277531154
 20
-0.0419619356587363
 10
45.18806976511269
 20
-0.038543676555510574
 10
45.18935245492426
 20
-0.03509289935891861
 10
45.190179385138435
 20
-0.032781784162931905
 10
45.191377002315875
 20
-0.029300567492643266
 10
45.192488825459584
 20
-0.02579100830289869
 10
45.193514184848866
 20
-0.02225522062092243
 10
45.19445246284556
 20
-0.018695334273001303
 10
45.19504888226224
 20
-0.01631429439365551
 10
45.19589951368287
 20
-0.01273245372185225
 10
45.19666198613874
 20
-0.009130816293409574
 10
45.19733584034499
 20
-0.005511551600041225
 10
45.19792067039702
 20
-0.0018768397514653118
 10
45.198280835171225
 20
0.000551194095850846
 10
45.198776288755575
 20
0.004199163411796436
 10
45.19918206747666
 20
0.0078581930664784
 10
45.199497926908585
 20
0.011526078997582285
 10
45.199723676789475
 20
0.015200611808104773
 10
45.19984411847014
 20
0.01765225866227387
 10
45.199979622818965
 20
0.021331225042802486
 10
45.200024800006254
 20
0.02501240883057489
 10
45.200024800000236
 20
34.025012403920826
 10
45.199979622790394
 20
34.028693588627185
 10
45.199844118373946
 20
34.032372555924645
 10
45.199723676651246
 20
34.03482420302157
 10
45.199497926705064
 20
34.038498736104124
 10
45.19918206719446
 20
34.042166622305
 10
45.19877628838137
 20
34.04582565222669
 10
45.198280834691786
 20
34.0494736218064
 10
45.19792066986997
 20
34.05190165564677
 10
45.19733583974672
 20
34.05553636748381
 10
45.196661985469554
 20
34.0591556321639
 10
45.1958995129431
 20
34.062757269577325
 10
45.1950488814523
 20
34.066339110232384
 10
45.19445246198896
 20
34.068720150100035
 10
45.19351418392238
 20
34.07228003642999
 10
45.192488824463666
 20
34.07581582409228
 10
45.19137700125103
 20
34.079325383260645
 10
45.190179384005184
 20
34.08280659990786
 10
45.18935245374568
 20
34.08511771508767
 10
45.18806976386654
 20
34.08856849225886
 10
45.18670277399846
 20
34.09198675133503
 10
45.18525230756505
 20
34.095370433284735
 10
45.18371923827303
 20
34.098717499904495
 10
45.18266976100792
 20
34.10093643309359
 10
45.18105501232075
 20
34.104244868235966
 10
45.179359556902796
 20
34.10751267902299
 10
45.177584416033014
 20
34.11073789704764
 10
45.17573065898989
 20
34.11391857955917
 10
45.17446874175875
 20
34.11602396121829
 10
45.172537485176456
 20
34.119158192292105
 10
45.170529892371505
 20
34.122244083985
 10
45.16844717264275
 20
34.125279777471206
 10
45.16629058054267
 20
34.128263444162485
 10
45.16482837629851
 20
34.13023499831498
 10
45.16259921087745
 20
34.13316484096219
 10
45.16029881490141
 20
34.136039094737555
 10
45.15792857404289
 20
34.13885602829808
 10
45.15548991604636
 20
34.141613944828315
 10
45.15384150661524
 20
34.14343268433013
 10
45.151335900437076
 20
34.146129922564306
 10
45.14876485536077
 20
34.148764857786944
 10
45.14612992008772
 20
34.151335902811596
 10
45.14343268180443
 20
34.15384150893688
 10
45.141613942270254
 20
34.155489918332385
 10
45.138856025692185
 20
34.15792857627486
 10
45.13603909208517
 20
34.16029881707817
 10
45.13316483826468
 20
34.16259921299788
 10
45.13023499557375
 20
34.164828378361506
 10
45.128263441392605
 20
34.166290582567
 10
45.12527977465887
 20
34.16844717460871
 10
45.122244081131655
 20
34.17052989427806
 10
45.11915818939921
 20
34.17253748702261
 10
45.116023958287336
 20
34.17446874354356
 10
45.11391857660354
 20
34.175730660733365
 10
45.11073789405595
 20
34.177584417713945
 10
45.107512675996794
 20
34.17935955852032
 10
45.104244865176824
 20
34.181055013874044
 10
45.100936430003095
 20
34.18266976249622
 10
45.09871749679336
 20
34.18371923971786
 10
45.09537043014338
 20
34.18525230894434
 10
45.09198674816506
 20
34.186702775311495
 10
45.08856848906192
 20
34.18806976511262
 10
45.08511771186541
 20
34.18935245492417
 10
45.082806596669435
 20
34.19017938513834
 10
45.079325379998956
 20
34.19137700231586
 10
45.07581582080901
 20
34.19248882545963
 10
45.07228003312684
 20
34.19351418484896
 10
45.068720146778716
 20
34.1944524628457
 10
45.066339106899306
 20
34.19504888226239
 10
45.062757266227464
 20
34.195899513683
 10
45.05915562879899
 20
34.19666198613888
 10
45.055536364105585
 20
34.19733584034511
 10
45.05190165225697
 20
34.19792067039713
 10
45.04947361840968
 20
34.198280835171325
 10
45.04582564909382
 20
34.198776288755646
 10
45.04216661943923
 20
34.199182067476706
 10
45.03849873350821
 20
34.19949792690861
 10
45.034824200697784
 20
34.19972367678949
 10
45.032372553843516
 20
34.19984411847015
 10
45.02869358746314
 20
34.199979622818965
 10
45.02501240367552
 20
34.200024800006254
 10
0.025012408585388293
 20
34.200024800000236
 10
0.02133122387866713
 20
34.19997962279039
 10
0.01765225658085058
 20
34.19984411837391
 10
0.015200609483873135
 20
34.199723676651196
 10
0.011526076401488505
 20
34.199497926705014
 10
0.007858190200786623
 20
34.19918206719441
 10
0.004199160279263696
 20
34.19877628838133
 10
0.0005511906997242993
 20
34.19828083469177
 10
-0.001876843140502911
 20
34.19792066986998
 10
-0.005511554977586885
 20
34.197335839746714
 10
-0.009130819657719082
 20
34.19666198546954
 10
-0.012732457071189002
 20
34.19589951294307
 10
-0.016314297726292705
 20
34.19504888145226
 10
-0.01869533759404194
 20
34.19445246198889
 10
-0.02225522392391536
 20
34.193514183922325
 10
-0.025791011586133082
 20
34.19248882446363
 10
-0.029300570754419025
 20
34.19137700125101
 10
-0.03278178740156173
 20
34.1901793840052
 10
-0.03509290258131486
 20
34.18935245374571
 10
-0.03854367975265342
 20
34.188069763866515
 10
-0.04196193882897496
 20
34.18670277399838
 10
-0.04534562077882821
 20
34.185252307564895
 10
-0.04869268739872935
 20
34.18371923827279
 10
-0.050911620587905014
 20
34.18266976100764
 10
-0.054220055730041176
 20
34.18105501232057
 10
-0.05748786651682982
 20
34.17935955690274
 10
-0.06071308454124547
 20
34.17758441603309
 10
-0.06389376705255036
 20
34.17573065899011
 10
-0.06599914871155704
 20
34.17446874175905
 10
-0.06913337978543566
 20
34.172537485176726
 10
-0.07221927147839263
 20
34.17052989237175
 10
-0.07525496496465967
 20
34.16844717264296
 10
-0.07823863165599226
 20
34.16629058054285
 10
-0.08021018580852547
 20
34.164828376298665
 10
-0.08314002845582814
 20
34.162599210877545
 10
-0.08601428223128553
 20
34.16029881490143
 10
-0.08883121579189877
 20
34.157928574042835
 10
-0.09158913232222197
 20
34.15548991604623
 10
-0.09340787182403926
 20
34.153841506615095
 10
-0.09610511005817811
 20
34.15133590043696
 10
-0.09874004528078287
 20
34.14876485536068
 10
-0.10131109030540293
 20
34.14612992008767
 10
-0.1038166964306518
 20
34.1434326818044
 10
-0.10546510582612606
 20
34.14161394227026
 10
-0.10790376376859194
 20
34.138856025692206
 10
-0.1102740045718889
 20
34.136039092085205
 10
-0.11257440049158741
 20
34.13316483826473
 10
-0.11480356585520234
 20
34.130234995573815
 10
-0.11626577006074053
 20
34.12826344139261
 10
-0.11842236210243436
 20
34.1252797746589
 10
-0.12050508177177613
 20
34.1222440811317
 10
-0.12251267451631534
 20
34.11915818939928
 10
-0.12444393103725263
 20
34.11602395828743
 10
-0.1257058482270334
 20
34.11391857660368
 10
-0.12755960520762982
 20
34.110737894056065
 10
-0.12933474601402356
 20
34.10751267599687
 10
-0.1310302013677684
 20
34.104244865176874
 10
-0.13264494998995705
 20
34.10093643000312
 10
-0.1336944272116088
 20
34.09871749679336
 10
-0.13522749643805035
 20
34.095370430143475
 10
-0.13667796280516806
 20
34.091986748165255
 10
-0.13804495260625813
 20
34.088568489062204
 10
-0.13932764241777898
 20
34.08511771186579
 10
-0.14015457263195497
 20
34.08280659666983
 10
-0.1413521898095372
 20
34.07932537999918
 10
-0.1424640129533633
 20
34.07581582080906
 10
-0.1434893723427457
 20
34.07228003312671
 10
-0.14442765033952934
 20
34.06872014677841
 10
-0.14502406975622034
 20
34.066339106898965
 10
-0.14587470117681717
 20
34.062757266227166
 10
-0.1466371736326751
 20
34.05915562879873
 10
-0.14731102783889685
 20
34.05553636410536
 10
-0.1478958578909059
 20
34.05190165225679
 10
-0.14825602266509402
 20
34.04947361840951
 10
-0.1487514762493996
 20
34.04582564909375
 10
-0.14915725497044913
 20
34.042166619439264
 10
-0.14947311440235062
 20
34.038498733508355
 10
-0.14969886428322127
 20
34.034824200698026
 10
-0.14981930596388968
 20
34.03237255384376
 10
-0.14995481031271155
 20
34.02869358746327
 10
-0.14999998750000065
 20
34.02501240367554
 10
-0.14999998750000065
 20
0.025012408707986822
 10
-0.14995481029015365
 20
0.02133122400134959
 10
-0.14981930587368547
 20
0.017652256703616878
  0
LWPOLYLINE
  5
34
330
17
100
AcDbEntity
  8
0
100
AcDbPolyline
 90
5
 70
0
 10
0.20002480049226293
 20
0.2000249047487938
 10
44.849999902986006
 20
0.20002480035695253
 10
44.850000012013986
 20
33.84999990286707
 10
0.20002490952024463
 20
33.850000012132924
 10
0.20002480049226293
 20
0.2000249047487938
  0
LWPOLYLINE
  5
35
330
17
100
AcDbEntity
  8
0
100
AcDbPolyline
 90
327
 70
0
 10
-0.19975907366591777
 20
0.015198872743049964
 10
-0.19963863193718454
 20
0.01274722552349137
 10
-0.19933763201019858
 20
0.007847848100675785
 10
-0.1989164859978095
 20
0.0029573331867338744
 10
-0.19837544758262746
 20
-0.001921373355018522
 10
-0.19771484266596306
 20
-0.006785332774187122
 10
-0.19735467784417063
 20
-0.009213366614419169
 10
-0.19657490434971361
 20
-0.01405964904378501
 10
-0.19567643198386697
 20
-0.0188853352639662
 10
-0.19465980195278784
 20
-0.02368751846202776
 10
-0.19352562663639264
 20
-0.028463305982376404
 10
-0.1929292071730115
 20
-0.030844345850147455
 10
-0.19167816975613933
 20
-0.035590860936821705
 10
-0.1903110238169196
 20
-0.04030524446675591
 10
-0.1888285928729452
 20
-0.044984656671593945
 10
-0.18723176988518503
 20
-0.04962627884839825
 10
-0.1864048396257026
 20
-0.05193739402813484
 10
-0.18469458646056192
 20
-0.05653843023740633
 10
-0.18287193331064358
 20
-0.06109610898683504
 10
-0.18093797807405176
 20
-0.06560768490116488
 10
-0.17889388569310583
 20
-0.07007044037576347
 10
-0.1778444084279439
 20
-0.07228937356494723
 10
-0.17569141018753498
 20
-0.07670062040264203
 10
-0.1734308029732302
 20
-0.08105770143343663
 10
-0.1710639484902859
 20
-0.08535799211463985
 10
-0.16859227244334013
 20
-0.0895989021119436
 10
-0.16733035521231157
 20
-0.09170428377090073
 10
-0.16475534644651313
 20
-0.09588325851882686
 10
-0.16207855605093033
 20
-0.09999778075911919
 10
-0.15930159642400607
 20
-0.10404537205743179
 10
-0.15642614030238233
 20
-0.10802359429611577
 10
-0.15496393605814326
 20
-0.10999514844871264
 10
-0.15199171550916765
 20
-0.11390160529531836
 10
-0.14892452088726663
 20
-0.11773394364644638
 10
-0.14576419975579052
 20
-0.12148985504477458
 10
-0.14251265577401684
 20
-0.12516707706971908
 10
-0.1408642463429375
 20
-0.1269858165714839
 10
-0.1375234381193116
 20
-0.13058213420206682
 10
-0.134095378031849
 20
-0.13409538115094982
 10
-0.13058213101576324
 20
-0.13752344116953952
 10
-0.12698581331968792
 20
-0.14086424932266417
 10
-0.12516707378552552
 20
-0.1425126587181642
 10
-0.12148985169666436
 20
-0.1457642026280008
 10
-0.1177339402362005
 20
-0.14892452368598866
 10
-0.11390160182475541
 20
-0.15199171823289426
 10
-0.10999514491968795
 20
-0.15496393870541225
 10
-0.10802359073846708
 20
-0.15642614291095724
 10
-0.10404536844365792
 20
-0.15930159895439305
 10
-0.09999777709116033
 20
-0.16207855850178193
 10
-0.09588325479865553
 20
-0.16475534881652987
 10
-0.09170428000052033
 20
-0.1673303575002432
 10
-0.08959889831685151
 20
-0.1685922746899873
 10
-0.08535798827079873
 20
-0.171063950653972
 10
-0.08105769754289319
 20
-0.17343080505277644
 10
-0.07670061646747135
 20
-0.17569141218181303
 10
-0.07228936958725149
 20
-0.17784441033587672
 10
-0.07007043637746299
 20
-0.17889388755753988
 10
-0.06560768086305444
 20
-0.18093797985085525
 10
-0.061096104911080175
 20
-0.18287193499887255
 10
-0.056538426126194787
 20
-0.18469458805932604
 10
-0.05193738988367535
 20
-0.18640484113416556
 10
-0.04962627468773856
 20
-0.18723177134833968
 10
-0.044984652479489545
 20
-0.1888285942451573
 10
-0.040305240245446905
 20
-0.1903110250974414
 10
-0.03559085668856605
 20
-0.1916781709442782
 10
-0.030844341577219582
 20
-0.19292920826813037
 10
-0.028463301697712787
 20
-0.19352562768483955
 10
-0.02368751463319329
 20
-0.1946598028002476
 10
-0.018885331898246586
 20
-0.19567643265335147
 10
-0.01405964614760958
 20
-0.19657490486446402
 10
-0.009213364193354286
 20
-0.19735467822762942
 10
-0.0075157900238070965
 20
-0.1976064895684821
 10
-0.006785323904964117
 20
-0.19771484395727507
 10
-0.0019213660735537055
 20
-0.19837544846859545
 10
0.0029573388665669782
 20
-0.19891648655723343
 10
0.007847852167917795
 20
-0.1993376323222913
 10
0.012747227970107912
 20
-0.19963863208147611
 10
0.014624272756941451
 20
-0.19973084537872454
 10
0.015198876912451975
 20
-0.19975907386472658
 10
0.02010416460074388
 20
-0.19993974627017339
 10
0.025012408830569276
 20
-0.19999998250000087
 10
45.025012403920826
 20
-0.19999998249398257
 10
45.02992065017554
 20
-0.19993974621444552
 10
45.03482593988506
 20
-0.19975907365993242
 10
45.03727758698198
 20
-0.19963863193723233
 10
45.04217696440482
 20
-0.19933763201026164
 10
45.04706747931878
 20
-0.1989164859978867
 10
45.05194618586055
 20
-0.19837544758271783
 10
45.05681014527974
 20
-0.197714842666066
 10
45.05923817912002
 20
-0.19735467784427366
 10
45.064084461549506
 20
-0.1965749043498111
 10
45.0689101477698
 20
-0.19567643198395365
 10
45.07371233096798
 20
-0.19465980195285815
 10
45.07848811848844
 20
-0.19352562663644088
 10
45.08086915835623
 20
-0.19292920717305614
 10
45.08561567344285
 20
-0.19167816975620178
 10
45.09033005697274
 20
-0.19031102381700216
 10
45.095009469177526
 20
-0.1888285928730503
 10
45.09965109135428
 20
-0.18723176988531565
 10
45.10196220653404
 20
-0.1864048396258302
 10
45.10656324274325
 20
-0.18469458646072104
 10
45.11112092149262
 20
-0.18287193331083768
 10
45.1156324974069
 20
-0.18093797807428372
 10
45.12009525288144
 20
-0.17889388569337733
 10
45.122314186070554
 20
-0.17784440842825738
 10
45.12672543290839
 20
-0.17569141018779721
 10
45.13108251393932
 20
-0.17343080297343352
 10
45.135382804620654
 20
-0.17106394849042383
 10
45.13962371461808
 20
-0.1685922724434054
 10
45.14172909627717
 20
-0.1673303552123006
 10
45.14590807102515
 20
-0.16475534644647163
 10
45.15002259326549
 20
-0.1620785560508549
 10
45.15407018456385
 20
-0.15930159642389416
 10
45.15804840680258
 20
-0.1564261403022322
 10
45.1600199609551
 20
-0.1549639360580479
 10
45.16392641780158
 20
-0.15199171550916335
 10
45.16775875615259
 20
-0.14892452088736
 10
45.171514667550795
 20
-0.14576419975598742
 10
45.17519188957563
 20
-0.14251265577432318
 10
45.17701062907742
 20
-0.14086424634322495
 10
45.180606946708195
 20
-0.1375234381194315
 10
45.18412019365726
 20
-0.1340953780317926
 10
45.18754825367602
 20
-0.1305821310155217
 10
45.19088906182931
 20
-0.1269858133192514
 10
45.1925374712248
 20
-0.12516707378508585
 10
45.195789015134466
 20
-0.12148985169640342
 10
45.19894933619229
 20
-0.11773394023612507
 10
45.202016530739044
 20
-0.1139016018248732
 10
45.20498875121142
 20
-0.10999514492000526
 10
45.206450955416955
 20
-0.10802359073880194
 10
45.20932641146036
 20
-0.1040453684440541
 10
45.21210337100772
 20
-0.09999777709161838
 10
45.214780161322444
 20
-0.09588325479917703
 10
45.21735517000614
 20
-0.09170428000110711
 10
45.218617087195916
 20
-0.08959889831739468
 10
45.22108876315994
 20
-0.08535798827130095
 10
45.223455617558784
 20
-0.08105769754335303
 10
45.22571622468786
 20
-0.07670061646788721
 10
45.22786922284196
 20
-0.07228936958762304
 10
45.228918700063616
 20
-0.07007043637786196
 10
45.23096279235712
 20
-0.06560768086304526
 10
45.23289674750531
 20
-0.06109610491065498
 10
45.234719400565915
 20
-0.056538426125345334
 10
45.23642965364088
 20
-0.05193738988239348
 10
45.23725658385506
 20
-0.04962627468640678
 10
45.238853406751666
 20
-0.04498465247869622
 10
45.24033583760376
 20
-0.04030524024520065
 10
45.24170298345044
 20
-0.0355908566888752
 10
45.24295402077416
 20
-0.030844341578090705
 10
45.24355044019084
 20
-0.028463301698744913
 10
45.24468461541361
 20
-0.02368751415623955
 10
45.245701245350546
 20
-0.01888533093832518
 10
45.24659971762179
 20
-0.014059644700607832
 10
45.24737949102125
 20
-0.009213362256032722
 10
45.247739655795456
 20
-0.006785328408716564
 10
45.24840026057184
 20
-0.0019213693410557071
 10
45.248941298864366
 20
0.002957336844859035
 10
45.24936244477185
 20
0.007847851399287138
 10
45.24966344461178
 20
0.012747228459569677
 10
45.24978388629244
 20
0.015198875313738775
 10
45.24996455875679
 20
0.020104163800671614
 10
45.250024795006254
 20
0.02501240883058374
 10
45.250024795000236
 20
34.02501240392083
 10
45.2499645587207
 20
34.02992065017553
 10
45.249783886166185
 20
34.03482593988503
 10
45.249663444443485
 20
34.03727758698196
 10
45.2493624445165
 20
34.04217696440495
 10
45.24894129850411
 20
34.047067479319075
 10
45.248400260088914
 20
34.051946185861006
 10
45.247739655172225
 20
34.05681014528035
 10
45.24737949035041
 20
34.059238179120726
 10
45.24659971685599
 20
34.06408446154992
 10
45.24570124449018
 20
34.06891014776993
 10
45.244684614459146
 20
34.073712330967815
 10
45.24355043914281
 20
34.078488118487996
 10
45.242954019679466
 20
34.08086915835565
 10
45.24170298226257
 20
34.085615673442476
 10
45.24033583632332
 20
34.090330056972554
 10
45.2388534053793
 20
34.09500946917755
 10
45.237256582391495
 20
34.099651091354495
 10
45.23642965213199
 20
34.1019622065343
 10
45.234719398966924
 20
34.10656324274338
 10
45.232896745817094
 20
34.11112092149262
 10
45.2309627905806
 20
34.115632497406764
 10
45.228918698199756
 20
34.12009525288118
 10
45.22786922093465
 20
34.12231418607027
 10
45.225716222694054
 20
34.126725432908394
 10
45.22345561547954
 20
34.13108251393961
 10
45.22108876099636
 20
34.13538280462122
 10
45.21861708494916
 20
34.13962371461892
 10
45.21735516771802
 20
34.14172909627804
 10
45.21478015895235
 20
34.14590807102572
 10
45.21210336855691
 20
34.150022593265774
 10
45.20932640893014
 20
34.15407018456385
 10
45.20645095280868
 20
34.15804840680231
 10
45.20498874856452
 20
34.160019960954806
 10
45.2020165280155
 20
34.16392641780147
 10
45.19894933339355
 20
34.16775875615265
 10
45.19578901226203
 20
34.17151466755104
 10
45.19253746828021
 20
34.175191889576034
 10
45.19088905884908
 20
34.17701062907785
 10
45.187548250625454
 20
34.18060694670843
 10
45.18412019053799
 20
34.18412019365731
 10
45.1806069435219
 20
34.1875482536759
 10
45.17701062582582
 20
34.19088906182902
 10
45.17519188629165
 20
34.192537471224526
 10
45.17151466420288
 20
34.19578901513428
 10
45.16775875274251
 20
34.19894933619219
 10
45.16392641433116
 20
34.20201653073902
 10
45.160019957426194
 20
34.204988751211474
 10
45.15804840324505
 20
34.20645095541697
 10
45.15407018094998
 20
34.209326411460594
 10
45.150022589597214
 20
34.21210337100817
 10
45.14590806730444
 20
34.21478016132308
 10
45.14172909250602
 20
34.21735517000695
 10
45.13962371082222
 20
34.218617087196755
 10
45.13538280077644
 20
34.22108876316056
 10
45.13108251004881
 20
34.223455617559196
 10
45.126725428973685
 20
34.22571622468808
 10
45.12231418209376
 20
34.227869222842
 10
45.12009524888403
 20
34.228918700063645
 10
45.11563249336931
 20
34.230962792357104
 10
45.111120917417026
 20
34.23289674750525
 10
45.10656323863182
 20
34.23471940056582
 10
45.101962202388975
 20
34.23642965364076
 10
45.099651087193
 20
34.237256583854936
 10
45.09500946498503
 20
34.23885340675164
 10
45.09033005275128
 20
34.240335837603816
 10
45.08561566919469
 20
34.241702983450566
 10
45.080869154083636
 20
34.24295402077434
 10
45.07848811420423
 20
34.24355044019103
 10
45.07371232666167
 20
34.24468461541379
 10
45.06891014344371
 20
34.245701245350716
 10
45.064084457205944
 20
34.246599717621955
 10
45.05923817476132
 20
34.2473794910214
 10
45.056810140914024
 20
34.24773965579559
 10
45.05194618184648
 20
34.248400260571934
 10
45.04706747566069
 20
34.24894129886443
 10
45.042176961106385
 20
34.24936244477188
 10
45.03727758404622
 20
34.24966344461179
 10
45.034825937191954
 20
34.249783886292455
 10
45.02992064870522
 20
34.24996455875679
 10
45.02501240367551
 20
34.250024795006254
 10
0.025012408585381604
 20
34.250024795000236
 10
0.020104162330204282
 20
34.249964558720684
 10
0.015198872620221062
 20
34.249783886166135
 10
0.012747225523243614
 20
34.24966344444342
 10
0.007847848100478049
 20
34.249362444516436
 10
0.002957333186586107
 20
34.24894129850404
 10
-0.0019213733551163847
 20
34.248400260088864
 10
-0.006785332774235833
 20
34.24773965517221
 10
-0.009213366614463044
 20
34.24737949035041
 10
-0.014059649043716073
 20
34.246599716855975
 10
-0.018885335263785046
 20
34.24570124449016
 10
-0.02368751846173553
 20
34.2446846144591
 10
-0.028463305981974683
 20
34.243550439142744
 10
-0.03084434584972392
 20
34.242954019679374
 10
-0.035590860936444584
 20
34.241702982262495
 10
-0.040305244466425166
 20
34.240335836323275
 10
-0.04498465667130904
 20
34.238853405379295
 10
-0.04962627884815891
 20
34.237256582391524
 10
-0.05193739402791204
 20
34.23642965213204
 10
-0.05653843023719215
 20
34.2347193989669
 10
-0.06109610898662975
 20
34.23289674581698
 10
-0.06560768490096838
 20
34.23096279058039
 10
-0.070070440375577
 20
34.22891869819945
 10
-0.07228937356475267
 20
34.227869220934295
 10
-0.07670062040255274
 20
34.22571622269383
 10
-0.08105770143345112
 20
34.22345561547948
 10
-0.08535799211475541
 20
34.22108876099647
 10
-0.08959890211215674
 20
34.218617084949464
 10
-0.09170428377116344
 20
34.2173551677184
 10
-0.09588325851892462
 20
34.2147801589527
 10
-0.09999778075905619
 20
34.21210336855722
 10
-0.1040453720572134
 20
34.209326408930416
 10
-0.1080235942957466
 20
34.20645095280891
 10
-0.1099951484482798
 20
34.20498874856472
 10
-0.11390160529507348
 20
34.20201652801562
 10
-0.11773394364638178
 20
34.19894933339358
 10
-0.12148985504488306
 20
34.195789012261955
 10
-0.1251670770699921
 20
34.19253746828002
 10
-0.12698581657180938
 20
34.19088905884889
 10
-0.1305821342023423
 20
34.1875482506253
 10
-0.1340953811511759
 20
34.184120190537875
 10
-0.13752344116971832
 20
34.18060694352182
 10
-0.14086424932279934
 20
34.177010625825794
 10
-0.1425126587182736
 20
34.17519188629166
 10
-0.1457642026280109
 20
34.1715146642029
 10
-0.14892452368590633
 20
34.16775875274255
 10
-0.15199171823272514
 20
34.16392641433122
 10
-0.1549639387051616
 20
34.16001995742627
 10
-0.15642614291069978
 20
34.15804840324507
 10
-0.15930159895431048
 20
34.15407018095003
 10
-0.16207855850186229
 20
34.15002258959729
 10
-0.16475534881676135
 20
34.14590806730454
 10
-0.16733035750061503
 20
34.141729092506154
 10
-0.1685922746903958
 20
34.139623710822406
 10
-0.17106395065422625
 20
34.13538280077658
 10
-0.17343080505288966
 20
34.13108251004892
 10
-0.17569141218179715
 20
34.12672542897374
 10
-0.1778444103357434
 20
34.122314182093774
 10
-0.17889388755739516
 20
34.12009524888402
 10
-0.18093797985080082
 20
34.11563249336943
 10
-0.1828719349988989
 20
34.111120917417274
 10
-0.18469458805942401
 20
34.1065632386322
 10
-0.18640484113432643
 20
34.10196220238949
 10
-0.1872317713485024
 20
34.09965108719353
 10
-0.1888285942452913
 20
34.09500946498533
 10
-0.1903110250975498
 20
34.09033005275134
 10
-0.19167817094436362
 20
34.08561566919451
 10
-0.19292920826819562
 20
34.08086915408322
 10
-0.19352562768488663
 20
34.07848811420377
 10
-0.19465980290762377
 20
34.073712326661266
 10
-0.19567643284453165
 20
34.06891014344336
 10
-0.19657490511575032
 20
34.064084457205645
 10
-0.19735467851517965
 20
34.05923817476108
 10
-0.19771484328936778
 20
34.0568101409138
 10
-0.19837544806568924
 20
34.05194618184639
 10
-0.19891648635816744
 20
34.04706747566074
 10
-0.19933763226561452
 20
34.04217696110657
 10
-0.19963863210552169
 20
34.03727758404655
 10
-0.19975907378619007
 20
34.03482593719228
 10
-0.19993974625053298
 20
34.0299206487054
 10
-0.1999999825000009
 20
34.02501240367554
 10
-0.1999999825000009
 20
0.025012408707986822
 10
-0.19993974622045588
 20
0.020104162452921542
 10
-0.19975907366591777
 20
0.015198872743049964
  0
LWPOLYLINE
  5
36
330
17
100
AcDbEntity
  8
0
100
AcDbPolyline
 90
5
 70
0
 10
0.2500247956542662
 20
0.25002489963189384
 10
44.79999990814801
 20
0.250024795473853
 10
44.80000001685198
 20
33.79999990798943
 10
0.2500249043582418
 20
33.80000001701056
 10
0.2500247956542662
 20
0.25002489963189384
  0
LWPOLYLINE
  5
37
330
17
100
AcDbEntity
  8
0
100
AcDbPolyline
 90
327
 70
0
 10
-0.24969884145815013
 20
0.012745488782483048
 10
-0.2495783997294169
 20
0.010293841562924453
 10
-0.24920214982162506
 20
0.004169619799715526
 10
-0.2486757173074548
 20
-0.0019435238274290029
 10
-0.24799941929016797
 20
-0.00804190698937354
 10
-0.2471736631464019
 20
-0.014121856248134418
 10
-0.24681349832460947
 20
-0.016549890088366465
 10
-0.24583878145897498
 20
-0.022607743109929135
 10
-0.2447156910044744
 20
-0.028639850870075353
 10
-0.24344490346880246
 20
-0.03464257985264548
 10
-0.24202718432685275
 20
-0.04061231423815695
 10
-0.24143076486347162
 20
-0.042993354105928
 10
-0.2398669680962909
 20
-0.04892649794943796
 10
-0.23815803567653857
 20
-0.054819477347123266
 10
-0.23630499700120314
 20
-0.06066874258854764
 10
-0.23430896827149303
 20
-0.06647077029504794
 10
-0.2334820380120106
 20
-0.06878188547478453
 10
-0.23134422156092926
 20
-0.07453318072199568
 10
-0.22906590512922714
 20
-0.08023027914453881
 10
-0.226648461089531
 20
-0.08586974902335244
 10
-0.22409334561973632
 20
-0.09144819335265456
 10
-0.2230438683545744
 20
-0.09366712654183831
 10
-0.2203526205607914
 20
-0.09918118507517168
 10
-0.21752686154997486
 20
-0.10462753635004905
 10
-0.21456829345369083
 20
-0.11000289968811466
 10
-0.21147869840273265
 20
-0.11530403717149151
 10
-0.21021678117170406
 20
-0.11740941883044864
 10
-0.2069980202225029
 20
-0.12263313725229702
 10
-0.20365203223638942
 20
-0.12777629003980454
 10
-0.20018083271141207
 20
-0.13283577915004657
 10
-0.19658651256836818
 20
-0.1378085569359696
 10
-0.1951243083241291
 20
-0.13978011108856647
 10
-0.1914090326471978
 20
-0.14466318213461593
 10
-0.1875750393794065
 20
-0.14945360506154992
 10
-0.18362463797493736
 20
-0.15414849429772293
 10
-0.17956020800788133
 20
-0.15874502181741224
 10
-0.177911798576802
 20
-0.16056376131917705
 10
-0.17373578830770964
 20
-0.16505915834616725
 10
-0.1694507132090941
 20
-0.16945071702129208
 10
-0.1650591544499658
 20
-0.1737357920338165
 10
-0.16056375734111014
 20
-0.1779118022147823
 10
-0.15874501780694775
 20
-0.17956021161028235
 10
-0.1541484902073626
 20
-0.183624641487417
 10
-0.14945360089352
 20
-0.18757504280002582
 10
-0.14466317789118965
 20
-0.19140903597407286
 10
-0.13978010677206304
 20
-0.19512431155543214
 10
-0.13780855259084218
 20
-0.19658651576097713
 10
-0.13283577473476266
 20
-0.20018083580628612
 10
-0.12777628555678938
 20
-0.2036520352318442
 10
-0.1226331327040163
 20
-0.20699802311691418
 10
-0.1174094142194066
 20
-0.2102167839635089
 10
-0.11530403253573777
 20
-0.211478701153253
 10
-0.11000289499142463
 20
-0.21456829610050993
 10
-0.1046275315949811
 20
-0.21752686409161903
 10
-0.0991811802643197
 20
-0.22035262299585037
 10
-0.09366712167783
 20
-0.2230438706817019
 10
-0.09144818846804151
 20
-0.22409334790336505
 10
-0.08586974408897693
 20
-0.22664846326362145
 10
-0.0802302741631078
 20
-0.22906590719259948
 10
-0.07453317569624374
 20
-0.23134422351247055
 10
-0.06878188040747271
 20
-0.2334820398506754
 10
-0.06647076521153593
 20
-0.23430897006484952
 10
-0.06066873746572968
 20
-0.23630499868088148
 10
-0.05481947218779955
 20
-0.23815803724160403
 10
-0.048926492756430975
 20
-0.23986696954587766
 10
-0.042993348882080756
 20
-0.2414307661967834
 10
-0.04061230900257396
 20
-0.24202718561349257
 10
-0.03464257518684892
 20
-0.24344490450420836
 10
-0.028639846783172364
 20
-0.24471569181741118
 10
-0.022607739609956372
 20
-0.2458387820784942
 10
-0.01654988718228189
 20
-0.24681349878001413
 10
-0.0148523114024381
 20
-0.24706531035973167
 10
-0.01412184528359512
 20
-0.24717366474852465
 10
-0.008041898009531975
 20
-0.24799942038561076
 10
-0.0019435168496270694
 20
-0.2486757179947175
 10
0.004169624761778595
 20
-0.24920215019972375
 10
0.010293844499205694
 20
-0.24957839989776417
 10
0.012170889808086099
 20
-0.24967061322065906
 10
0.012745493963596623
 20
-0.2496988417066611
 10
0.01887710355863248
 20
-0.24992468221290504
 10
0.025012408830575962
 20
-0.24999997750000116
 10
45.02501240392083
 20
-0.24999997749398287
 10
45.03114771172389
 20
-0.24992468214474975
 10
45.03727932384546
 20
-0.249698841452173
 10
45.03973097094238
 20
-0.2495783997294729
 10
45.04585519270561
 20
-0.24920214982170016
 10
45.051968336332784
 20
-0.24867571730754764
 10
45.058066719494754
 20
-0.24799941929027747
 10
45.06414666875354
 20
-0.2471736631465269
 10
45.06657470259382
 20
-0.24681349832473454
 10
45.07263255561553
 20
-0.24583878145909346
 10
45.07866466337582
 20
-0.2447156910045793
 10
45.08466739235853
 20
-0.24344490346888678
 10
45.090637126744184
 20
-0.2420271843269093
 10
45.09301816661198
 20
-0.24143076486352458
 10
45.09895131045542
 20
-0.23986696809636637
 10
45.10484428985304
 20
-0.23815803567663946
 10
45.11069355509441
 20
-0.23630499700133262
 10
45.116495582800844
 20
-0.23430896827165346
 10
45.1188066979806
 20
-0.23348203801216802
 10
45.12455799322774
 20
-0.23134422156112697
 10
45.13025509165021
 20
-0.22906590512946795
 10
45.13589456152896
 20
-0.22664846108981848
 10
45.141473005858195
 20
-0.22409334562007363
 10
45.14369193904731
 20
-0.22304386835495368
 10
45.149205997580815
 20
-0.22035262056110527
 10
45.15465234885586
 20
-0.2175268615502148
 10
45.16002771219409
 20
-0.2145682934538488
 10
45.16532884967763
 20
-0.21147869840280167
 10
45.16743423133671
 20
-0.21021678117169687
 10
45.17265794975862
 20
-0.20699802022245598
 10
45.17780110254619
 20
-0.20365203223630077
 10
45.18286059165649
 20
-0.20018083271127865
 10
45.18783336944247
 20
-0.196586512568187
 10
45.18980492359499
 20
-0.19512430832400268
 10
45.19468799464088
 20
-0.19140903264718628
 10
45.19947841756767
 20
-0.18757503937951733
 10
45.204173306803696
 20
-0.18362463797517792
 10
45.20876983432324
 20
-0.17956020800825706
 10
45.210588573825035
 20
-0.17791179857715883
 10
45.21508397085227
 20
-0.1737357883078577
 10
45.21947552952762
 20
-0.16945071320902047
 10
45.22376060454036
 20
-0.16505915444965938
 10
45.227936614721536
 20
-0.16056375734056202
 10
45.22958502411703
 20
-0.15874501780639647
 10
45.23364945399395
 20
-0.15414849020703136
 10
45.23759985530635
 20
-0.14945360089342077
 10
45.241433848480206
 20
-0.1446631778913321
 10
45.245149124061385
 20
-0.139780106772458
 10
45.24661132826692
 20
-0.13780855259125468
 10
45.25020564831219
 20
-0.1328357747352493
 10
45.253676847737715
 20
-0.12777628555735382
 10
45.25702283562275
 20
-0.1226331327046605
 10
45.26024159646932
 20
-0.11740941422013398
 10
45.2615035136591
 20
-0.11530403253642155
 10
45.264593108606405
 20
-0.11000289499205658
 10
45.26755167659756
 20
-0.10462753159556053
 10
45.27037743550184
 20
-0.09918118026484461
 10
45.27306868318774
 20
-0.09366712167829927
 10
45.274118160409394
 20
-0.0914481884685382
 10
45.27667327576989
 20
-0.08586974408896367
 10
45.279090719699084
 20
-0.08023027416257399
 10
45.28136903601914
 20
-0.07453317569517917
 10
45.28350685235751
 20
-0.06878188040586837
 10
45.284333782571686
 20
-0.06647076520988167
 10
45.28632981118745
 20
-0.06066873746474752
 10
45.28818284974794
 20
-0.054819472187501495
 10
45.28989178205202
 20
-0.04892649275682741
 10
45.29145557870275
 20
-0.042993348883180106
 10
45.29205199811943
 20
-0.040612309003834314
 10
45.293469717144355
 20
-0.03464257459062661
 10
45.29474050456235
 20
-0.02863984558324028
 10
45.2958635948986
 20
-0.02260773780117368
 10
45.29683831164549
 20
-0.016549884760600146
 10
45.297198476419695
 20
-0.014121850913283988
 10
45.2980242323881
 20
-0.008041902093907174
 10
45.29870053025207
 20
-0.001943519376759996
 10
45.2992269626351
 20
0.004169623800991978
 10
45.29960321243407
 20
0.010293845111034577
 10
45.299723654114736
 20
0.012745491965203675
 10
45.29994949469461
 20
0.01887710255854056
 10
45.300024790006255
 20
0.02501240883059259
 10
45.300024790000236
 20
34.02501240392084
 10
45.299949494651
 20
34.031147711723875
 10
45.299723653958424
 20
34.037279323845425
 10
45.29960321223572
 20
34.03973097094235
 10
45.29922696232794
 20
34.04585519270579
 10
45.298700529813765
 20
34.051968336333154
 10
45.29802423179646
 20
34.05806671949532
 10
45.297198475652664
 20
34.064146668754304
 10
45.29683831083085
 20
34.06657470259468
 10
45.29586359396526
 20
34.072632555616025
 10
45.2947405035108
 20
34.07866466337595
 10
45.29346971597519
 20
34.084667392358305
 10
45.29205199683331
 20
34.09063712674361
 10
45.291455577369966
 20
34.09301816661126
 10
45.28989178060276
 20
34.09895131045496
 10
45.28818284818296
 20
34.10484428985283
 10
45.28632980950758
 20
34.110693555094436
 10
45.284333780777814
 20
34.11649558280112
 10
45.28350685051831
 20
34.11880669798093
 10
45.28136903406732
 20
34.124557993227896
 10
45.279090717635725
 20
34.130255091650206
 10
45.27667327359615
 20
34.13589456152879
 10
45.274118158126484
 20
34.14147300585786
 10
45.27306868086138
 20
34.14369193904695
 10
45.27037743306736
 20
34.14920599758083
 10
45.26755167405628
 20
34.15465234885623
 10
45.2645931059597
 20
34.160027712194804
 10
45.261503510908426
 20
34.16532884967868
 10
45.260241593677286
 20
34.1674342313378
 10
45.257022832728246
 20
34.17265794975934
 10
45.25367684474231
 20
34.17780110254654
 10
45.25020564521753
 20
34.18286059165649
 10
45.24661132507469
 20
34.18783336944213
 10
45.245149120830526
 20
34.18980492359463
 10
45.24143384515354
 20
34.19468799464075
 10
45.23759985188569
 20
34.19947841756776
 10
45.23364945048117
 20
34.204173306804
 10
45.229585020514044
 20
34.20876983432375
 10
45.22793661108292
 20
34.21058857382557
 10
45.223760600813826
 20
34.215083970852554
 10
45.219475525715204
 20
34.21947552952768
 10
45.21508396695608
 20
34.223760604540196
 10
45.21058856984722
 20
34.22793661472116
 10
45.208769830313045
 20
34.229585024116666
 10
45.20417330271357
 20
34.2336494539937
 10
45.19947841339985
 20
34.23759985530621
 10
45.19468799039764
 20
34.24143384848016
 10
45.18980491927864
 20
34.24514912406144
 10
45.1878333650975
 20
34.24661132826694
 10
45.182860587241095
 20
34.25020564831249
 10
45.17780109806279
 20
34.25367684773827
 10
45.17265794520967
 20
34.257022835623545
 10
45.16743422672471
 20
34.26024159647033
 10
45.16532884504091
 20
34.26150351366014
 10
45.16002770749694
 20
34.264593108607166
 10
45.154652344100846
 20
34.26755167659807
 10
45.14920599277055
 20
34.270377435502105
 10
45.143691934184424
 20
34.27306868318779
 10
45.14147300097469
 20
34.27411816040943
 10
45.13589455659525
 20
34.276673275769866
 10
45.13025508666898
 20
34.279090719699006
 10
45.12455798820172
 20
34.28136903601902
 10
45.11880669291254
 20
34.283506852357355
 10
45.11649557771657
 20
34.28433378257153
 10
45.11069354997112
 20
34.286329811187414
 10
45.10484428469354
 20
34.288182849748004
 10
45.09895130526254
 20
34.289891782052166
 10
45.09301816138856
 20
34.29145557870298
 10
45.09063712150915
 20
34.29205199811967
 10
45.08466738709588
 20
34.293469717144575
 10
45.07866465808843
 20
34.294740504562554
 10
45.0726325503063
 20
34.29586359489879
 10
45.066574697265665
 20
34.296838311645665
 10
45.06414666341837
 20
34.29719847641986
 10
45.05806671459914
 20
34.29802423238822
 10
45.051968331882144
 20
34.29870053025215
 10
45.04585518870454
 20
34.29922696263515
 10
45.039730967394654
 20
34.2996032124341
 10
45.037279320540385
 20
34.299723654114764
 10
45.031147709947305
 20
34.29994949469461
 10
45.025012403675504
 20
34.300024790006255
 10
0.02501240858537492
 20
34.300024790000236
 10
0.018877100781741644
 20
34.29994949465099
 10
0.012745488659591539
 20
34.29972365395837
 10
0.01029384156261409
 20
34.29960321223565
 10
0.004169619799467575
 20
34.29922696232786
 10
-0.0019435238276147675
 20
34.298700529813686
 10
-0.008041906989497201
 20
34.298024231796404
 10
-0.014121856248195973
 20
34.29719847565264
 10
-0.016549890088423183
 20
34.29683831083085
 10
-0.022607743109844515
 20
34.29586359396524
 10
-0.028639850869850506
 20
34.294740503510766
 10
-0.03464257985228191
 20
34.293469715975135
 10
-0.040612314237656676
 20
34.29205199683323
 10
-0.04299335410540591
 20
34.29145557736986
 10
-0.04892649794897395
 20
34.28989178060267
 10
-0.054819477346717264
 20
34.28818284818291
 10
-0.060668742588199105
 20
34.28632980950757
 10
-0.06647077029475612
 20
34.28433378077785
 10
-0.06878188547450925
 20
34.283506850518364
 10
-0.0745331807217316
 20
34.28136903406729
 10
-0.08023027914428596
 20
34.27909071763558
 10
-0.08586974902311068
 20
34.27667327359589
 10
-0.09144819335242466
 20
34.2741181581261
 10
-0.09366712654160032
 20
34.273068680860945
 10
-0.09918118507506547
 20
34.270377433067104
 10
-0.10462753635007219
 20
34.267551674056214
 10
-0.11000289968826366
 20
34.26459310595986
 10
-0.11530403717176314
 20
34.261503510908824
 10
-0.11740941883076983
 20
34.26024159367776
 10
-0.12263313725241037
 20
34.25702283272868
 10
-0.12777629003971647
 20
34.2536768447427
 10
-0.13283577914976394
 20
34.25020564521786
 10
-0.13780855693550095
 20
34.24661132507497
 10
-0.13978011108803418
 20
34.24514912083079
 10
-0.1446631821343165
 20
34.24143384515369
 10
-0.14945360506147648
 20
34.237599851885726
 10
-0.15414849429786656
 20
34.23364945048107
 10
-0.15874502181776226
 20
34.22958502051382
 10
-0.16056376131957953
 20
34.22793661108268
 10
-0.16505915834650753
 20
34.223760600813634
 10
-0.16945071702157094
 20
34.21947552571507
 10
-0.1737357920340365
 20
34.21508396695599
 10
-0.1779118022149469
 20
34.21058856984718
 10
-0.17956021161042116
 20
34.208769830313045
 10
-0.18362464148743252
 20
34.20417330271359
 10
-0.18757504279992557
 20
34.19947841339989
 10
-0.1914090359738638
 20
34.1946879903977
 10
-0.1951243115551209
 20
34.18980491927873
 10
-0.19658651576065908
 20
34.187833365097525
 10
-0.20018083580618765
 20
34.18286058724116
 10
-0.20365203523195022
 20
34.177801098062886
 10
-0.20699802311720983
 20
34.1726579452098
 10
-0.21021678396397747
 20
34.16743422672487
 10
-0.21147870115375825
 20
34.165328845041124
 10
-0.21456829610082417
 20
34.16002770749711
 10
-0.21752686409175565
 20
34.15465234410096
 10
-0.22035262299582448
 20
34.14920599277061
 10
-0.22304387068152984
 20
34.14369193418444
 10
-0.22409334790318158
 20
34.141473000974685
 10
-0.22664846326355
 20
34.13589455659539
 10
-0.22906590719262984
 20
34.13025508666929
 10
-0.2313442235125912
 20
34.12455798820219
 10
-0.23348203985087396
 20
34.118806692913175
 10
-0.23430897006504994
 20
34.11649557771722
 10
-0.23630499868104707
 20
34.11069354997147
 10
-0.23815803724173734
 20
34.10484428469361
 10
-0.23986696954598205
 20
34.098951305262304
 10
-0.24143076619686196
 20
34.093018161388024
 10
-0.24202718561355296
 20
34.09063712150858
 10
-0.24344490463843044
 20
34.08466738709537
 10
-0.24471569205638824
 20
34.078664658087995
 10
-0.24583878239260384
 20
34.07263255030593
 10
-0.24681349913945344
 20
34.06657469726537
 10
-0.2471736639136416
 20
34.064146663418086
 10
-0.2479994198819792
 20
34.05806671459903
 10
-0.2486757177458862
 20
34.05196833188221
 10
-0.24920215012887892
 20
34.045855188704785
 10
-0.2495783999278221
 20
34.039730967395066
 10
-0.24969884160849048
 20
34.0372793205408
 10
-0.24992468218835456
 20
34.031147709947525
 10
-0.24999997750000122
 20
34.02501240367554
 10
-0.24999997750000122
 20
0.025012408707986822
 10
-0.24992468215075817
 20
0.01887710090449349
 10
-0.24969884145815013
 20
0.012745488782483048
  0
LWPOLYLINE
  5
38
330
17
100
AcDbEntity
  8
0
100
AcDbPolyline
 90
5
 70
0
 10
0.30002479081626954
 20
0.3000248945149939
 10
44.74999991331001
 20
0.3000247905907535
 10
44.75000002168998
 20
33.749999913111786
 10
0.3000248991962391
 20
33.750000021888205
 10
0.30002479081626954
 20
0.3000248945149939
  0
ENDSEC
  0
SECTION
  2
OBJECTS
  0
DICTIONARY
  5
A
330
0
100
AcDbDictionary
281
1
  3
ACAD_COLOR
350
B
  3
ACAD_GROUP
350
C
  3
ACAD_LAYOUT
350
D
  3
ACAD_MATERIAL
350
E
  3
ACAD_MLEADERSTYLE
350
F
  3
ACAD_MLINESTYLE
350
10
  3
ACAD_PLOTSETTINGS
350
11
  3
ACAD_PLOTSTYLENAME
350
12
  3
ACAD_SCALELIST
350
14
  3
ACAD_TABLESTYLE
350
15
  3
ACAD_VISUALSTYLE
350
16
  3
EZDXF_META
350
2D
  0
DICTIONARY
  5
B
330
A
100
AcDbDictionary
281
1
  0
DICTIONARY
  5
C
330
A
100
AcDbDictionary
281
1
  0
DICTIONARY
  5
D
330
A
100
AcDbDictionary
281
1
  3
Model
350
1A
  3
Layout1
350
1E
  0
DICTIONARY
  5
E
330
A
100
AcDbDictionary
281
1
  3
ByBlock
350
1F
  3
ByLayer
350
20
  3
Global
350
21
  0
DICTIONARY
  5
F
330
A
100
AcDbDictionary
281
1
  3
Standard
350
2C
  0
DICTIONARY
  5
10
330
A
100
AcDbDictionary
281
1
  3
Standard
350
22
  0
DICTIONARY
  5
11
330
A
100
AcDbDictionary
281
1
  0
ACDBDICTIONARYWDFLT
  5
12
330
A
100
AcDbDictionary
281
1
  3
Normal
350
13
100
AcDbDictionaryWithDefault
340
13
  0
ACDBPLACEHOLDER
  5
13
330
12
  0
DICTIONARY
  5
14
330
A
100
AcDbDictionary
281
1
  0
DICTIONARY
  5
15
330
A
100
AcDbDictionary
281
1
  0
DICTIONARY
  5
16
330
A
100
AcDbDictionary
281
1
  0
LAYOUT
  5
1A
330
D
100
AcDbPlotSettings
  1

  4
A3
  6

 40
7.5
 41
20.0
 42
7.5
 43
20.0
 44
420.0
 45
297.0
 46
0.0
 47
0.0
 48
0.0
 49
0.0
140
0.0
141
0.0
142
1.0
143
1.0
 70
1024
 72
1
 73
0
 74
5
  7

 75
16
 76
0
 77
2
 78
300
147
1.0
148
0.0
149
0.0
100
AcDbLayout
  1
Model
 70
1
 71
0
 10
0.0
 20
0.0
 11
420.0
 21
297.0
 12
0.0
 22
0.0
 32
0.0
 14
1e+20
 24
1e+20
 34
1e+20
 15
-1e+20
 25
-1e+20
 35
-1e+20
146
0.0
 13
0.0
 23
0.0
 33
0.0
 16
1.0
 26
0.0
 36
0.0
 17
0.0
 27
1.0
 37
0.0
 76
1
330
17
  0
LAYOUT
  5
1E
330
D
100
AcDbPlotSettings
  1

  4
A3
  6

 40
7.5
 41
20.0
 42
7.5
 43
20.0
 44
420.0
 45
297.0
 46
0.0
 47
0.0
 48
0.0
 49
0.0
140
0.0
141
0.0
142
1.0
143
1.0
 70
0
 72
1
 73
0
 74
5
  7

 75
16
 76
0
 77
2
 78
300
147
1.0
148
0.0
149
0.0
100
AcDbLayout
  1
Layout1
 70
1
 71
1
 10
0.0
 20
0.0
 11
420.0
 21
297.0
 12
0.0
 22
0.0
 32
0.0
 14
1e+20
 24
1e+20
 34
1e+20
 15
-1e+20
 25
-1e+20
 35
-1e+20
146
0.0
 13
0.0
 23
0.0
 33
0.0
 16
1.0
 26
0.0
 36
0.0
 17
0.0
 27
1.0
 37
0.0
 76
1
330
1B
  0
MATERIAL
  5
1F
102
{ACAD_REACTORS
330
E
102
}
330
E
100
AcDbMaterial
  1
ByBlock
  2

 70
0
 40
1.0
 71
1
 41
1.0
 91
-1023410177
 42
1.0
 72
1
  3

 73
1
 74
1
 75
1
 44
0.5
 73
0
 45
1.0
 46
1.0
 77
1
  4

 78
1
 79
1
170
1
 48
1.0
171
1
  6

172
1
173
1
174
1
140
1.0
141
1.0
175
1
  7

176
1
177
1
178
1
143
1.0
179
1
  8

270
1
271
1
272
1
145
1.0
146
1.0
273
1
  9

274
1
275
1
276
1
 42
1.0
 72
1
  3

 73
1
 74
1
 75
1
 94
63
  0
MATERIAL
  5
20
102
{ACAD_REACTORS
330
E
102
}
330
E
100
AcDbMaterial
  1
ByLayer
  2

 70
0
 40
1.0
 71
1
 41
1.0
 91
-1023410177
 42
1.0
 72
1
  3

 73
1
 74
1
 75
1
 44
0.5
 73
0
 45
1.0
 46
1.0
 77
1
  4

 78
1
 79
1
170
1
 48
1.0
171
1
  6

172
1
173
1
174
1
140
1.0
141
1.0
175
1
  7

176
1
177
1
178
1
143
1.0
179
1
  8

270
1
271
1
272
1
145
1.0
146
1.0
273
1
  9

274
1
275
1
276
1
 42
1.0
 72
1
  3

 73
1
 74
1
 75
1
 94
63
  0
MATERIAL
  5
21
102
{ACAD_REACTORS
330
E
102
}
330
E
100
AcDbMaterial
  1
Global
  2

 70
0
 40
1.0
 71
1
 41
1.0
 91
-1023410177
 42
1.0
 72
1
  3

 73
1
 74
1
 75
1
 44
0.5
 73
0
 45
1.0
 46
1.0
 77
1
  4

 78
1
 79
1
170
1
 48
1.0
171
1
  6

172
1
173
1
174
1
140
1.0
141
1.0
175
1
  7

176
1
177
1
178
1
143
1.0
179
1
  8

270
1
271
1
272
1
145
1.0
146
1.0
273
1
  9

274
1
275
1
276
1
 42
1.0
 72
1
  3

 73
1
 74
1
 75
1
 94
63
  0
MLINESTYLE
  5
22
102
{ACAD_REACTORS
330
10
102
}
330
10
100
AcDbMlineStyle
  2
Standard
 70
0
  3

 62
256
 51
90.0
 52
90.0
 71
2
 49
0.5
 62
256
  6
BYLAYER
 49
-0.5
 62
256
  6
BYLAYER
  0
MLEADERSTYLE
  5
2C
102
{ACAD_REACTORS
330
F
102
}
330
F
100
AcDbMLeaderStyle
179
2
170
2
171
1
172
0
 90
2
 40
0.0
 41
0.0
173
1
 91
-1056964608
 92
-2
290
1
 42
2.0
291
1
 43
8.0
  3
Standard
 44
4.0
300

342
29
174
1
175
1
176
0
178
1
 93
-1056964608
 45
4.0
292
0
297
0
 46
4.0
 94
-1056964608
 47
1.0
 49
1.0
140
1.0
294
1
141
0.0
177
0
142
1.0
295
0
296
0
143
3.75
271
0
272
9
273
9
  0
DICTIONARY
  5
2D
330
A
100
AcDbDictionary
280
1
281
1
  3
CREATED_BY_EZDXF
350
2E
  3
WRITTEN_BY_EZDXF
350
3B
  0
DICTIONARYVAR
  5
2E
330
2D
100
DictionaryVariables
280
0
  1
1.4.3 @ 2026-09-11T16:26:40.084261+00:00
  0
DICTIONARYVAR
  5
3B
330
2D
100
DictionaryVariables
280
0
  1
1.4.3 @ 2026-09-11T16:26:40.092465+00:00
  0
ENDSEC
  0
EOF
